<?xml version="1.0" standalone="no"?>
<!DOCTYPE svg PUBLIC "-//W3C//DTD SVG 20010904//EN"
 "http://www.w3.org/TR/2001/REC-SVG-20010904/DTD/svg10.dtd">
<svg version="1.0" xmlns="http://www.w3.org/2000/svg"
 width="2368.000000pt" height="1188.000000pt" viewBox="0 0 2368.000000 1188.000000"
 preserveAspectRatio="xMidYMid meet">

<g transform="translate(0.000000,1188.000000) scale(0.100000,-0.100000)"
fill="#000000" stroke="none">
<path d="M0 5940 l0 -5940 11840 0 11840 0 0 5940 0 5940 -11840 0 -11840 0 0
-5940z m11900 5130 c523 -36 849 -116 1210 -296 354 -177 508 -304 628 -516
61 -107 151 -367 198 -571 l18 -77 40 -10 c54 -14 69 -22 83 -50 6 -13 30 -31
54 -39 23 -9 50 -27 61 -41 24 -33 81 -349 73 -402 -10 -58 -56 -120 -121
-163 -32 -21 -60 -39 -62 -40 -1 -1 14 -130 34 -286 l35 -284 48 -50 c143
-148 228 -363 238 -601 6 -135 1 -154 -59 -212 l-35 -33 36 -89 c19 -49 36
-88 37 -87 0 1 61 90 134 197 146 215 171 246 206 254 77 20 181 -104 353
-424 40 -74 90 -159 111 -189 21 -29 258 -286 527 -570 269 -284 544 -577 611
-653 137 -153 169 -174 288 -191 127 -19 175 -5 355 102 195 117 192 117 322
-1 50 -46 139 -125 197 -175 58 -50 121 -108 140 -128 81 -86 424 -222 831
-330 321 -85 394 -107 457 -138 72 -35 121 -81 138 -129 9 -25 13 -248 13
-875 l1 -843 -135 0 -135 0 0 638 c0 663 -5 767 -45 925 -27 103 -100 190
-210 252 -81 45 -149 63 -288 75 -178 15 -272 42 -432 123 -176 88 -267 158
-455 349 -97 98 -181 178 -186 178 -6 0 -42 -14 -80 -31 -89 -41 -923 -349
-943 -349 -21 0 75 64 162 108 83 41 106 57 142 100 l26 31 -138 114 c-202
168 -319 296 -661 726 -229 288 -339 413 -471 535 -53 49 -105 103 -117 120
-11 17 -52 105 -89 194 -70 166 -92 198 -151 216 -41 13 -56 -13 -58 -105 l-2
-84 -127 -240 c-125 -236 -151 -294 -141 -320 3 -7 85 -81 183 -163 265 -224
389 -357 282 -303 -21 11 -113 72 -203 135 l-165 116 -49 -15 c-27 -8 -78 -32
-113 -53 l-63 -39 -34 -99 c-44 -130 -106 -257 -191 -390 -70 -111 -103 -179
-103 -214 0 -19 -10 -24 -38 -21 -8 1 -19 -2 -26 -8 -8 -7 12 -34 77 -103 82
-86 147 -187 147 -226 0 -9 -35 18 -77 59 -75 72 -201 169 -219 169 -5 -1 -22
-17 -37 -38 -53 -70 -222 -236 -462 -452 -132 -119 -276 -254 -319 -301 -126
-133 -187 -243 -172 -305 5 -20 3 -24 -17 -24 -14 0 -36 9 -50 20 l-25 20 -4
-277 c-3 -221 -8 -292 -22 -347 -29 -116 -70 -207 -156 -346 -5 -8 -21 -46
-36 -85 -15 -38 -62 -142 -104 -230 -42 -88 -87 -182 -100 -210 -15 -31 -64
-91 -130 -160 -103 -107 -130 -151 -130 -210 0 -15 -6 -17 -37 -12 -21 4 -42
13 -47 20 -7 12 -23 5 -80 -33 -66 -44 -164 -88 -227 -104 -15 -3 -50 -21 -78
-40 -57 -39 -142 -73 -215 -87 -71 -13 -79 -12 -73 11 10 38 -36 76 -126 106
-117 38 -213 84 -283 136 l-60 45 -32 -28 c-44 -40 -77 -39 -80 2 -4 56 -43
111 -156 223 -81 79 -116 121 -122 146 -10 34 -11 35 -55 32 l-46 -4 5 79 c3
65 0 90 -20 148 -29 81 -95 243 -108 265 -5 8 -24 40 -42 70 -44 71 -93 195
-115 290 -15 63 -18 118 -17 343 1 187 -2 265 -9 258 -6 -6 -23 -11 -38 -11
-22 0 -29 6 -34 28 -19 87 -182 269 -581 647 -165 157 -328 317 -361 355 l-61
69 -74 -51 c-40 -29 -106 -85 -145 -126 -40 -41 -73 -69 -73 -62 0 39 62 133
144 218 94 97 104 127 33 97 -51 -21 -60 -19 -53 10 11 42 -12 105 -73 200
-143 224 -223 417 -247 603 l-7 52 -51 2 c-28 1 -95 0 -148 -1 -66 -2 -98 0
-98 7 0 16 92 42 196 54 l92 11 4 226 c5 194 9 242 31 341 14 63 30 128 36
143 6 16 11 34 11 42 0 18 -341 189 -500 250 -123 48 -126 50 -213 136 -78 78
-93 89 -141 100 -34 7 -81 9 -128 5 -88 -9 -90 -11 -107 -123 -14 -88 -14
-103 -1 -103 5 0 47 27 92 60 45 33 84 60 87 60 3 -1 39 -46 80 -101 94 -128
96 -141 47 -339 -20 -80 -42 -158 -48 -174 -6 -15 -43 -67 -82 -115 -39 -48
-84 -116 -99 -152 -56 -125 -68 -145 -132 -217 -200 -225 -789 -993 -1072
-1397 -254 -364 -319 -480 -546 -982 l-177 -391 0 -346 0 -346 -130 0 -130 0
0 341 0 341 -206 432 c-114 237 -215 448 -225 468 l-19 38 138 0 138 0 174
-364 c96 -200 176 -363 176 -362 12 13 314 703 314 715 0 33 275 456 625 961
78 113 150 218 161 235 l19 29 -76 -42 c-75 -41 -109 -51 -109 -33 0 28 264
340 465 551 60 63 122 129 137 145 l28 31 -34 -4 c-32 -4 -36 -1 -54 34 -11
22 -23 54 -27 72 -9 44 -72 84 -141 90 -43 4 -60 -1 -113 -28 -59 -31 -64 -32
-116 -22 -66 14 -137 49 -194 96 -80 67 -108 68 -271 10 -67 -24 -84 -26 -165
-21 -55 4 -121 16 -168 32 -90 29 -128 30 -212 6 -54 -15 -60 -19 -57 -41 1
-13 10 -32 19 -42 36 -40 1 -167 -61 -212 -26 -20 -38 -21 -182 -18 -193 4
-225 -5 -310 -86 -32 -31 -231 -218 -441 -416 -211 -197 -380 -362 -377 -367
3 -5 76 -55 163 -113 158 -105 345 -265 291 -250 -33 9 -239 112 -480 240
-266 140 -393 173 -545 141 -149 -32 -232 -91 -347 -247 -148 -203 -176 -250
-283 -493 -59 -133 -121 -262 -138 -287 -76 -113 -452 -451 -760 -684 -197
-149 -193 -136 34 110 378 413 604 704 778 1004 122 210 184 305 240 365 26
28 94 109 151 180 127 159 229 261 295 297 l51 27 79 -39 c44 -22 95 -43 114
-46 19 -4 84 -33 145 -66 66 -35 116 -56 122 -51 7 4 137 109 290 233 299 241
464 392 513 469 35 54 38 77 14 103 -15 17 -15 20 8 44 13 14 80 53 149 86
140 69 186 98 280 175 71 59 227 135 324 158 68 16 183 7 256 -21 32 -12 75
-17 150 -17 151 1 214 27 472 200 256 171 299 205 390 301 40 44 100 95 134
116 89 52 175 149 225 252 23 47 53 99 67 115 l25 30 -7 400 -8 399 61 0 61 0
0 -404 c0 -347 2 -405 15 -410 8 -3 130 -87 271 -187 340 -241 364 -255 621
-348 l82 -29 -10 25 c-16 44 -10 160 16 271 75 317 151 475 268 558 28 20 29
22 58 259 16 132 31 254 34 272 5 30 3 34 -37 54 -79 39 -128 101 -143 179 -4
22 5 101 24 209 34 193 43 212 113 233 26 8 40 19 44 33 6 25 30 39 89 54 l41
11 28 117 c94 398 223 650 411 802 117 95 336 222 528 307 284 125 650 205
1062 233 176 12 578 12 745 1z m-7387 -6300 c81 -25 171 -90 232 -167 46 -59
135 -220 135 -245 0 -7 -24 -38 -54 -67 l-54 -53 -42 80 c-138 259 -296 333
-468 219 -57 -37 -129 -150 -161 -251 -101 -316 -47 -714 119 -890 64 -68 123
-97 199 -98 115 -2 199 72 306 268 l47 86 35 -34 c19 -18 44 -45 55 -61 l19
-27 -48 -91 c-55 -105 -136 -206 -208 -261 -75 -57 -145 -81 -240 -81 -348 0
-602 318 -622 779 -18 407 125 730 381 862 108 55 254 67 369 32z m2500 0 c81
-25 171 -90 232 -167 46 -59 135 -220 135 -245 0 -7 -24 -38 -54 -67 l-54 -53
-42 80 c-138 259 -296 333 -468 219 -57 -37 -129 -150 -161 -251 -101 -316
-47 -714 119 -890 64 -68 123 -97 199 -98 115 -2 199 72 306 268 l47 86 35
-34 c19 -18 44 -45 55 -61 l19 -27 -48 -91 c-55 -105 -136 -206 -208 -261 -75
-57 -145 -81 -240 -81 -348 0 -602 318 -622 779 -18 407 125 730 381 862 108
55 254 67 369 32z m8790 5 c137 -36 242 -155 299 -340 27 -90 29 -86 -63 -83
l-81 3 -24 77 c-45 141 -126 213 -231 205 -104 -7 -162 -85 -163 -215 0 -130
55 -208 258 -364 157 -121 231 -198 277 -290 33 -69 38 -88 42 -170 11 -215
-74 -381 -235 -456 -52 -25 -68 -27 -177 -27 -112 0 -124 2 -175 28 -65 34
-110 75 -152 140 -32 49 -71 162 -82 235 l-6 43 92 -3 92 -3 11 -53 c19 -84
64 -162 113 -197 37 -26 53 -30 105 -30 72 0 111 19 147 73 21 29 26 50 29
119 3 75 0 89 -27 146 -40 87 -73 121 -243 253 -156 120 -209 178 -253 274
-77 169 -43 398 78 527 51 56 117 92 196 109 75 17 106 16 173 -1z m4360 -5
c81 -25 171 -90 232 -167 46 -59 135 -220 135 -245 0 -7 -24 -38 -54 -67 l-54
-53 -42 80 c-138 259 -296 333 -468 219 -57 -37 -129 -150 -161 -251 -101
-316 -47 -714 119 -890 64 -68 123 -97 199 -98 115 -2 199 72 306 268 l47 86
35 -34 c19 -18 44 -45 55 -61 l19 -27 -48 -91 c-55 -105 -136 -206 -208 -261
-75 -57 -145 -81 -240 -81 -348 0 -602 318 -622 779 -18 407 125 730 381 862
108 55 254 67 369 32z m-12233 -745 l0 -725 270 0 270 0 0 -85 0 -85 -405 0
-405 0 0 810 0 810 135 0 135 0 0 -725z m1670 655 l0 -70 -265 0 -265 0 0
-265 0 -265 220 0 220 0 0 -70 0 -70 -220 0 -220 0 0 -320 0 -320 265 0 265 0
0 -85 0 -85 -400 0 -400 0 0 810 0 810 400 0 400 0 0 -70z m4370 41 c241 -84
397 -281 446 -565 22 -125 15 -369 -15 -478 -45 -172 -103 -279 -206 -383 -82
-82 -144 -118 -251 -145 -67 -17 -111 -20 -331 -20 l-253 0 0 811 0 811 273
-4 c251 -4 277 -6 337 -27z m1030 -781 l0 -810 -135 0 -135 0 0 810 0 810 135
0 135 0 0 -810z m2330 740 l0 -70 -185 0 -185 0 0 -740 0 -740 -130 0 -130 0
0 740 0 740 -185 0 -185 0 0 70 0 70 500 0 500 0 0 -70z m862 32 c113 -55 184
-158 209 -297 36 -208 -47 -402 -216 -500 -15 -9 4 -52 169 -392 102 -211 186
-385 186 -388 0 -3 -63 -4 -141 -3 l-140 3 -177 362 c-154 316 -180 363 -199
363 l-23 0 0 -365 0 -365 -135 0 -135 0 0 811 0 810 268 -3 268 -3 66 -33z
m3528 -32 l0 -70 -185 0 -185 0 0 -740 0 -740 -130 0 -130 0 0 740 0 740 -185
0 -185 0 0 70 0 70 500 0 500 0 0 -70z m-10274 -2935 c73 -159 133 -293 134
-297 0 -5 -32 -8 -71 -8 l-70 0 -36 80 -36 80 -114 0 -115 0 -36 -80 -37 -80
-49 0 c-34 0 -47 4 -43 13 3 6 67 142 143 300 181 380 152 380 330 -8z m579
267 c43 -21 74 -51 96 -94 l19 -38 -45 0 c-39 0 -46 4 -60 29 -25 49 -62 71
-117 71 -39 0 -54 -5 -73 -25 -58 -57 -21 -111 133 -191 96 -49 147 -95 158
-139 28 -111 -97 -206 -253 -192 -101 10 -170 57 -188 130 -7 27 -6 27 42 27
45 0 50 -2 60 -30 40 -105 236 -83 209 24 -9 36 -51 71 -139 117 -45 23 -93
51 -107 61 -86 67 -79 180 15 238 62 38 185 45 250 12z m-1115 -17 l0 -25
-145 0 -145 0 0 -95 0 -95 120 0 120 0 0 -25 0 -25 -120 0 -120 0 0 -115 0
-115 145 0 145 0 0 -30 0 -30 -220 0 -220 0 0 290 0 290 220 0 220 0 0 -25z
m1890 0 l0 -25 -100 0 -100 0 0 -265 0 -265 -75 0 -75 0 0 265 0 265 -100 0
-100 0 0 25 0 25 275 0 275 0 0 -25z m-1830 -830 c27 -14 60 -51 60 -67 0 -5
-11 -8 -25 -8 -14 0 -25 5 -25 10 0 20 -41 50 -69 50 -38 0 -65 -34 -50 -62 5
-10 33 -31 61 -46 83 -45 108 -69 108 -107 0 -52 -46 -85 -116 -85 -65 0 -105
18 -122 55 -16 35 -16 35 18 35 17 0 30 -5 30 -12 0 -38 79 -65 108 -36 31 31
1 68 -97 120 -55 30 -71 61 -55 107 18 52 114 77 174 46z m-250 -5 c0 -6 -33
-10 -80 -10 l-80 0 0 -55 0 -55 65 0 c51 0 65 -3 65 -15 0 -12 -14 -15 -65
-15 l-65 0 0 -65 0 -65 80 0 c64 0 80 -3 80 -15 0 -12 -20 -15 -120 -15 l-120
0 0 160 0 160 120 0 c73 0 120 -4 120 -10z m680 0 c0 -5 -25 -10 -55 -10 l-55
0 0 -150 0 -150 -40 0 -40 0 0 150 0 150 -55 0 c-30 0 -55 5 -55 10 0 6 57 10
150 10 93 0 150 -4 150 -10z m465 -15 c27 -26 33 -71 14 -108 -6 -12 -36 -48
-67 -79 l-56 -58 77 0 77 0 -12 -25 c-11 -24 -14 -25 -120 -25 -59 0 -108 4
-108 8 0 4 16 24 36 43 111 105 142 180 89 215 -23 15 -27 15 -51 0 -14 -10
-28 -24 -31 -32 -3 -8 -13 -14 -24 -14 -16 0 -17 4 -7 30 16 47 53 70 110 70
39 0 54 -5 73 -25z m280 3 c83 -65 71 -249 -20 -292 -67 -32 -132 1 -161 81
-26 74 -12 154 37 203 39 38 101 42 144 8z m310 -3 c27 -26 33 -71 14 -108 -6
-12 -36 -48 -67 -79 l-56 -58 77 0 77 0 -12 -25 c-11 -24 -14 -25 -120 -25
-59 0 -108 4 -108 8 0 4 16 24 36 43 111 105 142 180 89 215 -23 15 -27 15
-51 0 -14 -10 -28 -24 -31 -32 -3 -8 -13 -14 -24 -14 -16 0 -17 4 -7 30 16 47
53 70 110 70 39 0 54 -5 73 -25z m280 3 c83 -65 71 -249 -20 -292 -67 -32
-132 1 -161 81 -26 74 -12 154 37 203 39 38 101 42 144 8z m-1280 -268 c0 -20
-6 -26 -27 -28 -24 -3 -28 0 -28 21 0 30 9 39 35 35 14 -2 20 -10 20 -28z"/>
<path d="M11185 11024 c-347 -26 -611 -72 -853 -149 -255 -81 -597 -261 -755
-397 -73 -64 -167 -188 -211 -281 -47 -97 -121 -316 -157 -462 -34 -141 -35
-155 -10 -155 20 0 35 25 25 41 -3 6 -1 15 4 22 6 7 12 26 15 43 3 17 10 41
16 52 6 11 8 28 5 36 -3 9 -2 16 3 16 6 0 15 11 21 25 9 19 9 25 0 25 -7 0 3
14 20 31 37 36 41 54 12 46 -31 -8 -24 9 9 23 16 6 40 23 53 37 l23 25 -25 -7
c-14 -4 -31 -10 -37 -12 -7 -3 -13 -1 -13 5 0 5 26 21 58 34 31 14 66 35 76
47 l19 21 -49 -15 c-112 -34 -95 -11 31 40 85 35 136 64 90 52 -11 -3 -48 -13
-82 -22 -34 -10 -67 -15 -74 -13 -14 5 150 79 219 99 23 7 40 14 38 16 -2 3
-53 -9 -113 -26 -60 -17 -115 -31 -123 -31 -20 1 47 36 155 82 50 20 85 38 79
38 -11 0 -125 -33 -160 -47 -8 -3 -14 -1 -14 4 0 10 33 28 150 79 89 40 83 43
-25 9 -70 -21 -98 -25 -84 -10 3 2 47 25 99 49 52 25 92 46 89 46 -4 0 -37 -9
-74 -21 -112 -34 -94 -16 49 51 75 35 134 65 132 67 -2 2 -29 -7 -60 -21 -56
-25 -71 -25 -38 1 48 38 245 149 354 199 286 131 568 202 988 246 156 16 788
16 955 0 568 -56 916 -171 1343 -442 41 -27 22 -29 -34 -4 -31 14 -58 23 -60
21 -2 -2 57 -32 131 -67 75 -35 133 -65 130 -68 -4 -4 -40 5 -144 35 -9 2 25
-16 75 -40 50 -24 95 -50 99 -57 5 -9 2 -10 -11 -6 -128 39 -157 47 -162 42
-3 -3 0 -6 7 -6 22 0 211 -92 211 -103 0 -5 -6 -7 -14 -4 -35 14 -149 47 -160
47 -6 0 30 -18 79 -38 109 -46 175 -81 155 -82 -8 0 -62 14 -120 30 -139 40
-146 37 -25 -9 184 -70 223 -103 73 -61 -80 22 -102 19 -42 -6 160 -65 218
-105 101 -70 l-49 15 19 -21 c10 -11 44 -32 76 -46 78 -34 77 -54 -2 -24 -10
4 -9 -2 5 -20 10 -14 34 -31 52 -38 34 -12 46 -36 12 -25 -30 10 -25 -13 11
-46 17 -16 26 -29 20 -29 -17 0 -13 -18 9 -40 12 -12 18 -25 15 -30 -3 -4 0
-21 7 -37 6 -15 11 -31 10 -35 -1 -4 4 -20 10 -35 7 -15 12 -36 12 -47 1 -10
11 -22 24 -27 18 -7 22 -5 22 11 0 36 -68 285 -114 413 -123 350 -249 486
-636 690 -315 166 -609 252 -1040 303 -128 15 -790 28 -925 18z"/>
<path d="M9840 10550 c-8 -5 -10 -10 -5 -10 6 0 17 5 25 10 8 5 11 10 5 10 -5
0 -17 -5 -25 -10z"/>
<path d="M11225 10460 c-296 -10 -417 -17 -590 -36 -578 -63 -929 -183 -1154
-393 -24 -23 -41 -44 -38 -48 4 -3 28 14 55 39 27 25 58 51 70 57 12 6 22 18
22 25 0 20 185 109 310 150 167 54 394 99 640 127 58 6 113 15 122 20 15 8 18
5 16 -13 0 -13 2 -40 7 -60 4 -21 3 -38 -1 -38 -5 0 -74 -5 -154 -10 -385 -27
-677 -87 -854 -177 -27 -14 -57 -26 -67 -28 -31 -6 -137 -93 -180 -147 -48
-62 -102 -173 -123 -254 -23 -88 -24 -85 39 -82 l56 3 32 80 c18 44 52 108 75
142 23 34 42 66 42 71 0 5 19 26 43 45 26 21 50 53 60 77 l16 42 -26 -7 c-24
-6 -25 -5 -13 10 30 36 194 100 344 135 101 23 319 60 356 60 24 0 24 0 3 -15
-16 -11 -43 -79 -43 -109 0 -3 20 -6 44 -6 l44 0 13 53 c7 28 12 57 12 63 0
12 263 31 274 20 4 -3 -11 -6 -33 -6 -21 0 -56 -3 -76 -6 -37 -6 -38 -8 -38
-47 l0 -39 95 4 c86 4 95 2 95 -14 0 -15 9 -18 63 -18 39 -1 69 -6 81 -15 11
-8 23 -15 28 -15 4 0 8 45 8 100 0 95 1 100 21 100 23 0 79 -30 79 -42 0 -4
-7 -8 -15 -8 -11 0 -15 -12 -15 -44 l0 -43 68 -6 c37 -4 93 -7 124 -7 45 0 60
-4 70 -19 10 -14 21 -18 42 -14 l28 6 -4 113 c-4 126 -8 120 64 92 27 -10 58
-61 58 -94 0 -29 -40 -104 -63 -116 -12 -6 -40 -12 -62 -13 -84 -4 -85 -4 -79
-20 5 -13 51 -15 324 -15 215 0 321 3 325 11 11 16 2 19 -62 23 -76 5 -96 16
-122 69 -25 51 -26 66 -7 111 15 36 72 66 126 66 35 0 42 -25 10 -35 -18 -6
-20 -15 -20 -100 0 -87 1 -93 22 -98 15 -4 26 0 35 13 12 17 26 20 99 20 61 0
84 -3 84 -13 0 -27 -34 -59 -98 -91 -96 -48 -155 -105 -194 -184 -111 -225 24
-625 286 -843 182 -153 417 -262 668 -310 151 -29 398 -24 528 11 96 26 218
79 303 134 31 20 57 33 57 29 0 -21 -67 -87 -135 -131 -240 -162 -643 -185
-1031 -61 -340 109 -618 334 -720 583 -15 36 -30 64 -32 61 -7 -6 38 -112 71
-170 165 -282 536 -495 961 -551 173 -23 392 -24 484 -1 272 66 452 213 551
452 17 40 31 80 31 88 0 9 -16 25 -35 37 -30 19 -33 23 -21 36 8 8 19 14 25
14 22 0 246 -72 252 -81 8 -14 71 -30 91 -23 12 3 18 15 18 35 0 38 -35 53
-101 44 -26 -4 -49 -2 -53 3 -9 15 -38 282 -32 298 6 16 42 19 51 4 3 -5 23
-10 45 -10 33 0 37 3 33 19 -4 15 -20 22 -69 30 -36 7 -69 9 -75 5 -15 -9
-209 7 -209 17 0 5 25 9 56 9 l56 0 -7 38 c-53 285 -263 482 -613 573 -114 30
-339 66 -492 79 l-135 12 0 40 0 39 50 -6 c205 -27 422 -72 580 -121 104 -32
288 -122 351 -171 60 -48 74 -56 74 -46 0 4 -26 29 -58 54 -189 153 -483 257
-907 319 -170 25 -463 51 -545 49 -36 -1 -76 1 -90 4 -44 10 -537 14 -775 7z
m477 -130 c-38 -24 -52 -54 -52 -118 l0 -47 -70 72 c-38 40 -86 81 -107 92
l-38 20 150 1 150 0 -33 -20z m913 -260 c-4 -13 -1 -22 9 -26 9 -3 16 -11 16
-16 0 -7 -38 -8 -107 -3 -135 8 -261 -7 -326 -39 l-49 -24 7 25 c4 19 1 26
-14 30 -27 7 -18 20 27 39 62 26 110 32 280 33 159 1 163 0 157 -19z m225 -9
c0 -11 10 -27 22 -35 22 -16 21 -16 -21 -16 -72 0 -43 -7 54 -13 50 -3 82 -3
72 0 -9 2 -15 9 -12 13 3 5 -4 19 -15 30 -12 12 -20 23 -18 25 2 2 24 1 50 -2
32 -4 45 -9 42 -18 -3 -7 5 -22 17 -34 l23 -21 -35 -1 c-23 -1 -12 -5 36 -14
194 -33 312 -82 383 -160 87 -94 122 -202 122 -373 0 -206 -42 -300 -160 -359
-88 -44 -179 -57 -365 -50 -364 14 -614 86 -789 227 -134 109 -202 223 -204
347 -4 178 60 305 185 364 45 22 64 24 303 29 140 3 247 8 238 12 -10 4 -18
16 -18 27 0 11 -8 25 -17 30 -14 8 -3 10 45 11 55 0 62 -2 62 -19z m-1048
-232 c2 -6 -1 -41 -7 -77 -10 -61 -13 -67 -35 -67 -16 0 -26 7 -28 19 -2 11 0
16 6 12 11 -7 17 7 28 68 5 28 4 37 -5 32 -12 -8 -15 6 -4 17 10 11 41 8 45
-4z m2023 -322 c38 -32 45 -101 15 -139 -32 -42 -83 -39 -110 5 -42 69 -13
149 57 156 7 0 24 -9 38 -22z m-1973 -128 c45 -88 48 -109 14 -109 -14 0 -28
5 -31 10 -3 6 -2 10 4 10 5 0 -5 31 -22 69 -19 43 -35 65 -39 58 -5 -8 -8 -4
-8 10 0 21 15 34 34 29 6 -1 27 -36 48 -77z m571 -239 c113 -51 316 -95 530
-115 39 -4 65 -11 61 -16 -3 -6 0 -16 6 -24 11 -13 6 -15 -27 -15 -97 0 -346
39 -452 72 -94 28 -182 69 -178 82 3 6 0 19 -5 29 -11 22 -12 22 65 -13z
m-304 -58 c25 -16 67 -41 94 -56 51 -29 55 -37 31 -60 -19 -20 -48 -21 -41 -3
5 14 -115 92 -142 92 -20 0 -25 23 -11 40 16 20 16 20 69 -13z m1255 -44 c-4
-6 0 -17 10 -23 14 -11 10 -14 -30 -24 -26 -7 -75 -15 -109 -18 -61 -6 -62 -5
-67 21 -5 24 -3 26 31 27 20 0 61 7 91 14 74 17 82 17 74 3z m230 -34 c9 -23
7 -36 -4 -29 -13 8 -80 -43 -77 -58 1 -7 -9 -12 -23 -12 -44 0 -35 30 22 74
58 45 73 49 82 25z m-1066 -82 c2 -7 -7 -12 -22 -12 -29 0 -66 -31 -66 -56 0
-8 5 -25 11 -36 10 -19 9 -20 -17 -14 -16 4 -54 19 -84 33 -46 22 -51 27 -32
31 25 4 25 16 6 98 -5 21 -4 21 97 -6 57 -15 105 -32 107 -38z m106 -52 c85
-17 110 -35 90 -67 -12 -20 -54 -30 -54 -14 0 6 5 11 12 11 30 0 -12 18 -67
29 -33 6 -71 14 -85 17 -20 5 -22 3 -10 -5 13 -9 12 -11 -6 -11 -33 0 -46 22
-28 48 12 17 21 21 42 15 15 -4 63 -14 106 -23z m604 -52 c-3 -30 -28 -54 -28
-26 0 12 -15 12 -87 3 -54 -6 -88 -15 -91 -23 -6 -20 -32 6 -32 34 0 20 6 23
58 29 31 3 64 8 72 9 8 2 37 4 63 5 l48 1 -3 -32z"/>
<path d="M12206 9896 c-58 -22 -88 -47 -116 -97 -21 -38 -24 -57 -25 -144 0
-96 2 -104 37 -175 34 -69 139 -202 151 -190 4 4 -18 111 -81 395 -14 63 -21
80 -35 79 -21 -2 -21 5 0 36 45 66 88 78 273 79 167 1 230 -5 230 -22 0 -6 25
-74 55 -151 30 -78 59 -154 65 -169 l10 -28 29 21 c17 11 33 30 36 41 4 11 9
18 12 15 3 -3 -4 -21 -16 -41 -17 -30 -18 -37 -6 -41 8 -4 15 -12 15 -20 0
-10 -8 -12 -30 -8 -65 13 -144 -47 -252 -191 l-60 -80 58 65 c32 36 80 86 106
112 49 47 112 78 128 62 5 -5 35 -81 66 -169 31 -88 60 -172 66 -187 8 -24 15
-27 79 -33 39 -4 72 -5 75 -2 3 2 0 15 -5 28 -46 110 -142 372 -137 376 3 3
20 9 38 13 28 7 23 8 -32 10 -36 1 -57 4 -47 7 20 5 20 3 3 44 -8 22 -12 68
-11 131 1 54 -1 95 -6 92 -5 -3 -9 -31 -10 -62 0 -59 -17 -123 -18 -73 -1 13
-21 70 -46 127 -25 56 -45 108 -45 113 0 13 23 14 109 5 33 -4 61 -11 61 -15
0 -5 -7 -9 -15 -9 -8 0 -15 -2 -15 -4 0 -3 32 -65 72 -138 76 -140 298 -602
298 -618 0 -16 11 -12 52 16 26 18 49 48 71 93 29 60 32 75 36 178 9 291 -80
439 -289 482 -240 49 -847 80 -934 47z m922 -77 c72 -19 138 -47 130 -54 -2
-3 -25 2 -51 10 -26 8 -69 18 -95 23 l-47 8 46 -115 c46 -115 104 -299 97
-306 -3 -3 -223 422 -237 458 -4 12 60 2 157 -24z"/>
<path d="M13756 9488 c-41 -58 14 -144 62 -96 21 21 15 85 -10 102 -29 21 -34
20 -52 -6z"/>
<path d="M11030 10098 c0 -29 7 -37 56 -68 69 -43 137 -116 165 -179 30 -64
38 -238 15 -334 -57 -245 -276 -448 -605 -562 -104 -35 -318 -84 -382 -86 -19
-1 -26 -3 -16 -6 14 -4 17 -16 17 -64 0 -47 4 -61 17 -66 15 -6 15 -7 -3 -14
-29 -12 -274 -11 -274 1 0 6 9 10 20 10 31 0 60 36 60 74 0 19 -4 38 -10 41
-5 3 -62 10 -126 16 -129 11 -144 7 -144 -42 0 -32 38 -63 92 -74 15 -4 28
-10 28 -15 0 -11 -102 13 -181 43 -67 26 -151 72 -207 114 -42 32 -35 41 9 14
40 -24 45 -25 52 -8 3 8 -4 13 -22 12 -14 0 -25 5 -24 12 1 6 -13 23 -33 38
-27 21 -38 24 -49 15 -11 -9 -20 -3 -44 31 -32 44 -38 59 -21 59 5 0 18 17 27
37 18 37 18 38 -5 84 l-24 47 -44 -19 c-24 -11 -49 -17 -54 -14 -16 10 -11
-31 5 -45 8 -7 15 -17 15 -22 0 -6 18 -47 39 -93 80 -170 201 -257 443 -316
81 -20 119 -23 293 -23 203 -1 255 5 407 46 72 19 79 23 86 51 l8 30 14 -44
c7 -24 15 -37 17 -29 2 8 51 37 109 64 331 154 534 379 611 675 20 80 24 114
21 206 -3 94 -8 119 -30 167 -35 77 -112 152 -193 190 -36 16 -74 41 -84 54
-28 35 -51 31 -51 -8z m308 -277 c3 -9 0 -11 -7 -6 -10 5 -11 -5 -5 -41 8 -58
12 -67 26 -58 6 4 8 -1 6 -12 -2 -12 -12 -19 -28 -19 -22 0 -25 6 -35 67 -6
36 -9 71 -7 78 5 15 44 9 50 -9z m-34 -367 c9 -3 16 -16 16 -28 0 -15 -3 -17
-8 -8 -9 14 -69 -113 -64 -135 2 -8 -7 -13 -23 -13 -35 0 -33 23 11 106 50 96
43 88 68 78z m-264 -359 c14 -17 9 -40 -11 -40 -27 0 -147 -78 -142 -92 7 -18
-22 -17 -41 3 -24 23 -20 31 32 60 26 15 67 40 92 55 52 33 54 34 70 14z
m-442 -238 c-2 -15 -11 -23 -28 -25 -20 -2 -22 -1 -10 8 16 13 20 13 -95 -11
-55 -11 -96 -29 -67 -29 7 0 12 -5 12 -11 0 -16 -42 -6 -54 14 -21 33 5 50
110 72 108 23 137 19 132 -18z m-558 -26 c38 -7 50 -32 30 -56 -15 -19 -30
-19 -30 -2 0 10 -25 17 -85 23 -69 8 -85 7 -85 -4 0 -29 -25 -4 -28 28 l-3 32
83 -6 c46 -4 99 -11 118 -15z"/>
<path d="M10410 10090 c-306 -15 -537 -49 -622 -89 -24 -12 -34 -18 -23 -15
107 34 236 58 420 78 43 5 48 4 32 -8 -9 -7 -15 -20 -12 -28 4 -11 -15 -17
-96 -27 -124 -15 -272 -52 -345 -85 -73 -33 -69 -40 6 -9 170 68 348 93 715
100 282 5 292 4 350 -17 80 -30 162 -112 190 -190 28 -79 27 -236 -3 -302 -82
-184 -274 -335 -505 -398 -56 -15 -225 -50 -244 -50 -12 0 1 -32 14 -37 28
-11 -30 -23 -146 -30 l-104 -6 24 24 24 24 -140 6 c-195 8 -291 39 -354 116
-41 50 -59 106 -72 234 -11 100 -14 109 -33 109 -12 0 -28 5 -36 10 -11 7 -4
10 26 10 l41 0 7 48 c10 79 44 164 86 219 22 29 31 48 21 41 -18 -11 -73 -94
-87 -130 -10 -27 -24 -21 -24 10 0 94 47 166 150 232 27 18 50 34 50 36 0 9
-47 -20 -92 -57 -26 -22 -51 -39 -56 -39 -18 0 -72 -78 -106 -152 -57 -127
-75 -259 -51 -392 48 -274 202 -375 570 -376 159 0 373 22 497 51 225 53 385
142 521 289 99 107 148 216 162 357 9 83 -15 219 -46 270 -30 49 -104 109
-178 146 -66 33 -66 33 -221 34 -85 0 -225 -3 -310 -7z m30 -20 c0 -5 -5 -10
-11 -10 -6 0 -8 -9 -4 -20 6 -19 2 -20 -77 -20 -52 0 -78 4 -69 9 8 5 11 16 8
25 -5 13 6 16 66 19 40 1 75 4 80 5 4 1 7 -2 7 -8z m-936 -749 c29 -141 82
-219 182 -261 48 -21 140 -40 193 -40 29 0 38 -5 48 -26 l12 -25 -72 6 c-236
22 -361 105 -404 269 -11 43 -11 51 2 59 10 5 15 24 15 59 0 28 2 49 4 47 2
-2 11 -42 20 -88z"/>
<path d="M11242 10043 c2 -12 12 -18 28 -18 16 0 26 6 28 18 3 13 -3 17 -28
17 -25 0 -31 -4 -28 -17z"/>
<path d="M11782 10043 c2 -12 12 -18 28 -18 16 0 26 6 28 18 3 13 -3 17 -28
17 -25 0 -31 -4 -28 -17z"/>
<path d="M10324 9900 c-124 -10 -322 -36 -389 -52 -188 -43 -263 -144 -283
-382 -11 -121 1 -207 39 -283 16 -35 34 -63 39 -63 4 0 -4 33 -18 73 -23 63
-26 87 -26 197 0 168 29 270 98 348 40 45 123 72 289 96 l93 12 -43 -170 c-43
-171 -116 -502 -129 -585 l-7 -44 62 6 c35 3 65 8 68 10 3 3 24 106 48 229 24
123 59 297 79 387 26 121 33 167 24 172 -7 4 3 10 23 13 60 9 352 14 409 7 51
-6 46 -7 -60 -14 -63 -4 -142 -10 -176 -13 l-61 -6 -27 -187 c-45 -297 -74
-571 -62 -571 6 0 58 11 116 24 272 62 468 201 558 394 23 49 27 70 27 153 0
89 -2 99 -30 145 -19 30 -49 60 -79 79 l-49 30 -216 1 c-119 1 -261 -2 -317
-6z"/>
<path d="M9679 9863 c-13 -16 -12 -17 4 -4 9 7 17 15 17 17 0 8 -8 3 -21 -13z"/>
<path d="M11443 9720 c0 -25 2 -35 4 -22 2 12 2 32 0 45 -2 12 -4 2 -4 -23z"/>
<path d="M11447 9529 c-17 -211 -118 -413 -285 -570 -219 -205 -560 -324
-1002 -348 l-135 -8 130 -1 c366 -4 729 115 981 321 41 34 84 67 94 73 11 6
37 33 58 60 106 132 162 280 170 447 3 59 3 107 0 107 -3 0 -8 -37 -11 -81z"/>
<path d="M9245 9573 c-117 -6 -193 -23 -198 -44 -4 -16 0 -19 28 -19 20 0 35
6 39 15 7 20 65 20 72 0 10 -24 -25 -298 -39 -313 -10 -9 -20 -10 -45 -1 -63
22 -133 -11 -116 -55 11 -29 43 -27 166 13 68 21 155 47 194 56 l71 16 -14 62
c-10 41 -14 99 -11 170 l3 107 -45 -2 c-25 -1 -72 -3 -105 -5z m106 -72 c35
-35 38 -81 9 -128 -27 -44 -78 -47 -110 -5 -30 38 -23 107 15 139 34 30 51 29
86 -6z"/>
<path d="M9272 9494 c-25 -17 -31 -81 -10 -102 48 -48 103 38 62 96 -18 26
-23 27 -52 6z"/>
<path d="M9010 9482 c-94 -29 -90 -22 -121 -193 -15 -85 -28 -169 -29 -188 -1
-73 60 -149 144 -181 37 -14 47 -4 15 17 -51 35 -108 103 -114 137 -14 74 46
135 156 156 29 6 54 12 57 14 5 6 32 193 32 229 0 25 -3 27 -42 26 -24 0 -68
-8 -98 -17z m100 -25 c0 -13 -5 -50 -10 -83 -6 -32 -13 -74 -16 -91 -4 -26 -9
-32 -27 -31 -12 0 -34 -3 -49 -7 -25 -6 -28 -4 -29 16 -1 21 -2 20 -8 -5 -3
-16 -12 -31 -19 -34 -11 -3 -12 7 -8 44 l5 49 -12 -54 c-14 -64 -40 -84 -30
-24 26 160 39 208 56 207 9 -1 17 2 17 7 0 19 19 8 23 -13 4 -20 4 -20 6 4 1
27 13 34 74 37 22 1 27 -3 27 -22z"/>
<path d="M8962 9405 c0 -16 2 -22 5 -12 2 9 2 23 0 30 -3 6 -5 -1 -5 -18z"/>
<path d="M8992 9380 c0 -14 2 -19 5 -12 2 6 2 18 0 25 -3 6 -5 1 -5 -13z"/>
<path d="M8952 9345 c0 -16 2 -22 5 -12 2 9 2 23 0 30 -3 6 -5 -1 -5 -18z"/>
<path d="M8982 9320 c0 -14 2 -19 5 -12 2 6 2 18 0 25 -3 6 -5 1 -5 -13z"/>
<path d="M13958 9493 c-21 -5 -21 -5 -8 -114 17 -130 15 -127 58 -134 192 -32
240 -169 100 -290 -40 -34 -40 -35 -9 -18 50 27 100 83 113 125 15 51 -37 363
-65 389 -10 9 -47 24 -82 33 -65 16 -76 17 -107 9z m81 -19 c25 -5 31 -12 32
-33 2 -23 2 -24 6 -3 4 21 23 32 23 12 0 -5 6 -7 14 -4 20 8 23 0 40 -106 9
-52 19 -106 22 -118 3 -17 1 -23 -8 -20 -7 3 -21 42 -30 89 -15 75 -16 44 -1
-40 4 -26 3 -33 -8 -29 -8 3 -17 18 -20 34 -6 25 -7 26 -8 5 -1 -20 -4 -22
-28 -16 -16 4 -38 7 -50 7 -24 -2 -23 -6 -43 128 -16 108 -16 109 59 94z"/>
<path d="M14112 9405 c0 -16 2 -22 5 -12 2 9 2 23 0 30 -3 6 -5 -1 -5 -18z"/>
<path d="M14082 9380 c0 -14 2 -19 5 -12 2 6 2 18 0 25 -3 6 -5 1 -5 -13z"/>
<path d="M14092 9320 c0 -14 2 -19 5 -12 2 6 2 18 0 25 -3 6 -5 1 -5 -13z"/>
<path d="M9167 9153 c-16 -3 -31 -11 -34 -19 -3 -8 -11 -14 -18 -14 -8 0 -17
-28 -24 -82 -7 -46 -19 -105 -27 -133 -15 -52 -87 -575 -80 -582 2 -3 28 3 58
12 37 12 108 19 238 24 180 6 183 6 125 18 -33 7 -100 17 -149 23 -49 5 -91
11 -93 13 -8 8 149 27 224 27 135 0 67 20 -93 27 l-149 7 65 12 c36 7 108 16
160 20 109 8 98 22 -20 24 -41 1 -97 5 -125 8 l-50 7 80 12 c44 7 109 16 145
20 55 6 60 8 35 14 -16 4 -86 8 -155 9 l-125 3 75 13 c41 7 97 16 123 19 31 4
47 11 44 18 -2 8 -42 14 -113 17 -112 5 -109 12 14 26 34 3 62 9 62 13 -1 23
-23 30 -95 33 l-80 3 71 13 c65 12 71 15 66 34 -5 19 -11 20 -85 16 -82 -5
-78 5 7 17 51 8 59 15 49 40 -5 15 -16 17 -72 12 l-66 -5 63 16 c54 13 62 19
60 36 -3 18 -10 21 -58 20 l-55 -1 50 15 c60 17 55 13 48 40 -4 15 -13 22 -32
23 l-26 1 28 10 c19 7 26 15 23 25 -3 8 -6 19 -6 24 0 5 -10 9 -22 10 l-23 0
23 9 c15 6 22 18 22 35 0 26 -11 29 -83 18z m10 -419 c-3 -3 -12 -4 -19 -1 -8
3 -5 6 6 6 11 1 17 -2 13 -5z m-10 -200 c-3 -3 -12 -4 -19 -1 -8 3 -5 6 6 6
11 1 17 -2 13 -5z"/>
<path d="M13842 9134 c2 -10 26 -25 61 -37 56 -20 79 -42 35 -33 -76 16 -96
16 -101 2 -4 -11 11 -20 58 -36 68 -23 100 -46 49 -37 -89 17 -111 18 -117 4
-4 -11 11 -19 58 -32 35 -9 72 -23 82 -31 16 -11 11 -12 -37 -6 -80 9 -113 8
-117 -4 -2 -6 21 -16 53 -23 61 -14 129 -40 122 -47 -3 -2 -42 1 -88 7 -83 10
-116 7 -106 -10 3 -4 25 -11 48 -15 62 -10 148 -38 148 -49 0 -5 -6 -7 -14 -4
-32 12 -206 20 -206 9 0 -6 17 -14 38 -17 76 -13 192 -48 192 -57 0 -6 -7 -8
-15 -4 -26 10 -222 19 -242 11 -12 -5 17 -13 89 -26 58 -10 121 -25 140 -32
30 -13 19 -14 -122 -11 -102 3 -148 1 -135 -5 11 -5 36 -10 55 -10 45 -2 221
-38 231 -48 4 -4 -63 -7 -149 -6 -129 1 -145 0 -92 -7 99 -14 223 -40 240 -51
10 -7 -12 -9 -70 -6 -47 3 -110 2 -140 -2 l-55 -7 70 -7 c85 -10 205 -36 205
-45 0 -4 -62 -6 -137 -5 -110 1 -127 -1 -83 -8 188 -29 300 -65 167 -52 -35 3
-100 2 -143 -3 l-79 -8 127 -7 c76 -4 134 -11 142 -19 18 -14 89 -51 92 -47 3
3 -56 456 -86 660 -11 76 -20 143 -20 149 0 5 -6 8 -14 5 -8 -3 -35 1 -62 9
-61 18 -76 18 -72 -2z"/>
<path d="M9290 9119 c0 -8 7 -48 15 -89 73 -380 303 -575 724 -615 64 -6 73
-5 68 8 -5 13 -2 13 21 1 17 -9 59 -14 117 -14 115 0 309 18 313 29 2 5 11 7
21 4 38 -10 226 50 346 110 133 66 183 102 194 139 7 25 9 28 10 11 1 -13 3
-23 5 -23 3 0 42 23 88 52 46 28 115 65 153 81 39 16 77 32 85 36 15 8 154 4
177 -4 7 -2 15 0 19 6 4 7 12 5 22 -4 10 -8 46 -29 82 -47 36 -18 97 -54 135
-79 89 -58 91 -59 203 -127 97 -58 131 -64 133 -21 1 16 3 14 8 -9 11 -42 21
-56 36 -50 8 3 19 -2 26 -10 6 -8 17 -13 23 -11 6 3 18 -1 26 -8 19 -16 142
-45 200 -48 25 -1 48 -6 51 -10 3 -4 75 -10 159 -14 141 -6 154 -5 166 12 14
18 14 18 14 0 0 -17 7 -17 97 -11 265 19 477 111 594 259 78 97 141 258 164
412 10 70 -1 53 -24 -37 -63 -246 -230 -435 -457 -517 -139 -50 -354 -79 -354
-48 0 8 -9 22 -21 33 -20 18 -20 18 -15 -6 4 -14 3 -30 -1 -36 -5 -6 -46 -13
-93 -16 l-86 -4 3 35 c2 30 1 32 -5 11 -8 -22 -13 -25 -56 -23 -75 2 -96 10
-96 36 -1 19 -3 17 -14 -9 -17 -38 -36 -52 -36 -27 0 13 -17 25 -59 41 -32 12
-67 22 -77 22 -38 1 -101 38 -123 73 -29 47 -55 55 -92 28 -33 -25 -43 -27
-35 -6 3 8 1 15 -4 15 -24 0 -163 87 -175 109 l-12 24 -7 -28 -7 -28 -17 27
c-9 15 -42 41 -72 59 -51 31 -55 36 -61 78 -5 34 -6 37 -7 13 -1 -16 -8 -39
-16 -49 -13 -18 -14 -18 -20 2 -4 12 -24 28 -46 37 -38 15 -40 18 -41 63 l-1
48 -8 -38 c-4 -20 -9 -39 -11 -40 -2 -2 -31 -1 -64 2 -52 5 -60 9 -67 31 -4
15 -5 2 -2 -30 l5 -55 -25 24 c-21 20 -26 34 -26 73 0 27 7 65 15 85 8 20 13
38 11 40 -6 7 -55 -99 -62 -134 -4 -18 -12 -33 -18 -33 -7 0 -41 -27 -76 -60
l-63 -61 6 36 6 37 -28 -39 c-16 -21 -47 -48 -69 -60 l-41 -23 -12 38 -13 37
-8 -44 c-9 -54 -24 -71 -99 -110 -53 -29 -59 -35 -59 -64 0 -48 -19 -13 -21
38 l-1 40 -10 -37 c-9 -36 -13 -38 -101 -67 -51 -17 -137 -42 -192 -55 -55
-13 -118 -34 -140 -45 -21 -12 -56 -21 -77 -21 -27 0 -38 -4 -38 -15 0 -17
-16 -20 -25 -5 -3 6 -46 10 -95 10 -75 0 -88 -2 -84 -15 10 -26 -14 -16 -49
20 -28 29 -36 33 -41 20 -5 -14 -16 -15 -63 -10 -153 17 -330 84 -436 164
-113 84 -217 249 -258 408 -19 75 -29 100 -29 72z"/>
<path d="M10228 9043 c7 -3 16 -2 19 1 4 3 -2 6 -13 5 -11 0 -14 -3 -6 -6z"/>
<path d="M9480 9015 c-6 -8 -10 -19 -8 -24 1 -6 8 1 15 14 13 28 11 31 -7 10z"/>
<path d="M9918 8623 c7 -3 16 -2 19 1 4 3 -2 6 -13 5 -11 0 -14 -3 -6 -6z"/>
<path d="M9978 8613 c6 -2 18 -2 25 0 6 3 1 5 -13 5 -14 0 -19 -2 -12 -5z"/>
<path d="M9012 8301 c-134 -63 -236 -248 -307 -555 -41 -179 -26 -260 59 -300
54 -26 68 -21 37 13 -37 40 -54 101 -46 165 17 130 64 281 130 421 58 122 96
172 153 197 41 19 59 20 172 15 69 -3 256 -24 416 -46 636 -88 956 -106 1914
-106 939 0 1206 14 1840 97 367 47 566 55 635 25 52 -23 79 -50 121 -118 81
-133 130 -292 141 -450 8 -126 -12 -175 -84 -214 l-48 -26 53 5 c76 7 132 41
160 96 27 55 28 103 2 229 -57 280 -162 471 -303 548 -37 20 -51 22 -186 19
-115 -3 -196 -12 -381 -44 -272 -47 -516 -78 -715 -92 -190 -13 -2289 -13
-2470 0 -229 17 -395 38 -680 86 -336 57 -542 68 -613 35z"/>
<path d="M9118 8174 c-78 -24 -119 -90 -169 -271 -11 -40 -19 -86 -17 -101 2
-21 8 -11 26 47 51 160 107 246 187 282 52 24 79 24 280 -5 94 -13 188 -24
210 -24 22 0 146 -12 275 -26 610 -66 940 -79 1775 -73 800 6 1150 24 1663 88
89 11 165 18 170 15 4 -2 74 6 156 19 138 22 153 22 188 8 75 -30 172 -171
228 -333 25 -69 45 -103 36 -60 -3 14 -10 56 -16 94 -35 218 -136 346 -273
346 -23 0 -138 -13 -255 -30 -555 -77 -1165 -110 -2052 -110 -892 0 -1502 34
-2070 115 -274 39 -277 39 -342 19z"/>
<path d="M9585 8034 c-46 -24 -83 -63 -122 -129 -19 -33 -45 -71 -56 -83 l-22
-24 23 -19 c33 -26 86 -39 163 -39 57 0 72 4 125 36 147 89 215 108 362 103
49 -2 88 -1 86 2 -9 15 -114 33 -189 33 -95 0 -155 -18 -251 -76 -56 -34 -76
-41 -118 -40 -28 0 -61 4 -74 9 -22 9 -21 11 41 75 45 46 78 70 106 79 23 7
41 16 41 21 0 11 -77 10 -120 -2 l-35 -9 31 27 c17 15 39 32 50 39 29 18 -5
16 -41 -3z"/>
<path d="M13587 7959 c26 -51 63 -107 82 -126 l34 -33 -37 -15 c-46 -20 -105
-11 -173 25 -29 15 -49 22 -46 14 6 -16 45 -42 91 -60 l37 -14 -52 3 c-39 3
-83 19 -175 65 -142 70 -215 89 -303 77 l-60 -9 71 -7 c109 -10 171 -33 273
-98 52 -34 109 -64 128 -67 60 -11 178 1 214 22 37 22 78 82 62 92 -5 4 -39
48 -76 97 -37 50 -78 98 -92 109 -24 16 -22 10 22 -75z"/>
<path d="M10880 7965 c0 -18 73 -195 82 -195 11 0 10 47 -3 93 -10 36 -78 124
-79 102z"/>
<path d="M10973 7958 c50 -115 67 -162 78 -210 13 -62 23 -72 33 -35 19 72 -2
155 -56 213 -39 42 -66 58 -55 32z"/>
<path d="M11080 7965 c0 -2 13 -30 29 -62 40 -80 54 -136 54 -223 0 -77 -23
-151 -60 -192 -29 -32 -6 -30 32 3 64 56 80 100 80 214 0 81 -4 109 -21 145
-27 57 -114 145 -114 115z"/>
<path d="M11948 7922 c-99 -106 -115 -258 -41 -377 24 -39 82 -89 91 -80 3 2
-10 21 -27 41 -93 105 -88 261 11 411 16 23 28 44 28 47 0 16 -22 1 -62 -42z"/>
<path d="M12052 7926 c-46 -50 -62 -96 -62 -176 0 -105 23 -136 35 -47 10 81
34 166 61 219 13 26 20 48 15 48 -4 0 -27 -20 -49 -44z"/>
<path d="M12177 7942 c-41 -43 -67 -110 -67 -175 0 -59 13 -69 24 -20 4 16 23
70 42 121 20 51 34 95 32 98 -3 2 -16 -9 -31 -24z"/>
<path d="M10035 7952 c-12 -3 7 -11 51 -22 124 -32 228 -92 373 -218 145 -125
249 -192 299 -192 23 0 19 6 -35 55 -67 61 -138 152 -203 263 -23 40 -45 71
-47 68 -5 -5 26 -125 39 -150 6 -10 -23 9 -63 43 -87 74 -166 122 -235 144
-47 15 -136 20 -179 9z"/>
<path d="M12976 7953 c-3 -4 -35 -14 -70 -23 -87 -23 -173 -73 -289 -170 -54
-45 -101 -79 -104 -76 -4 3 1 14 10 24 18 19 50 92 44 98 -2 2 -29 -34 -61
-80 -31 -46 -85 -112 -119 -146 -48 -48 -56 -61 -37 -55 63 19 135 68 263 177
165 143 277 207 408 234 101 20 104 22 28 23 -36 1 -69 -2 -73 -6z"/>
<path d="M11265 7823 c4 -10 13 -33 19 -50 17 -46 30 -54 23 -15 -5 24 -3 32
6 30 22 -8 55 -67 62 -115 8 -47 8 -48 17 -18 5 17 6 48 3 70 l-6 40 27 -26
c14 -15 35 -51 45 -80 l19 -54 -2 58 c-3 62 9 74 36 35 l16 -22 16 22 c24 35
34 26 35 -35 1 -32 4 -44 6 -28 5 48 23 105 32 105 5 0 7 -9 4 -20 -7 -28 4
-25 39 10 35 36 52 39 42 8 -10 -33 -7 -135 5 -155 8 -14 10 -10 9 22 -2 86
44 172 116 216 l31 19 -29 0 c-15 0 -49 -11 -75 -24 -65 -35 -282 -52 -329
-27 -12 6 -37 11 -56 11 -20 0 -50 9 -68 20 -41 25 -52 25 -43 3z"/>
<path d="M9906 7808 c-32 -18 -49 -69 -49 -148 0 -41 6 -88 12 -105 10 -28 10
-29 -4 -10 -23 29 -45 112 -45 167 0 26 -4 48 -8 48 -19 0 -35 -60 -41 -150
l-6 -95 -17 43 c-10 23 -18 49 -18 57 0 30 -19 14 -27 -22 -14 -74 -7 -156 22
-228 32 -81 53 -114 108 -171 35 -38 37 -43 20 -48 -22 -7 -89 -73 -82 -80 3
-3 27 6 54 19 28 13 74 26 102 29 l53 5 -33 -29 c-37 -33 -74 -90 -57 -90 6 0
25 7 42 16 28 15 330 96 335 90 1 -1 -41 -27 -95 -58 -90 -53 -173 -121 -161
-133 3 -3 30 9 61 25 47 25 338 132 338 123 0 -1 -25 -21 -55 -44 -31 -23 -53
-44 -51 -46 3 -3 69 20 148 50 79 30 170 62 203 72 32 9 80 27 106 40 l46 24
-24 -59 c-39 -98 -44 -270 -7 -256 12 5 12 1 -1 -24 -21 -40 -19 -116 5 -164
20 -42 135 -164 145 -155 3 3 -2 20 -11 38 -19 38 -14 94 12 122 24 27 63 23
117 -11 26 -16 49 -30 52 -30 2 0 6 10 8 23 3 14 5 10 6 -14 1 -26 10 -44 37
-70 66 -63 161 -217 150 -245 -7 -18 -30 -18 -66 1 -38 20 -39 3 -1 -24 32
-23 80 -28 98 -10 23 23 -33 140 -121 254 -30 38 -53 71 -51 73 1 2 29 -10 61
-26 109 -55 166 -67 314 -66 145 0 226 16 345 69 32 14 60 25 63 25 3 0 -27
-33 -66 -74 -75 -77 -126 -166 -120 -208 2 -13 15 -29 31 -36 23 -11 31 -11
57 5 39 22 38 31 -2 29 -30 -1 -33 1 -31 28 3 38 56 124 121 196 29 32 53 69
53 82 1 16 3 18 6 6 4 -15 12 -13 62 15 50 27 63 30 87 22 38 -13 53 -67 37
-128 -6 -23 -10 -43 -9 -44 7 -7 89 73 116 112 66 96 62 181 -14 264 l-42 46
13 50 c8 28 12 72 10 98 l-4 48 18 -27 c26 -40 42 -117 37 -180 -3 -37 -1 -58
9 -65 20 -17 25 10 21 108 -3 65 -10 104 -29 149 l-25 61 32 -22 c17 -12 65
-32 105 -44 41 -12 139 -47 218 -77 79 -30 146 -53 148 -50 3 2 -21 23 -51 46
-31 23 -56 44 -56 45 0 2 60 -16 133 -39 138 -44 189 -67 246 -110 53 -40 50
-21 -5 35 -34 35 -80 66 -149 100 -55 27 -92 47 -82 45 9 -3 59 -12 110 -21
112 -19 178 -39 235 -72 23 -13 42 -21 42 -18 0 18 -40 62 -80 88 l-45 29 45
-7 c25 -4 71 -17 103 -30 70 -28 69 -13 -2 35 l-53 35 29 20 c95 67 152 157
178 282 30 139 13 214 -62 286 l-40 38 -6 -54 c-4 -30 -13 -69 -21 -88 -17
-39 -62 -104 -51 -74 49 137 20 296 -49 269 -18 -7 -18 -5 -17 -94 l0 -65 -10
45 c-18 89 -46 128 -82 114 -11 -4 -15 -21 -14 -67 1 -38 -5 -85 -17 -120 -14
-44 -16 -61 -8 -69 21 -21 12 -27 -20 -14 -39 16 -104 29 -95 20 4 -4 16 -12
29 -18 12 -6 23 -16 25 -22 5 -14 -58 -56 -120 -79 -26 -10 -44 -22 -40 -26 4
-4 53 -15 108 -23 l100 -15 -95 4 c-58 2 -146 16 -227 34 -72 17 -148 31 -170
30 -36 0 -34 -2 60 -50 54 -27 139 -64 190 -81 82 -29 104 -32 209 -33 122 0
132 -8 32 -23 -119 -19 -224 10 -496 140 -92 43 -173 78 -180 77 -7 -1 -38 1
-69 5 -160 22 -312 -67 -411 -239 l-40 -70 6 60 c4 38 18 84 39 125 17 36 33
68 35 72 2 3 -17 18 -41 32 -32 19 -58 26 -96 26 -82 0 -132 -35 -170 -119
l-19 -44 -15 34 c-30 71 -115 129 -189 129 -33 0 -52 -7 -79 -30 l-36 -29 31
-62 c22 -45 31 -79 34 -128 l3 -66 -30 63 c-42 86 -131 174 -217 214 -55 26
-80 31 -138 31 -135 0 -144 -2 -366 -108 -118 -57 -242 -111 -274 -121 -76
-21 -170 -21 -216 0 -19 9 -26 14 -15 10 47 -14 163 -16 201 -4 21 7 118 51
214 99 205 101 200 112 -26 61 -92 -21 -175 -33 -244 -36 l-105 -3 114 14 c63
8 119 19 123 23 5 5 -11 14 -34 21 -52 16 -129 62 -125 76 2 6 18 19 35 30 17
11 31 24 32 28 0 12 -69 -3 -114 -24 -38 -18 -38 -18 -22 0 16 18 16 21 1 57
-9 22 -19 76 -22 122 -3 45 -10 85 -14 88 -13 8 -47 -14 -60 -39 -7 -12 -18
-44 -25 -72 l-13 -50 6 76 c5 70 3 77 -15 81 -10 3 -27 1 -36 -4z m161 -414
c-3 -3 -12 -4 -19 -1 -8 3 -5 6 6 6 11 1 17 -2 13 -5z m2960 0 c-3 -3 -12 -4
-19 -1 -8 3 -5 6 6 6 11 1 17 -2 13 -5z m-2094 -43 c62 -27 120 -81 164 -155
91 -153 177 -245 272 -293 l44 -23 -46 0 c-85 0 -140 43 -265 210 -131 175
-189 220 -279 220 -59 0 -116 -25 -202 -89 -80 -58 -111 -76 -111 -61 0 5 4
10 9 10 5 0 47 34 93 77 130 119 218 148 321 104z m1403 -27 c21 -9 56 -31 79
-49 42 -35 110 -113 103 -120 -2 -2 -24 12 -48 32 -180 144 -365 111 -479 -84
-70 -118 -107 -159 -172 -192 -41 -20 -76 -31 -103 -30 l-41 0 42 17 c71 29
128 86 207 207 87 131 140 188 199 215 54 24 161 26 213 4z m-1486 -368 c6
-17 15 -25 22 -20 7 3 -7 -12 -32 -34 l-45 -40 -8 37 c-10 43 -2 107 21 176
l16 50 8 -71 c4 -39 12 -83 18 -98z m167 -114 c92 -69 225 -133 367 -176 65
-20 124 -36 131 -36 8 0 16 22 20 58 l8 57 11 -52 c6 -28 14 -55 18 -58 13
-13 245 67 356 122 87 43 129 72 185 124 74 71 82 76 92 59 3 -5 0 -7 -8 -4
-9 3 -27 -13 -50 -44 -41 -58 -138 -130 -229 -171 -34 -16 -124 -50 -198 -75
-74 -26 -144 -53 -155 -60 -16 -11 -24 -10 -50 5 -16 9 -77 34 -135 54 -58 20
-156 61 -218 91 -96 46 -125 67 -193 133 -43 43 -76 81 -72 84 3 4 17 -8 29
-27 13 -19 54 -57 91 -84z m-137 39 c-22 -43 -9 -93 38 -143 l25 -27 -27 -31
c-14 -17 -29 -49 -32 -71 -6 -38 -7 -39 -26 -23 -26 24 -57 77 -68 116 -13 42
2 91 46 151 34 47 65 66 44 28z m1406 -127 c6 -34 -19 -99 -55 -144 l-21 -25
0 30 c0 17 -9 44 -20 60 -11 17 -20 33 -20 36 0 3 14 23 30 44 21 26 30 49 30
74 l1 36 24 -40 c14 -22 28 -54 31 -71z"/>
<path d="M10250 7784 c0 -11 44 -92 67 -121 13 -18 34 -38 46 -45 21 -11 190
-58 194 -54 5 4 -198 181 -223 194 -32 17 -84 33 -84 26z"/>
<path d="M12704 7720 c-106 -69 -204 -156 -164 -144 14 3 59 9 101 13 44 3 84
12 94 21 10 8 31 43 47 77 28 62 35 93 20 93 -4 0 -48 -27 -98 -60z"/>
<path d="M9380 7705 c-110 -56 -160 -141 -168 -282 -2 -51 -2 -93 1 -93 4 0
13 12 21 28 l15 27 -6 -37 c-3 -20 -2 -57 1 -81 7 -43 9 -45 51 -56 61 -15 62
-15 69 24 18 92 77 183 166 252 33 25 58 48 56 51 -3 2 -36 -13 -75 -33 -82
-43 -159 -114 -190 -176 l-21 -44 6 75 c3 41 17 108 30 148 13 40 24 75 24 79
0 4 -16 -8 -35 -27 -20 -19 -35 -28 -35 -20 0 26 51 99 97 139 26 22 45 42 43
45 -3 2 -25 -6 -50 -19z"/>
<path d="M10196 7693 c29 -120 123 -204 226 -203 l43 1 -60 31 c-81 41 -137
89 -176 148 -18 28 -34 50 -36 50 -2 0 0 -12 3 -27z"/>
<path d="M13689 7664 c49 -44 102 -133 117 -197 l6 -28 -33 31 c-34 32 -119
80 -140 80 -6 0 9 -22 33 -48 54 -57 66 -79 84 -147 19 -69 17 -87 -5 -45 -32
59 -112 133 -187 173 -87 45 -113 48 -56 6 59 -43 137 -152 170 -236 l28 -71
64 21 c62 21 65 24 78 67 8 28 12 82 10 140 -3 81 -7 103 -32 152 -29 57 -73
100 -133 131 -55 29 -57 19 -4 -29z"/>
<path d="M12856 7652 c-12 -36 -65 -91 -109 -113 -22 -12 -69 -26 -106 -33
l-66 -13 45 -7 c58 -9 135 8 176 39 36 27 78 105 72 132 -4 15 -5 14 -12 -5z"/>
<path d="M9106 7615 c-11 -20 -81 -98 -156 -173 -144 -144 -201 -225 -240
-337 -24 -69 -50 -192 -50 -238 0 -31 1 -30 25 18 27 53 27 54 -1 -75 -8 -36
-17 -111 -20 -167 l-7 -103 45 0 45 0 18 67 c44 162 116 308 211 426 30 37 52
67 48 67 -26 0 -182 -145 -226 -210 -31 -45 22 70 65 142 54 89 111 164 199
261 79 88 73 92 -35 19 -93 -62 -170 -133 -224 -207 -36 -48 -43 -54 -37 -30
21 87 76 170 209 322 94 107 159 209 153 239 -2 10 -10 2 -22 -21z"/>
<path d="M13980 7413 c18 -31 62 -97 98 -147 159 -219 200 -303 227 -461 6
-35 1 -30 -34 40 -22 44 -60 101 -84 126 -45 47 -135 114 -143 106 -2 -2 16
-26 41 -53 86 -92 158 -235 195 -388 11 -43 21 -80 23 -82 2 -2 25 -7 50 -10
l47 -7 0 65 c0 76 -31 258 -60 349 -23 75 -23 72 -10 64 6 -4 22 -30 37 -58
33 -65 42 -47 12 25 -42 101 -125 213 -222 300 -51 46 -116 107 -145 135 -29
29 -55 53 -58 53 -3 0 9 -26 26 -57z"/>
<path d="M13390 7275 c0 -4 11 -21 24 -38 13 -18 36 -56 51 -84 15 -29 30 -53
34 -53 3 0 14 7 24 15 25 18 17 41 -33 93 -37 39 -100 80 -100 67z"/>
<path d="M9644 7234 c-43 -28 -93 -82 -94 -101 0 -12 38 -38 45 -31 1 2 12 22
23 44 12 23 37 58 55 78 40 42 26 47 -29 10z"/>
<path d="M9070 7236 c0 -3 47 -19 104 -37 82 -25 103 -35 99 -48 -7 -27 24
-100 89 -205 98 -161 153 -223 254 -288 39 -25 55 -43 65 -72 13 -40 97 -162
105 -154 2 3 -1 31 -7 64 -15 81 -6 195 23 282 14 39 22 72 18 72 -9 0 -64
-60 -83 -92 -9 -15 -17 -36 -17 -47 0 -11 -4 -22 -10 -26 -14 -9 -32 70 -39
180 l-7 100 -17 -54 c-9 -30 -17 -80 -18 -110 l-1 -56 -30 63 c-26 54 -31 76
-32 148 -1 81 -2 84 -28 93 -26 9 -27 9 -33 -44 -4 -29 -4 -73 -1 -97 l7 -43
-20 35 c-11 19 -34 74 -52 123 -17 48 -35 87 -39 87 -5 0 -12 -19 -16 -42 l-7
-43 -13 40 c-23 73 -21 77 29 59 23 -9 110 -49 192 -89 225 -110 397 -229 540
-374 59 -61 89 -73 113 -49 7 7 12 26 12 43 0 28 -5 33 -37 43 -21 7 -88 50
-150 96 -280 210 -597 362 -887 425 -104 23 -106 23 -106 17z"/>
<path d="M13888 7220 c-262 -55 -583 -214 -895 -443 -50 -37 -107 -74 -127
-82 -43 -18 -49 -55 -14 -79 37 -26 62 -20 94 27 17 23 76 76 132 117 56 41
101 80 102 85 1 18 313 215 341 215 9 0 63 22 120 49 110 51 222 90 329 114
40 9 54 15 35 15 -16 0 -69 -8 -117 -18z"/>
<path d="M13754 7142 l-42 -16 -5 -61 c-7 -88 -22 -109 -23 -34 -1 67 -5 73
-31 65 -13 -4 -19 -18 -21 -53 -2 -26 -11 -65 -21 -88 l-17 -40 -7 65 c-8 70
-15 84 -37 70 -10 -6 -14 -34 -16 -105 -1 -89 -4 -103 -35 -163 -19 -36 -39
-67 -45 -69 -7 -2 -13 19 -16 55 -3 33 -12 71 -19 85 -13 24 -14 18 -14 -61 0
-86 -19 -182 -36 -182 -5 0 -9 11 -9 23 0 33 -54 138 -86 168 -24 21 -26 22
-19 4 54 -131 70 -248 45 -334 -5 -19 -7 -37 -5 -40 8 -7 62 58 96 116 16 28
46 64 66 79 19 14 52 53 74 86 36 57 38 59 45 34 8 -32 30 -34 38 -2 3 12 31
54 62 92 61 74 107 161 130 246 23 87 22 88 -52 60z"/>
<path d="M10640 7071 c-190 -61 -253 -123 -254 -247 0 -59 29 -138 80 -214 9
-14 2 -9 -15 10 -49 56 -83 132 -88 203 l-5 64 -47 -8 c-56 -9 -155 -43 -188
-65 -23 -15 -24 -17 -9 -32 14 -15 19 -14 51 1 51 24 61 21 26 -9 -17 -14 -28
-30 -25 -36 4 -6 26 -19 50 -29 46 -21 61 -47 45 -78 -17 -31 -14 -46 6 -30
14 12 14 10 -1 -13 -18 -27 -18 -28 0 -28 14 0 15 -3 6 -12 -18 -18 -15 -31 6
-23 14 5 15 4 5 -6 -7 -7 -13 -19 -13 -27 0 -12 2 -12 17 -1 15 13 15 12 5 -8
-15 -27 -15 -36 -1 -27 8 4 9 0 4 -15 -4 -13 -2 -21 5 -21 7 0 9 -7 6 -16 -4
-11 -2 -15 8 -11 10 4 12 0 8 -16 -5 -19 -3 -20 10 -9 13 10 15 9 10 -14 -3
-19 -1 -25 7 -20 6 4 11 1 11 -9 0 -9 5 -13 10 -10 6 3 10 -4 10 -16 0 -17 3
-19 14 -10 11 9 12 6 9 -16 -4 -27 -4 -27 11 -9 15 19 16 19 16 -10 1 -28 1
-28 15 -10 14 19 15 18 15 -10 0 -20 3 -25 9 -16 6 11 10 9 14 -7 5 -20 4 -20
-32 -5 -162 67 -327 210 -370 321 -19 50 -22 72 -17 116 6 43 4 56 -9 67 -20
16 -25 11 -36 -38 -20 -89 22 -207 107 -301 83 -93 214 -174 372 -231 83 -30
73 -36 -14 -9 -80 25 -184 74 -248 118 -105 73 -246 248 -246 307 0 29 -23 22
-69 -21 -27 -25 -62 -71 -78 -101 -24 -47 -26 -56 -13 -64 16 -11 15 -12 54
54 l24 39 -2 -58 -1 -59 50 -11 c56 -11 75 -21 75 -38 0 -6 -6 -4 -12 5 -7 9
-32 19 -56 22 -24 4 -92 20 -150 36 -215 61 -524 120 -787 151 -133 16 -533
17 -590 2 -33 -9 -11 -11 131 -12 266 -2 537 -35 869 -106 211 -46 362 -88
462 -131 92 -40 114 -40 125 -4 6 21 7 20 2 -5 -9 -57 -9 -60 4 -58 6 2 12 -6
12 -18 0 -11 5 -17 10 -14 6 3 10 -1 10 -9 0 -19 16 -21 23 -3 3 6 6 2 6 -11
1 -13 5 -20 11 -17 6 3 10 -1 10 -9 0 -19 16 -21 23 -3 3 6 6 2 6 -10 1 -25
16 -31 24 -10 3 6 6 2 6 -11 1 -13 5 -21 10 -17 6 3 14 -3 20 -12 6 -10 11
-14 11 -9 0 6 7 1 15 -10 11 -15 15 -16 15 -4 0 9 6 5 15 -10 8 -14 14 -19 15
-12 0 19 20 14 20 -5 1 -17 2 -17 15 0 13 18 14 17 17 -10 l4 -28 11 25 12 25
0 -27 c1 -30 21 -39 22 -10 0 13 3 12 11 -5 10 -21 12 -22 24 -5 12 16 13 15
14 -5 0 -27 20 -32 20 -5 1 13 4 11 15 -8 l14 -25 10 25 c9 24 10 24 10 3 1
-22 21 -34 21 -13 0 6 5 10 10 10 6 0 10 -7 10 -15 0 -8 5 -15 10 -15 6 0 10
8 10 18 1 16 1 16 11 0 5 -10 14 -18 19 -18 6 0 10 8 11 18 0 13 2 12 9 -5 11
-27 27 -30 33 -5 4 16 5 16 6 0 1 -21 27 -24 34 -5 4 10 6 10 6 0 1 -7 8 -13
16 -13 8 0 15 6 15 13 0 6 5 4 11 -5 5 -10 14 -18 19 -18 6 0 10 8 10 18 1 16
1 16 11 0 5 -10 14 -18 19 -18 6 0 10 8 10 18 1 16 1 16 14 0 18 -24 26 -23
27 5 l0 22 11 -22 c6 -13 15 -23 20 -23 4 0 8 10 9 23 l0 22 16 -23 c15 -21
16 -21 29 -5 12 17 13 17 19 1 10 -25 25 -22 25 5 1 20 2 21 14 5 18 -24 26
-23 26 5 l0 22 19 -24 18 -24 7 24 c6 22 7 22 17 7 14 -25 29 -22 29 5 1 20 2
21 14 5 18 -24 26 -23 26 3 0 18 2 20 16 9 12 -11 18 -11 30 2 13 12 14 20 5
37 -13 24 -23 27 -151 39 l-95 9 107 1 c129 2 252 18 291 39 16 8 27 16 25 18
-2 3 -53 -2 -114 -10 -117 -16 -254 -18 -319 -6 -36 6 -31 8 46 14 138 11 209
44 209 97 0 50 -71 126 -290 312 -41 35 -92 89 -112 119 -32 48 -38 67 -45
135 -12 136 -8 255 10 297 20 46 16 47 -103 8z m-27 -69 c-3 -12 -10 -22 -15
-22 -5 0 -7 -4 -3 -9 3 -5 1 -12 -5 -16 -6 -4 -8 -11 -5 -16 4 -5 -1 -12 -10
-15 -13 -6 -14 -8 -3 -15 9 -6 10 -9 1 -9 -7 0 -10 -7 -7 -15 4 -8 1 -15 -6
-15 -6 0 -8 -5 -4 -11 3 -6 0 -15 -7 -20 -12 -7 -12 -9 0 -9 11 0 11 -3 1 -15
-10 -12 -10 -15 0 -15 10 0 10 -3 0 -15 -10 -12 -10 -15 0 -15 9 0 7 -7 -5
-20 -14 -16 -15 -19 -4 -15 12 5 15 -1 14 -23 -1 -15 -5 -34 -9 -40 -5 -8 -2
-10 8 -6 19 7 20 0 4 -29 -11 -21 -10 -21 7 -7 17 14 18 13 11 -10 -5 -14 -8
-35 -8 -47 0 -29 -17 -20 -58 32 -65 81 -84 132 -85 220 0 70 3 84 25 113 14
19 39 41 55 50 29 15 108 42 112 38 1 -1 0 -12 -4 -24z m-99 -808 c3 -8 2 -12
-4 -9 -6 3 -10 10 -10 16 0 14 7 11 14 -7z"/>
<path d="M12334 7084 c31 -79 38 -138 25 -213 -7 -42 -12 -95 -11 -119 5 -98
-106 -223 -328 -367 -171 -112 -190 -129 -190 -173 0 -68 22 -84 145 -108 l70
-13 -157 2 c-86 1 -154 -1 -152 -4 10 -17 116 -33 264 -38 l165 -6 -110 -9
c-121 -9 -158 -23 -153 -59 2 -13 9 -21 17 -19 8 2 18 -3 22 -10 7 -11 12 -11
29 0 18 11 20 10 20 -8 0 -25 9 -25 26 -2 12 16 13 15 14 -5 0 -13 3 -23 6
-23 3 0 14 10 25 23 l18 22 1 -22 c0 -28 8 -29 26 -5 12 16 13 15 14 -5 0 -13
4 -23 8 -23 5 0 14 10 20 23 l11 22 0 -22 c1 -27 19 -31 28 -7 6 15 7 15 19 0
11 -16 13 -15 28 6 l16 22 0 -22 c0 -28 14 -28 28 1 l11 22 0 -22 c1 -13 5
-23 9 -23 5 0 14 10 20 23 l11 22 0 -22 c1 -13 5 -23 9 -23 5 0 14 10 20 23 8
17 11 18 11 5 1 -10 5 -18 11 -18 5 0 14 8 19 18 10 16 10 16 11 0 0 -25 19
-22 30 5 l9 22 0 -22 c1 -13 5 -23 9 -23 5 0 14 10 20 23 8 17 11 18 11 5 1
-21 17 -24 25 -5 5 10 7 10 12 0 8 -18 24 -16 24 3 0 13 3 14 15 4 12 -10 16
-8 23 11 l9 23 7 -25 7 -24 11 25 c9 21 12 22 15 7 6 -23 23 -12 24 16 0 21 1
21 11 -3 9 -21 12 -22 15 -7 5 20 19 23 26 5 4 -8 8 -4 13 10 6 21 7 21 20 5
12 -16 13 -15 14 11 0 28 1 29 15 10 14 -18 14 -18 15 6 1 24 1 24 15 6 14
-18 15 -19 15 -2 0 12 5 16 15 12 10 -4 15 1 15 16 0 17 2 18 15 8 13 -11 15
-8 15 16 0 27 1 27 15 8 14 -18 14 -18 15 6 1 14 4 19 7 13 7 -18 23 -16 23 2
0 8 6 12 14 9 11 -4 13 0 9 18 -6 21 -5 22 10 9 15 -12 17 -11 18 10 0 13 3
18 6 12 9 -23 25 -14 17 9 -6 20 -5 21 10 9 14 -12 16 -11 16 10 0 19 2 21 10
9 7 -12 12 -12 21 -3 10 10 8 21 -6 53 -27 60 -12 85 56 93 70 9 75 15 62 78
-10 51 -10 51 8 28 10 -13 24 -36 30 -51 12 -30 17 -32 37 -19 26 16 -53 143
-117 187 l-34 23 -22 -54 c-12 -29 -39 -77 -60 -105 -45 -62 -164 -165 -226
-198 -24 -12 -36 -17 -25 -10 138 96 205 164 258 263 28 52 32 70 33 135 0 41
-3 83 -8 94 -7 17 -9 18 -25 2 -15 -13 -17 -27 -14 -75 5 -74 -8 -116 -62
-189 -61 -82 -202 -184 -329 -237 -34 -14 -37 -14 -37 1 0 10 5 14 15 10 11
-4 15 2 15 21 0 26 1 26 15 7 14 -18 14 -18 15 6 1 14 4 19 7 13 9 -25 23 -13
17 15 -7 24 -6 26 9 13 15 -12 17 -11 17 3 0 9 5 16 11 16 7 0 9 9 6 21 -5 17
-3 18 11 7 13 -11 15 -10 10 9 -4 16 -2 20 9 16 12 -5 14 -1 8 17 -5 17 -4 21
6 15 9 -6 11 -2 7 13 -4 16 -2 19 10 15 11 -5 14 -2 9 10 -3 9 -2 17 4 17 6 0
8 9 4 21 -5 15 -4 19 4 15 14 -9 14 0 1 24 -9 16 -8 18 6 13 14 -5 15 -3 5 15
-8 15 -8 21 1 24 8 3 7 11 -2 28 -12 22 -12 24 3 12 14 -12 15 -8 14 35 l-2
48 50 26 c28 14 50 31 50 37 0 7 -13 22 -30 33 -28 19 -28 20 -5 14 14 -4 34
-13 45 -20 17 -10 24 -10 38 0 9 7 17 15 17 18 0 12 -115 64 -165 75 -111 24
-102 28 -107 -52 -6 -82 -35 -148 -93 -211 -23 -25 -28 -28 -12 -8 46 60 80
144 84 213 4 55 1 72 -19 110 -41 76 -150 136 -322 176 -26 6 -28 5 -22 -12z
m171 -69 c66 -20 109 -52 136 -99 19 -33 21 -48 16 -107 -7 -80 -39 -147 -104
-218 -40 -43 -42 -45 -43 -21 0 14 -3 36 -7 50 -6 23 -5 24 12 10 17 -14 18
-14 7 7 -16 29 -15 36 3 29 13 -5 13 -2 -1 19 -17 26 -8 34 16 13 8 -7 7 -4
-3 8 -22 26 -22 38 0 30 14 -6 14 -3 -3 15 -19 22 -19 22 0 15 19 -7 19 -6 1
14 -12 13 -14 20 -5 20 8 0 9 4 3 13 -5 6 -9 21 -9 32 1 11 -2 22 -6 25 -4 3
-10 17 -12 30 -2 14 -5 26 -5 28 -1 1 -1 5 -2 10 0 4 -5 13 -11 20 -6 6 -7 12
-2 12 5 0 5 4 -1 8 -10 7 -38 52 -33 52 2 0 25 -7 53 -15z m66 -828 c-10 -9
-11 -8 -5 6 3 10 9 15 12 12 3 -3 0 -11 -7 -18z"/>
<path d="M9158 6820 c-110 -102 -231 -264 -211 -284 4 -3 20 -6 37 -6 29 0 34
6 70 78 49 98 96 170 159 238 27 30 45 54 40 54 -5 0 -47 -36 -95 -80z"/>
<path d="M13835 6828 c57 -63 127 -161 179 -250 26 -44 31 -48 67 -48 21 0 39
3 39 8 0 15 -78 124 -134 188 -55 62 -178 164 -198 164 -5 0 16 -28 47 -62z"/>
<path d="M8960 6826 c-56 -60 -86 -105 -120 -180 -45 -101 -46 -106 -13 -106
26 0 31 5 48 57 11 31 46 103 78 161 32 58 56 107 53 109 -2 2 -23 -16 -46
-41z"/>
<path d="M14080 6827 c0 -2 20 -39 45 -82 24 -43 55 -107 67 -142 22 -60 24
-63 56 -63 30 0 33 2 26 23 -22 69 -194 303 -194 264z"/>
<path d="M10994 6595 c-6 -26 -12 -26 -62 -7 -17 6 -7 -40 17 -83 17 -30 137
-122 147 -112 3 2 -8 25 -24 51 -16 25 -35 66 -42 91 -11 41 -11 48 5 65 18
19 17 20 -8 20 -20 0 -28 -6 -33 -25z"/>
<path d="M12043 6610 c32 -20 14 -101 -43 -187 -12 -18 -18 -33 -14 -33 4 0
36 18 70 41 62 40 104 98 104 143 0 17 -9 17 -57 -1 -6 -3 -13 6 -15 19 -2 17
-10 24 -33 26 -25 2 -27 1 -12 -8z"/>
<path d="M14135 6513 c-233 -16 -629 -90 -880 -165 -38 -11 -95 -24 -125 -27
-48 -5 -55 -9 -58 -29 -4 -29 14 -52 40 -52 12 0 48 13 82 30 117 57 487 144
829 196 132 20 230 27 422 32 166 4 231 9 195 13 -55 7 -412 8 -505 2z"/>
<path d="M8675 6438 c22 -159 104 -389 105 -295 1 12 13 -9 29 -48 15 -38 48
-106 72 -150 60 -109 99 -200 106 -251 3 -24 10 -41 14 -38 16 10 9 149 -11
225 -32 122 -32 126 -2 63 16 -34 52 -97 80 -140 28 -43 56 -91 63 -106 15
-34 21 -34 62 -6 18 13 33 24 35 25 2 1 -4 39 -14 85 -20 99 -22 289 -4 396 6
40 10 76 7 79 -10 9 -44 -120 -57 -215 -7 -51 -11 -134 -8 -185 l6 -92 -26 75
c-24 69 -26 88 -26 235 0 130 4 173 21 233 11 39 17 72 13 72 -13 0 -59 -120
-76 -199 -11 -49 -15 -102 -12 -155 4 -79 4 -80 -8 -37 -24 78 -36 202 -29
288 4 46 5 83 1 83 -8 0 -37 -104 -46 -165 -7 -47 -8 -45 -9 30 0 44 6 109 14
144 9 35 14 65 13 67 -2 1 -20 5 -40 9 -36 7 -37 6 -47 -32 -10 -34 -16 -66
-38 -203 l-6 -35 -14 45 c-9 29 -13 79 -11 143 l3 97 -27 0 c-24 0 -29 -6 -38
-42 -17 -67 -18 -67 -19 -5 l-1 57 -41 0 -41 0 7 -52z"/>
<path d="M14245 6472 c-5 -4 -11 -44 -12 -89 -1 -88 -13 -160 -44 -266 -23
-77 -32 -85 -19 -17 14 71 11 212 -5 291 -9 40 -17 74 -18 75 -1 1 -22 -2 -47
-8 l-45 -10 -1 -137 c-1 -150 -12 -210 -66 -338 l-33 -78 -6 110 c-6 102 -31
228 -50 249 -4 4 -5 -45 -2 -110 5 -113 -13 -308 -35 -389 -8 -28 -6 -32 31
-57 23 -15 44 -25 47 -23 6 4 84 159 112 225 14 33 15 29 10 -72 -5 -107 1
-158 17 -158 5 0 11 22 13 50 4 35 30 100 91 227 75 156 100 222 121 323 3 14
3 -10 0 -52 -3 -43 -3 -78 0 -78 14 0 86 265 86 316 0 23 -3 24 -67 24 -38 0
-72 -4 -78 -8z"/>
<path d="M11541 6237 c-1 -127 -1 -128 24 -137 47 -18 85 0 164 76 42 40 73
75 70 78 -3 3 -42 -21 -87 -55 -113 -84 -121 -82 -143 43 -9 54 -19 103 -22
110 -3 7 -6 -44 -6 -115z"/>
<path d="M9403 6279 c-55 -83 -89 -161 -103 -237 -12 -60 -10 -255 2 -267 4
-4 15 -4 25 -1 16 5 18 17 15 130 -4 154 7 209 64 327 25 50 43 96 41 102 -1
5 -22 -19 -44 -54z"/>
<path d="M13704 6303 c22 -72 40 -236 40 -370 0 -150 0 -152 23 -162 13 -6 28
-11 33 -11 13 0 12 185 0 274 -12 80 -78 286 -92 286 -5 0 -7 -8 -4 -17z"/>
<path d="M13248 6273 c-10 -2 -18 -11 -18 -19 0 -27 -42 -97 -88 -146 -90 -96
-240 -179 -403 -223 -276 -74 -754 -49 -891 46 -17 13 -42 19 -75 18 -44 -1
-45 -2 -16 -9 17 -4 50 -22 73 -40 22 -17 69 -40 103 -51 71 -21 220 -48 281
-51 22 -1 -8 -4 -68 -7 -82 -5 -111 -10 -114 -20 -3 -10 0 -12 12 -8 10 4 16
1 16 -8 0 -18 12 -19 28 -3 9 9 12 8 12 -5 0 -20 11 -22 28 -5 9 9 12 8 12 -5
0 -22 9 -22 26 1 12 16 13 15 14 -7 0 -23 1 -24 20 -6 19 18 20 17 20 -5 0
-19 3 -21 12 -12 15 15 32 16 23 2 -9 -14 8 -13 23 2 9 9 12 8 12 -5 0 -22 16
-22 29 1 10 16 10 16 11 0 0 -10 4 -18 10 -18 5 0 14 8 19 18 9 15 10 14 11
-8 l1 -25 19 24 c20 23 20 23 20 2 0 -28 14 -27 28 2 l11 22 1 -25 1 -25 19
24 20 23 0 -23 1 -24 19 24 20 23 0 -23 c1 -22 2 -23 14 -6 11 14 15 15 19 5
4 -10 10 -8 21 6 14 17 16 18 16 3 0 -24 15 -21 28 6 l11 22 0 -23 c1 -27 18
-21 31 12 8 20 9 20 10 -4 1 -24 1 -24 15 -6 14 18 15 18 21 1 6 -15 8 -15 20
6 10 19 13 20 14 7 0 -25 16 -22 24 5 7 21 7 21 16 2 8 -19 8 -19 18 5 8 18
11 20 11 8 1 -25 18 -22 27 5 7 21 7 21 14 2 8 -19 8 -19 18 5 9 22 11 22 12
5 1 -19 1 -19 14 -2 11 14 16 15 22 6 5 -9 10 -5 16 12 7 18 11 20 17 10 7
-10 11 -8 16 10 8 23 8 23 15 4 7 -18 9 -17 15 10 7 26 9 27 16 10 6 -19 8
-18 17 5 9 22 11 22 12 5 1 -18 2 -18 14 4 10 18 15 20 19 10 4 -10 6 -9 6 3
1 11 6 15 16 12 11 -5 15 1 15 19 0 14 4 27 8 29 12 4 82 111 77 116 -2 2 -30
-14 -62 -36 -68 -46 -139 -83 -214 -112 -74 -27 -87 -25 -18 4 117 49 235 130
295 202 39 48 74 128 74 169 0 25 -1 26 -32 18z"/>
<path d="M9816 6242 c33 -148 209 -297 446 -375 42 -14 116 -34 165 -44 115
-23 62 -31 -65 -9 -183 32 -343 97 -451 185 l-54 44 7 -29 c4 -16 11 -30 14
-32 44 -17 59 -32 74 -77 9 -28 17 -43 18 -35 0 9 6 5 15 -10 13 -22 14 -23
15 -5 1 16 4 14 15 -10 11 -24 14 -26 15 -10 1 17 3 17 11 -5 7 -18 12 -21 18
-11 6 9 10 6 15 -11 7 -22 8 -22 15 -4 7 19 8 18 15 -5 7 -22 8 -23 15 -4 7
17 9 16 16 -10 7 -27 8 -28 16 -10 8 19 8 19 15 -2 7 -24 24 -32 24 -11 0 6 7
3 15 -8 14 -18 14 -18 15 6 1 24 1 24 14 -5 8 -20 15 -25 20 -17 6 10 11 9 22
-5 12 -17 13 -16 14 7 l2 25 10 -27 c11 -31 28 -37 29 -10 0 12 3 10 11 -8
l11 -25 7 25 6 25 8 -22 c9 -27 26 -30 27 -5 0 13 3 12 11 -5 13 -27 28 -30
28 -5 1 15 2 15 11 -2 9 -15 13 -16 21 -5 7 11 11 11 15 2 7 -19 23 -16 23 5
0 14 4 12 20 -8 l20 -25 0 25 1 25 11 -22 c6 -13 15 -23 20 -23 4 0 8 10 9 23
l0 22 11 -22 c13 -27 28 -30 28 -5 1 16 1 16 14 0 7 -10 16 -18 20 -18 3 0 6
8 6 18 1 16 1 16 14 0 17 -22 26 -23 26 -2 0 14 2 15 17 3 13 -11 17 -11 21
-1 3 10 7 10 18 1 11 -9 14 -8 14 5 0 9 5 16 10 16 6 0 10 -4 10 -10 0 -5 5
-10 10 -10 6 0 10 9 10 21 0 21 0 21 20 -2 l19 -24 1 25 c1 23 2 24 14 8 18
-24 26 -23 26 5 1 20 2 20 11 5 13 -23 29 -23 29 -1 0 13 3 14 12 5 17 -17 28
-15 28 4 0 14 3 14 15 4 12 -10 15 -9 15 5 0 15 3 15 15 5 11 -9 19 -10 27 -2
24 24 -6 32 -120 34 -64 1 -97 3 -72 5 96 7 261 34 312 51 30 10 72 32 94 50
21 17 57 36 79 41 l40 9 -51 1 c-39 1 -65 -6 -109 -30 -161 -86 -558 -104
-845 -38 -229 52 -440 186 -503 320 -16 35 -34 59 -47 62 -17 4 -19 2 -14 -21z"/>
<path d="M11330 6189 c69 -63 132 -101 162 -97 30 4 38 38 8 38 -24 0 -94 35
-160 79 -67 46 -72 37 -10 -20z"/>
<path d="M9791 6067 c-27 -62 -31 -131 -9 -135 11 -2 18 6 23 30 4 18 16 50
26 70 16 32 17 41 7 58 -18 29 -27 25 -47 -23z"/>
<path d="M13245 6090 c-17 -18 -16 -21 4 -63 11 -24 21 -53 21 -64 0 -19 17
-33 42 -33 7 0 9 17 6 44 -6 47 -37 136 -48 136 -4 0 -15 -9 -25 -20z"/>
<path d="M11401 5985 c-1 -93 -23 -188 -52 -227 l-20 -28 33 0 c18 0 63 10
101 22 57 18 67 25 67 45 0 27 2 27 -41 9 -19 -7 -46 -16 -61 -20 -27 -6 -27
-5 -17 21 13 35 13 200 0 233 -8 20 -10 8 -10 -55z"/>
<path d="M11546 5940 c4 -78 11 -133 20 -147 15 -24 101 -53 158 -53 20 0 36
2 36 4 0 3 -9 21 -21 40 -27 46 -48 136 -49 211 -1 43 -4 54 -10 40 -14 -32
-11 -158 5 -210 8 -27 13 -50 12 -52 -2 -1 -20 3 -41 9 -53 16 -71 50 -86 161
-20 141 -31 139 -24 -3z"/>
<path d="M9830 5926 c-14 -7 -61 -21 -105 -31 -300 -65 -547 -196 -747 -396
-60 -59 -108 -113 -108 -120 0 -7 24 9 53 37 74 71 140 123 232 184 191 124
477 230 673 248 82 8 100 20 88 65 -5 21 -12 27 -34 27 -15 -1 -38 -7 -52 -14z"/>
<path d="M13182 5928 c-14 -14 -16 -54 -3 -62 5 -3 51 -8 102 -10 259 -12 622
-175 849 -381 53 -47 53 -47 15 -6 -180 194 -519 379 -800 436 -44 9 -84 20
-89 26 -14 13 -60 11 -74 -3z"/>
<path d="M11259 5800 c-135 -75 -233 -109 -393 -135 -327 -53 -660 -12 -939
117 -48 23 -90 38 -93 35 -10 -9 124 -90 206 -125 163 -68 362 -98 590 -89
159 7 349 36 450 68 73 24 200 87 200 100 0 4 19 19 43 33 38 24 40 26 16 26
-14 0 -50 -14 -80 -30z"/>
<path d="M13231 5799 c-129 -83 -403 -151 -661 -165 -238 -13 -504 35 -674
121 -49 25 -91 43 -93 41 -2 -2 12 -17 32 -33 40 -33 209 -104 295 -123 30 -7
60 -17 67 -22 34 -27 307 -35 483 -13 248 30 477 103 579 183 40 32 19 40 -28
11z"/>
<path d="M13528 5705 c-4 -16 -10 -52 -13 -78 -17 -129 -96 -321 -189 -461
-51 -77 -106 -140 -93 -106 46 117 77 265 77 365 0 84 -16 102 -25 29 -22
-185 -73 -310 -228 -563 -99 -162 -144 -277 -132 -339 l6 -35 33 65 c49 98
127 189 322 374 309 293 444 427 499 494 59 73 105 139 105 151 0 8 -52 39
-64 39 -3 0 -21 -31 -41 -69 -20 -37 -49 -81 -65 -96 l-29 -28 35 81 c19 45
38 97 41 115 4 29 2 35 -18 40 -29 8 -35 3 -44 -30 -12 -48 -84 -183 -146
-273 -83 -122 -94 -127 -59 -31 36 98 54 241 42 326 -7 52 -9 56 -14 30z"/>
<path d="M9568 5714 c-4 -5 -12 -41 -19 -79 -15 -88 -5 -208 25 -297 21 -65
22 -67 3 -50 -50 43 -160 241 -193 345 -19 61 -22 64 -46 45 -15 -12 -14 -20
7 -88 12 -41 30 -93 39 -114 49 -117 -49 16 -121 162 -3 8 -63 -29 -63 -39 0
-18 32 -73 82 -141 64 -87 193 -208 311 -291 65 -47 131 -108 222 -207 248
-269 283 -314 316 -400 14 -35 19 -41 24 -27 14 33 -2 114 -34 183 -18 38 -77
146 -132 241 -110 187 -160 310 -179 438 -7 44 -16 89 -20 100 l-9 20 0 -20
c-4 -122 61 -395 126 -530 l14 -30 -20 25 c-39 48 -239 345 -261 389 -39 77
-52 133 -58 256 -4 66 -10 115 -14 109z"/>
<path d="M9835 5630 c13 -125 44 -204 138 -355 55 -89 102 -148 288 -367 103
-122 201 -263 254 -368 96 -192 123 -414 75 -625 -15 -63 -11 -86 7 -45 27 61
53 212 54 315 l2 100 9 -65 c9 -65 4 -288 -8 -350 l-7 -32 29 18 29 19 -27
-33 c-34 -40 -41 -91 -36 -229 3 -77 11 -125 26 -167 19 -51 20 -62 8 -75 -20
-23 -66 -118 -66 -136 0 -8 -4 -15 -9 -15 -21 0 -86 337 -76 390 4 18 1 15
-11 -9 -9 -22 -14 -54 -12 -83 2 -26 0 -48 -3 -48 -4 0 -17 28 -29 63 -37 100
-38 268 -4 386 3 9 -6 -4 -19 -29 -31 -58 -51 -142 -44 -186 9 -56 -10 -39
-32 29 -37 113 -37 286 1 405 5 18 8 36 5 38 -7 7 -45 -111 -53 -164 -15 -96
-28 -17 -35 215 -4 131 -11 254 -16 273 -7 24 -9 -13 -6 -125 9 -441 9 -443
43 -557 38 -130 52 -166 95 -238 42 -69 129 -287 144 -360 6 -30 12 -75 14
-100 l3 -45 21 44 21 43 7 -43 c17 -103 76 -198 195 -314 39 -38 81 -85 92
-103 25 -40 33 -32 43 41 l7 49 28 -49 c59 -104 187 -190 365 -248 100 -33
123 -48 141 -91 9 -22 21 -34 34 -34 28 0 106 32 175 73 33 19 78 40 100 47
96 30 240 114 308 178 24 24 37 31 37 21 0 -8 6 -23 13 -34 13 -16 15 -14 35
27 13 25 63 84 117 137 89 87 131 146 150 211 3 14 35 86 70 160 35 74 78 178
96 230 18 52 48 117 66 145 36 55 61 114 100 245 24 81 26 101 33 400 8 324 9
335 57 470 9 25 28 71 44 103 15 31 24 57 19 57 -13 0 -78 -104 -111 -178 -52
-114 -61 -164 -66 -367 l-5 -189 -23 61 c-23 65 -104 213 -115 213 -4 0 8 -39
26 -88 53 -143 77 -277 71 -407 -3 -60 -12 -128 -19 -150 l-15 -39 -6 86 c-8
94 -36 183 -76 238 -48 67 -59 64 -26 -7 37 -77 57 -177 57 -278 -1 -73 -7
-110 -35 -197 l-33 -108 -24 105 c-12 58 -27 108 -32 111 -5 3 -7 -5 -4 -18
20 -96 13 -274 -16 -371 l-12 -38 -19 53 c-11 29 -22 56 -26 60 -4 4 -6 -43
-6 -105 0 -117 -21 -230 -36 -191 -4 10 -8 32 -8 47 -1 30 -39 127 -50 127 -3
0 -6 -53 -6 -117 0 -124 -14 -175 -64 -239 l-19 -24 5 40 c7 48 -12 121 -44
173 -31 50 -44 47 -26 -5 17 -48 14 -170 -4 -203 -10 -17 -12 -16 -27 18 -8
20 -20 37 -25 37 -6 0 -10 -3 -9 -7 5 -20 -15 -99 -34 -136 l-22 -42 -7 68
c-4 38 -9 71 -12 73 -2 3 -10 -23 -16 -56 -11 -53 -45 -150 -53 -150 -2 0 -3
48 -3 108 0 110 -18 185 -51 213 -13 10 -14 6 -7 -32 16 -89 7 -193 -21 -256
-25 -52 -70 -113 -86 -113 -3 0 -5 30 -3 68 l3 67 -20 -55 c-20 -55 -67 -130
-80 -130 -4 0 1 30 12 67 24 86 26 243 3 328 -20 75 -39 99 -28 35 15 -84 7
-259 -15 -327 -15 -48 -76 -163 -86 -163 0 0 -2 44 -2 99 -1 129 -15 150 -30
46 -6 -44 -17 -93 -23 -108 l-11 -28 -57 62 c-32 33 -73 83 -90 109 -32 46
-63 139 -63 190 -1 23 -2 23 -12 6 -6 -12 -9 -50 -5 -102 4 -67 10 -93 35
-138 l30 -55 -27 13 c-43 23 -88 77 -118 141 -26 55 -28 70 -28 177 0 64 -3
114 -7 112 -21 -13 -40 -120 -36 -204 l3 -88 -27 47 c-15 25 -28 52 -28 59 0
6 -5 12 -11 12 -11 0 -7 -74 7 -118 9 -27 -55 48 -79 93 -11 22 -28 67 -37 99
l-17 60 -13 -35 c-7 -19 -16 -54 -19 -79 l-7 -45 -12 53 c-17 76 -15 134 8
194 11 28 17 54 15 57 -3 2 4 11 15 18 18 13 25 12 56 -8 25 -15 58 -23 105
-27 90 -6 89 10 -2 25 -101 16 -112 33 -21 33 60 0 73 -3 82 -19 16 -31 74
-61 116 -61 22 0 90 10 152 22 l114 22 112 -22 c62 -12 130 -22 152 -22 48 0
98 29 124 72 11 18 20 28 20 21 0 -8 22 -13 63 -15 61 -3 61 -4 32 -16 -16 -8
-52 -16 -78 -19 -68 -8 -69 -23 0 -23 68 0 125 24 167 69 l30 31 -25 0 c-18 0
-8 9 38 32 97 48 176 125 220 216 l38 76 3 149 c3 131 1 153 -16 188 -15 29
-16 36 -5 27 14 -11 15 -2 9 77 -8 116 -9 184 -6 265 3 63 3 63 11 -30 8 -105
33 -237 55 -289 21 -50 24 -34 8 39 -22 103 -29 268 -14 357 31 195 150 416
346 646 188 219 262 327 335 483 39 82 94 255 87 275 -2 6 -19 -28 -37 -75
-42 -107 -136 -265 -245 -410 -118 -158 -132 -162 -30 -10 96 141 131 213 141
280 17 127 -119 124 -160 -4 -23 -70 -78 -164 -169 -287 -145 -197 -237 -350
-304 -504 -19 -42 -34 -70 -34 -63 0 56 -79 -103 -110 -222 -11 -43 -22 -115
-26 -160 -9 -123 -18 -123 -24 -1 -5 100 -6 107 -18 81 -9 -20 -13 -100 -15
-260 -3 -215 -5 -235 -26 -291 -13 -33 -39 -79 -58 -102 -19 -24 -29 -43 -22
-43 7 0 10 -3 7 -6 -4 -3 -46 -9 -94 -14 -81 -7 -90 -10 -116 -39 -36 -40 -36
-55 -1 -46 26 6 27 5 12 -12 -9 -10 -19 -25 -21 -33 -6 -18 9 -50 23 -50 6 0
17 -6 25 -14 18 -18 92 -30 133 -21 77 17 160 115 201 237 20 60 20 61 15 18
-12 -94 -75 -197 -165 -269 -17 -14 -20 -21 -10 -21 8 -1 -7 -11 -35 -23 -49
-21 -63 -22 -505 -25 -449 -3 -532 1 -596 30 -15 7 -20 14 -13 18 6 5 -3 16
-25 29 -37 23 -78 71 -112 131 -28 48 -57 159 -51 195 4 28 4 28 6 -6 6 -148
142 -319 255 -319 19 0 36 -6 39 -14 7 -17 81 -36 141 -36 56 0 96 31 120 94
27 70 20 90 -31 94 -40 3 -44 1 -68 -37 -14 -23 -42 -52 -63 -65 -41 -27 -99
-46 -89 -28 4 5 -7 15 -25 21 -17 6 -29 13 -26 16 3 3 21 -2 41 -10 48 -20 50
-19 86 11 25 21 31 33 31 66 0 21 -5 48 -10 59 -15 28 -63 49 -112 49 -64 0
-122 11 -107 21 9 5 4 17 -19 44 -69 78 -83 145 -85 422 -1 151 -6 224 -14
238 -11 17 -13 11 -14 -45 -1 -36 -4 -94 -8 -130 l-6 -65 -7 95 c-12 159 -44
283 -103 400 -26 52 -46 66 -39 28 3 -13 -6 4 -19 37 -62 154 -145 295 -307
520 -59 83 -128 188 -154 235 -57 104 -93 140 -141 140 -42 0 -55 -20 -55 -85
0 -45 36 -130 97 -229 41 -66 0 -18 -68 79 -70 102 -152 265 -171 340 -18 76
-30 79 -23 5z m3015 -594 c0 -2 -8 -10 -17 -17 -16 -13 -17 -12 -4 4 13 16 21
21 21 13z m-2024 -1263 c9 -32 26 -76 37 -98 12 -22 20 -44 19 -49 -2 -5 10
-23 25 -40 17 -19 11 -16 -15 9 -47 43 -82 122 -82 182 0 40 -15 35 -23 -7 -3
-19 -5 -16 -6 11 -1 35 5 49 20 49 5 0 16 -26 25 -57z m1483 -42 l-2 -66 -7
67 c-8 81 -16 94 -25 42 -14 -79 -26 -112 -55 -152 -17 -23 -35 -42 -42 -42
-6 0 -4 7 5 18 20 22 22 36 5 26 -7 -4 -3 4 8 17 28 31 50 75 59 119 4 19 12
44 17 54 19 36 38 -8 37 -83z m-614 -587 c51 -9 117 -14 152 -11 l63 5 -21
-27 c-45 -57 -82 -62 -216 -30 -110 27 -175 27 -280 0 -45 -12 -95 -21 -113
-21 -40 0 -83 22 -103 53 l-16 25 62 -5 c34 -2 98 2 142 10 107 20 221 20 330
1z"/>
<path d="M11231 5617 c-12 -24 -21 -52 -21 -62 0 -16 -4 -15 -29 9 -25 24 -36
28 -75 24 -39 -3 -47 0 -52 16 -6 18 -7 18 -16 2 -6 -10 -7 -33 -3 -52 l6 -35
26 21 c14 11 33 20 42 20 25 0 59 -28 87 -71 31 -49 44 -49 44 0 0 80 60 80
109 1 34 -55 51 -63 51 -24 0 29 16 64 30 64 6 0 29 -13 52 -30 22 -16 49 -30
59 -30 9 0 36 16 59 35 23 19 48 35 55 35 7 0 18 -22 25 -50 7 -27 15 -50 19
-50 3 0 18 20 33 45 29 47 71 76 88 59 5 -5 11 -22 15 -39 5 -24 4 -27 -5 -12
-20 32 -56 21 -89 -29 -35 -50 -40 -98 -16 -143 31 -61 77 -46 100 31 8 28 15
62 15 74 0 14 8 25 19 29 11 3 27 25 36 48 9 23 24 50 32 60 23 25 4 21 -24
-5 -13 -12 -23 -16 -23 -9 0 20 -42 111 -51 111 -5 0 -9 -16 -9 -35 0 -28 -4
-35 -19 -35 -10 0 -34 -16 -53 -35 l-34 -35 -13 62 c-17 83 -23 91 -36 44 -9
-30 -24 -48 -67 -78 l-56 -40 -47 36 c-25 20 -50 36 -55 36 -4 0 -11 18 -15
40 -7 44 -19 45 -29 3 -4 -16 -12 -45 -17 -65 l-10 -38 -30 35 c-17 19 -40 35
-50 35 -15 0 -19 7 -19 35 0 47 -14 44 -39 -8z"/>
<path d="M12030 5601 c0 -17 -4 -18 -30 -11 -28 8 -29 7 -19 -13 15 -26 51
-57 61 -50 12 7 10 93 -2 93 -5 0 -10 -9 -10 -19z"/>
<path d="M10798 5568 c-55 -10 -57 -11 -85 -63 -15 -30 -29 -53 -30 -51 -2 2
4 22 12 46 8 23 15 46 15 51 0 5 -28 9 -61 9 l-62 0 6 -142 c8 -179 32 -297
47 -233 7 28 8 27 9 -12 2 -94 92 -300 138 -317 24 -10 25 -4 13 62 -20 110
11 234 115 466 36 79 65 151 65 160 0 28 -31 32 -50 6 l-17 -22 1 23 c1 20 -4
24 -29 25 -16 1 -56 -3 -87 -8z"/>
<path d="M12191 5571 c-9 -6 -11 -18 -6 -42 l7 -34 -35 33 c-19 19 -37 30 -40
25 -3 -4 26 -78 64 -163 38 -85 69 -163 69 -172 0 -9 9 -56 21 -105 21 -87 22
-184 4 -240 -11 -35 18 -29 50 8 51 61 105 195 105 262 0 21 4 28 14 24 23 -9
38 78 43 246 l5 147 -61 0 c-33 0 -61 -2 -61 -4 0 -2 7 -23 15 -46 22 -61 19
-62 -15 -3 -26 46 -34 52 -72 58 -24 3 -54 8 -68 11 -14 2 -31 0 -39 -5z"/>
<path d="M11063 5513 c-25 -38 -23 -204 4 -268 18 -45 43 -61 43 -27 0 25 53
132 84 169 l26 31 -25 38 c-14 20 -25 33 -25 28 0 -5 -8 6 -16 24 -22 42 -65
45 -91 5z"/>
<path d="M11960 5527 c-14 -7 -31 -25 -38 -39 -11 -24 -10 -33 8 -67 28 -55
25 -72 -6 -36 -24 28 -23 26 6 -27 17 -31 39 -80 49 -109 l17 -52 11 29 c48
134 52 170 28 249 -12 42 -28 65 -45 65 -3 0 -16 -6 -30 -13z"/>
<path d="M11253 5494 c-9 -23 3 -145 17 -176 24 -51 71 -43 96 17 21 50 18 70
-18 125 -26 40 -39 50 -61 50 -16 0 -30 -7 -34 -16z"/>
<path d="M11422 5488 c-7 -7 -12 -40 -12 -77 0 -82 23 -135 61 -139 32 -4 49
29 56 109 5 55 4 58 -28 88 -37 33 -58 38 -77 19z"/>
<path d="M11583 5468 c-29 -30 -31 -38 -27 -78 8 -73 13 -89 34 -110 44 -44
84 23 82 137 -1 35 -4 68 -7 73 -12 20 -52 9 -82 -22z"/>
<path d="M12132 5166 c-46 -34 -62 -41 -66 -30 -8 20 -35 17 -93 -10 -107 -52
-188 -169 -215 -311 l-13 -70 -5 100 -5 100 -9 -77 c-15 -135 -24 -154 -26
-58 l-3 85 -12 -85 c-8 -53 -13 -72 -14 -50 -1 19 -6 44 -11 55 -6 15 -9 5 -9
-34 -1 -66 -8 -63 -20 10 l-9 54 -1 -59 c-1 -74 -14 -64 -22 17 l-6 62 -2 -55
c-2 -84 -20 -100 -22 -20 l-2 65 -6 -52 c-9 -71 -21 -78 -22 -12 l-1 54 -9
-54 c-12 -71 -19 -77 -19 -16 0 57 -7 55 -19 -6 l-9 -44 -1 42 c-1 60 -21 65
-22 6 -1 -60 -6 -47 -18 42 l-8 70 -2 -79 c-1 -92 -11 -94 -21 -4 l-7 63 -2
-55 c-2 -74 -20 -104 -22 -35 0 28 -4 73 -9 100 -7 45 -8 40 -10 -50 -3 -85
-4 -93 -10 -50 -6 46 -7 47 -10 15 -2 -19 -2 -71 -1 -115 2 -68 6 -83 24 -97
21 -17 21 -18 2 -18 -20 -1 -20 -1 -1 -15 17 -13 18 -15 2 -21 -15 -6 -15 -7
1 -20 17 -13 17 -13 -1 -14 -20 0 -20 0 0 -15 18 -14 18 -14 -6 -15 -25 -1
-25 -1 5 -18 l30 -17 -25 -3 -24 -4 24 -14 25 -13 -30 -1 -30 -2 30 -13 30
-14 -35 -1 -35 -2 35 -16 35 -16 -30 -4 -30 -4 30 -13 30 -13 -35 -2 -35 -3
38 -10 c43 -12 49 -27 10 -27 l-28 -1 30 -14 30 -13 -35 -2 -35 -2 35 -13 35
-13 -40 -2 c-41 -1 -39 -4 20 -26 17 -6 14 -8 -15 -14 l-35 -6 40 -9 40 -9
-45 -6 -45 -6 43 -9 c58 -11 54 -29 -5 -22 l-48 6 50 -17 50 -17 -40 -4 -40
-4 40 -13 40 -12 -45 -2 -45 -2 44 -14 c66 -21 63 -28 -9 -20 -76 7 -71 -3 18
-34 34 -13 62 -25 62 -27 0 -10 -94 9 -145 28 -66 25 -101 62 -114 122 -13 55
-6 94 39 217 42 114 44 164 7 196 -23 19 -25 24 -10 24 10 0 27 -7 37 -15 11
-8 23 -15 26 -15 4 0 15 44 24 98 10 53 19 105 21 115 2 11 -10 65 -26 120
-60 203 -140 317 -222 317 -26 0 -53 -30 -40 -44 3 -3 2 -6 -3 -6 -6 0 -39 21
-74 47 l-64 46 30 -39 c61 -79 107 -222 128 -394 2 -19 2 26 0 100 -2 74 -7
153 -9 175 l-5 40 21 -45 c50 -107 95 -354 68 -371 -11 -7 -9 -9 6 -9 17 0 17
-2 5 -10 -13 -8 -13 -10 0 -10 19 0 1 -17 -25 -23 -18 -4 -18 -5 3 -6 24 -1
31 -21 7 -21 -18 0 -20 -20 -2 -21 6 0 -1 -7 -18 -14 -29 -14 -29 -14 -5 -15
25 -1 25 -1 5 -16 -16 -13 -17 -17 -6 -21 10 -4 7 -9 -10 -19 -13 -7 -18 -13
-11 -14 20 0 14 -16 -10 -28 -22 -10 -22 -11 -3 -12 20 -1 20 -1 0 -16 -16
-12 -17 -17 -7 -23 11 -7 11 -9 -2 -14 -9 -4 -13 -13 -10 -22 4 -9 -1 -17 -11
-21 -13 -5 -14 -8 -3 -15 10 -6 9 -11 -7 -23 -13 -10 -15 -15 -6 -16 11 0 11
-3 1 -15 -10 -12 -10 -15 0 -15 9 0 7 -7 -5 -20 -12 -13 -14 -20 -5 -20 7 0
10 -7 6 -15 -3 -8 0 -15 6 -15 7 0 7 -4 -1 -14 -9 -11 -9 -15 1 -18 10 -4 10
-9 2 -19 -14 -19 -17 -72 -3 -63 8 4 9 -1 4 -16 -6 -19 -4 -22 9 -17 14 6 16
3 10 -15 -5 -17 -3 -20 11 -14 13 4 16 2 11 -9 -3 -9 0 -15 9 -15 8 0 15 -7
15 -15 0 -9 6 -12 15 -9 11 5 13 2 9 -11 -6 -14 -3 -16 14 -11 18 6 21 4 15
-10 -5 -13 -3 -16 10 -11 11 4 17 1 17 -8 0 -18 12 -19 29 -2 11 10 12 8 6
-10 -7 -25 4 -30 23 -11 9 9 12 7 12 -11 0 -20 2 -21 15 -11 12 10 15 10 15
-4 0 -21 9 -20 26 2 12 16 13 15 14 -7 0 -23 1 -24 20 -6 19 18 20 17 20 -5 0
-23 0 -23 22 -4 12 10 18 13 14 7 -15 -26 6 -36 24 -12 l18 23 -5 -27 c-6 -31
4 -35 23 -9 13 16 13 16 14 0 0 -10 4 -18 10 -18 5 0 14 8 19 18 10 16 10 16
11 0 0 -25 14 -22 33 5 l16 22 0 -22 c1 -28 21 -31 21 -3 0 11 4 20 9 20 5 0
13 -9 16 -20 9 -27 25 -25 26 3 l0 22 11 -22 c6 -13 15 -23 20 -23 4 0 8 10 8
23 1 20 2 21 14 5 18 -24 26 -23 26 5 1 20 2 21 14 5 7 -10 16 -18 20 -18 3 0
6 8 6 18 1 16 2 16 14 -1 16 -21 29 -8 19 20 -6 17 -5 17 15 -1 22 -19 22 -19
22 5 1 22 2 23 14 7 18 -24 30 -23 23 2 -6 23 3 26 21 8 9 -9 12 -8 12 6 0 12
5 16 15 12 9 -3 15 0 15 9 0 9 6 12 15 9 9 -4 15 0 15 10 0 10 6 13 15 10 9
-4 15 0 15 10 0 10 5 13 17 9 12 -5 15 -2 10 10 -4 12 -1 17 9 17 11 0 14 5
10 16 -5 12 -2 15 10 10 13 -5 15 -2 11 13 -3 14 -1 18 9 14 18 -7 18 -7 -12
-58 -49 -85 -134 -139 -264 -170 -41 -10 -79 -22 -85 -27 -6 -6 -1 -8 15 -4
14 3 59 8 100 11 94 8 159 36 208 89 43 47 76 138 70 191 -2 19 0 35 5 35 5 0
7 7 3 15 -3 8 -1 15 5 15 6 0 6 7 -1 20 -6 11 -7 20 -2 20 10 0 10 41 -1 58
-5 7 -3 12 4 12 8 0 9 3 0 13 -6 8 -8 17 -4 20 3 4 0 13 -7 22 -10 12 -9 15 6
15 17 1 16 3 -5 20 -19 17 -20 20 -6 20 13 0 15 3 6 13 -6 8 -7 17 -3 21 4 4
-2 14 -12 22 -11 8 -14 14 -8 14 21 0 13 18 -10 26 -22 7 -22 7 -3 14 18 6 17
8 -10 24 -22 12 -24 15 -7 11 12 -4 22 -2 22 3 0 5 -10 14 -22 20 -18 8 -19
11 -5 11 28 1 20 17 -15 29 -30 10 -30 11 -5 8 33 -4 35 7 5 22 -18 8 -19 11
-5 11 9 1 17 6 17 11 0 6 -8 10 -17 10 -15 0 -16 2 -3 10 13 9 13 11 0 20 -11
7 -12 10 -2 10 9 0 11 7 7 21 -4 12 -8 28 -9 37 -2 8 -11 21 -21 28 -15 11
-17 22 -11 83 4 39 13 90 21 113 l13 43 1 -76 c1 -76 26 -238 39 -251 4 -4 7
61 7 145 0 145 1 156 30 230 18 48 49 103 78 139 27 33 47 62 44 64 -2 3 -31
-16 -65 -40z m-343 -637 l12 -56 36 18 c45 23 55 17 20 -12 -38 -29 -35 -70
13 -209 22 -64 40 -134 40 -158 0 -96 -52 -149 -174 -177 -79 -18 -123 -15
-56 4 49 14 124 50 118 56 -2 3 -21 0 -42 -6 -20 -6 -51 -9 -69 -7 -31 3 -30
4 18 20 l50 16 -45 2 -45 2 40 13 40 13 -40 3 -40 4 50 17 50 17 -47 -6 c-60
-7 -64 11 -5 22 l42 9 -45 6 -45 6 40 9 40 9 -35 6 c-29 6 -32 8 -15 14 59 22
61 25 20 26 l-40 2 35 13 35 13 -35 2 -35 2 30 13 30 14 -27 1 c-40 0 -34 15
10 27 l37 10 -35 3 -35 2 30 13 30 13 -30 4 -30 4 35 16 35 16 -35 2 -35 1 30
14 30 13 -30 2 -30 1 25 13 24 14 -24 4 -25 3 30 17 c30 17 30 17 5 18 -24 1
-24 1 -6 15 20 15 20 15 0 15 -18 1 -18 1 -1 14 16 13 16 14 1 20 -16 6 -15 8
2 21 19 14 19 14 -1 15 -19 1 -19 2 3 17 18 13 22 25 22 73 0 81 13 83 26 3 6
-37 16 -93 23 -124z"/>
<path d="M10251 4554 c0 -11 3 -14 6 -6 3 7 2 16 -1 19 -3 4 -6 -2 -5 -13z"/>
<path d="M10975 4013 c14 -97 58 -175 119 -212 37 -23 132 -45 230 -54 80 -8
60 5 -48 31 -51 12 -112 35 -142 53 -64 39 -121 112 -141 179 -18 63 -27 64
-18 3z"/>
<path d="M11253 3697 c-49 -43 -89 -64 -136 -72 -48 -8 -44 -28 7 -36 20 -3
50 -18 66 -34 33 -31 60 -28 61 7 0 22 1 22 9 3 5 -14 2 -26 -11 -41 -27 -29
-24 -35 9 -18 44 23 90 13 119 -25 9 -12 12 -12 13 -3 0 7 14 42 31 77 37 78
38 138 1 143 -16 3 -27 -5 -40 -28 -9 -18 -27 -47 -39 -65 -12 -19 -19 -35
-17 -38 3 -2 -6 -7 -20 -9 l-26 -5 28 31 c15 18 34 46 41 64 12 28 11 35 -3
57 -22 34 -49 31 -93 -8z"/>
<path d="M11748 3719 c-27 -15 -22 -59 12 -112 22 -35 26 -47 15 -47 -8 0 -15
6 -15 14 0 7 -7 19 -15 26 -8 7 -24 32 -35 56 -15 35 -24 44 -43 44 -46 0 -49
-50 -7 -138 17 -35 30 -71 30 -80 0 -12 4 -11 23 6 33 31 81 38 113 17 33 -22
39 -15 14 18 -11 14 -20 31 -19 39 0 7 5 3 11 -9 14 -30 35 -29 64 2 12 13 35
27 51 30 15 4 37 10 48 15 19 7 18 9 -8 19 -16 6 -37 11 -48 11 -23 0 -95 47
-121 79 -19 23 -43 26 -70 10z"/>
<path d="M11465 3633 c-9 -32 -25 -71 -35 -88 -10 -16 -18 -46 -17 -66 1 -27
-7 -47 -29 -74 -49 -63 -50 -65 -35 -74 22 -14 83 -20 126 -13 l40 7 3 74 c3
82 -4 98 -51 104 l-32 4 36 1 c19 1 40 -3 46 -9 17 -17 20 -1 15 99 -4 89 -5
92 -27 92 -20 0 -26 -9 -40 -57z"/>
<path d="M11556 3681 c-3 -5 -6 -50 -5 -100 1 -85 2 -90 19 -81 22 12 77 13
84 2 2 -4 -13 -6 -35 -4 -45 5 -45 5 -53 -95 -5 -72 -5 -73 22 -80 39 -11 116
-7 142 7 l22 12 -26 27 c-34 35 -67 104 -54 112 6 4 -1 29 -18 65 -15 32 -33
76 -39 98 -12 40 -45 61 -59 37z"/>
<path d="M11724 3476 c-8 -33 43 -137 76 -154 32 -16 147 -9 187 12 26 13 27
15 8 21 -86 28 -133 62 -160 115 -14 26 -21 30 -60 30 -39 0 -45 -3 -51 -24z"/>
<path d="M13630 3945 l0 -647 108 4 c126 4 163 18 234 91 115 117 178 350 165
612 -14 271 -104 471 -248 550 -48 26 -66 30 -156 33 l-103 4 0 -647z"/>
<path d="M17860 4305 l0 -295 52 0 c73 0 133 31 169 89 40 62 52 111 51 211
-1 192 -74 290 -215 290 l-57 0 0 -295z"/>
<path d="M11215 1755 c-22 -49 -41 -92 -43 -97 -2 -4 35 -8 82 -8 47 0 86 3
85 8 0 4 -19 47 -42 96 l-42 89 -40 -88z"/>
<path d="M12055 1130 c-24 -27 -32 -158 -13 -215 16 -50 46 -54 67 -10 19 39
19 170 0 209 -18 38 -31 41 -54 16z"/>
<path d="M12645 1130 c-24 -27 -32 -158 -13 -215 16 -50 46 -54 67 -10 19 39
19 170 0 209 -18 38 -31 41 -54 16z"/>
</g>
</svg>
