<?xml version="1.0" encoding="UTF-8" standalone="no"?>
<svg
   xmlns:dc="http://purl.org/dc/elements/1.1/"
   xmlns:cc="http://creativecommons.org/ns#"
   xmlns:rdf="http://www.w3.org/1999/02/22-rdf-syntax-ns#"
   xmlns:svg="http://www.w3.org/2000/svg"
   xmlns="http://www.w3.org/2000/svg"
   xmlns:sodipodi="http://sodipodi.sourceforge.net/DTD/sodipodi-0.dtd"
   xmlns:inkscape="http://www.inkscape.org/namespaces/inkscape"
   version="1.0"
   width="883.35614pt"
   height="460.42282pt"
   viewBox="0 0 883.35614 460.42282"
   preserveAspectRatio="xMidYMid meet"
   id="svg690"
   sodipodi:docname="WhatsApp-Image-2021-01-26-at-20.53.44.svg"
   inkscape:version="1.0.2 (e86c870879, 2021-01-15, custom)">
  <metadata
     id="metadata696">
    <rdf:RDF>
      <cc:Work
         rdf:about="">
        <dc:format>image/svg+xml</dc:format>
        <dc:type
           rdf:resource="http://purl.org/dc/dcmitype/StillImage" />
        <dc:title></dc:title>
      </cc:Work>
    </rdf:RDF>
  </metadata>
  <defs
     id="defs694" />
  <sodipodi:namedview
     pagecolor="#ffffff"
     bordercolor="#666666"
     borderopacity="1"
     objecttolerance="10"
     gridtolerance="10"
     guidetolerance="10"
     inkscape:pageopacity="0"
     inkscape:pageshadow="2"
     inkscape:window-width="1920"
     inkscape:window-height="1017"
     id="namedview692"
     showgrid="false"
     inkscape:snap-global="false"
     fit-margin-top="0"
     fit-margin-left="0"
     fit-margin-right="0"
     fit-margin-bottom="0"
     inkscape:zoom="0.16839142"
     inkscape:cx="-2400.7095"
     inkscape:cy="-49.645305"
     inkscape:window-x="-8"
     inkscape:window-y="-8"
     inkscape:window-maximized="1"
     inkscape:current-layer="g688" />
  <g
     transform="matrix(0.1,0,0,-0.1,-0.4047583,1268.6868)"
     fill="#000000"
     stroke="none"
     id="g688">
    <path
       d="m 3952.6086,12681.102 c -336,-48 -621,-200 -705,-375 -28,-59 -54,-135 -80,-232 -7,-28 -17,-44 -31,-48 -12,-4 -29,-14 -38,-23 -10,-10 -26,-21 -35,-27 -11,-6 -23,-35 -31,-75 -24,-108 -21,-128 26,-172 l 41,-39 -13,-112 c -12,-101 -16,-114 -44,-147 -17,-19 -38,-46 -47,-60 -23,-37 -60,-174 -67,-247 l -6,-62 -80,32 c -47,19 -125,64 -185,107 -58,40 -122,85 -142,99 l -38,25 v 178 c 0,152 -2,178 -15,178 -13,0 -15,-26 -15,-175 0,-156 -2,-179 -19,-203 -10,-15 -31,-49 -45,-75 -18,-31 -46,-60 -80,-83 -29,-19 -62,-48 -74,-64 -12,-16 -82,-69 -156,-119 -149,-99 -190,-113 -278,-92 -108,25 -196,4 -286,-68 -20,-17 -71,-47 -112,-69 -71,-36 -75,-40 -72,-69 3,-27 -5,-40 -50,-85 -61,-60 -314,-268 -327,-268 -5,0 -52,20 -106.00004,45 l -97,45 -34,-21 c -54,-33 -217,-236 -299,-372 -75,-123.9997 -210,-298.9997 -344,-445.9997 -40.000004,-45 -69.00000378,-81 -64.0000038,-81 12.9999998,0 185.0000038,139 286.0000038,231 81,75 91,89 137,187 75,158.9997 98,199.9997 158,275.9997 70,87 115,110 212,104 62,-3 82.00004,-11 228.00004,-86 88,-45 163,-82 168,-82 16,0 -34,43 -118,101 l -88,60 82,78 c 46,42 133,124 193,180 61,57 120,110 132,118 15,10 48,15 102,14 75,-1 81,1 101,26 21,27 23,55 6,95 -12,26 71,35 136,14 66,-21 85,-20 152,5 l 56,22 37,-26 c 21,-14 55,-33 76,-42 33,-14 40,-14 67,0 35,18 79,19 100,2 9,-7 22,-27 29,-44 7,-18 20,-33 28,-33 7,0 -35,-53 -94,-119 -109,-119 -181,-211 -166,-211 4,1 19,7 33,15 44,25 43,16 -13,-62 -217,-310.9997 -297,-441.9997 -378,-621.9997 l -74,-164 -77,162 -77,161 h -61 c -33,0 -60,-3 -60,-6 0,-3 18,-42 39,-87 21,-45 66,-140 100,-210 l 61,-128 v -150 -149 h 59 60 l 3,173 3,172 90,190 c 89,186 177,332 306,506.9997 35,47 71,96 79,108 8,13 20,28 25,34 6,6 26,31 45,56 93,121 261,329 271,336 6,3 22,31 36,62 13,30 39,72 57,93 23,28 38,62 55,128 l 23,89 -31,46 c -17,25 -36,48 -42,52 -6,3 -27,-5 -47,-20 -20,-14 -38,-23 -40,-21 -3,2 -1,24 2,48 7,43 8,45 48,50 53,7 82,-5 128,-52 20,-21 50,-41 66,-45 16,-4 79,-32 140,-62 l 111,-54 -18,-67 c -13,-47 -19,-101 -19,-174 v -106 l -52,-6 c -28,-4 -56,-12 -62,-18 -8,-9 -6,-10 9,-4 11,4 75,10 143,13 68,2 121,7 118,9 -10,10 23,59 70,103 37,35 42,38 20,11 -29,-36 -66,-104 -66,-121 0,-5 17,-10 38,-10 20,0 109,-16 197,-36 88,-20 172,-38 188,-41 18,-4 27,-11 27,-24 0,-24 1,-24 -84,7 -111,40 -430,102 -389,76 10,-6 10,-17 3,-42 -6,-19 -10,-48 -9,-65 1,-29 1,-28 14,10 l 13,40 2,-55 c 1,-30 6,-66 10,-80 6,-20 8,-13 9,30 1,30 8,69 15,85 12,27 13,24 8,-42 -2,-39 -1,-93 4,-120 l 8,-48 7,70 c 11,101 29,141 22,50 -3,-38 0,-90 6,-115 8,-36 7,-48 -4,-60 -18,-17 -22,-13 -71,65 -20,33 -33,51 -30,40 9,-26 18,-125 10,-105 -32,73 -97,199 -106,202 -11,4 -38,99 -38,135 0,19 -5,23 -32,22 -18,-1 -25,-3 -16,-6 9,-2 20,-18 23,-36 15,-74 49,-159 91,-227 25,-41 48,-87 51,-103 4,-22 10,-27 24,-24 29,8 32,-10 5,-28 -23,-16 -76,-84 -76,-99 0,-4 24,13 54,38 29,25 58,46 63,46 20,0 440,-424.9997 453,-456.9997 7,-18 18,-33 25,-33 9,0 14,-36 17,-139 l 3,-138 47,-94 c 73,-146 88,-187 88,-236 0,-40 2,-45 20,-40 15,4 22,-1 26,-19 3,-13 28,-42 55,-65 27,-22 54,-55 61,-75 12,-35 34,-45 44,-19 5,12 15,9 50,-16 25,-17 72,-40 106,-51 41,-14 62,-27 66,-40 4,-17 11,-19 46,-14 23,4 57,17 76,30 19,12 49,26 65,30 17,4 47,18 68,32 25,16 45,22 61,18 19,-4 25,-1 30,21 4,15 29,51 56,79 35,37 66,87 106,172 31,65 71,148 89,184 42,84 55,147 55,275 0,98 1,103 20,98 16,-4 20,0 20,19 0,35 44,91 141,184 46,43 134,127.9997 196,188.9997 l 112,110 28,-19 c 15,-11 45,-35 65,-54 31,-30 36,-32 31,-13 -3,12 -25,44 -49,70 -48,53 -52,61 -29,61 8,0 15,8 15,17 0,10 22,54 49,98 26,44 61,112 76,151 24,65 31,73 72,93 l 45,22 90,-62 c 49,-33 92,-59 94,-56 4,4 -111,113 -201,191 l -30,25 68,133 c 44,87 68,144 68,166 -1,25 3,32 19,32 24,0 42,-26 76,-111 21,-51 44,-83 118,-159 51,-52 136,-149 188,-215 133,-167 213,-255 286,-315 34,-29 62,-55 62,-59 0,-12 -29,-34 -83,-65 -27,-15 -47,-30 -44,-32 2,-3 100,31 218,76 117,44 220,80 227,80 8,0 51,-37 96,-83 124,-127 251,-192.9997 400,-205.9997 87,-8 116,-20 169,-69 53,-50 60,-95 65,-454 l 4,-328 h 59 59 v 384 c 0,374 -1,384 -21,410 -28,36 -56,48 -179,81 -316,82.9997 -389,116.9997 -534,243.9997 -63,56 -123,101 -132,101 -10,0 -50,-19 -88,-42 -58,-34 -80,-42 -121,-42 -70,0 -107,18 -157,77 -23,29 -88,99 -144,157 -299,313 -379,401 -411,462 -89,164 -135,223 -169,216 -10,-2 -50,-48 -88,-102 l -70,-99 -17,39 c -16,39 -16,39 9,66 23,25 25,32 19,96 -7,85 -47,188 -96,244 -36,42 -38,46 -50,167 l -13,124 35,31 c 19,17 38,40 41,50 11,34 -15,177 -35,195 -47,41 -56,47 -81,58 -20,9 -28,21 -33,55 -10,59 -51,171 -88,241 -41,79 -125,152 -244,215 -123,64 -183,86 -319,118 -101,24 -129,27 -384,29 -151,2 -302,0 -335,-5 z m 586,-26 c 166,-22 271,-53 416,-124 158,-78 219,-133 273,-244 37,-78 80,-215 80,-256 0,-15 7,-20 24,-20 14,0 28,-5 32,-11 4,-7 -4,-10 -22,-7 l -29,3 3,-55 c 5,-79 10,-93 34,-87 26,7 48,-2 48,-19 0,-19 -24,-17 -105,11 -60,20 -70,27 -73,49 -3,24 -1,25 27,20 26,-6 31,-3 37,20 3,15 4,30 0,33 -3,4 -6,-3 -6,-15 0,-26 -28,-30 -37,-6 -4,11 1,23 13,32 18,13 17,14 -8,10 -19,-4 -28,-1 -28,8 0,9 12,14 35,14 27,0 35,4 35,18 0,23 -30,113 -43,130 -5,6 -6,12 -1,12 5,0 1,5 -8,11 -10,5 -18,15 -18,21 0,6 -8,17 -17,25 -17,13 -16,14 5,10 34,-8 26,2 -20,23 -36,16 -38,19 -13,14 l 30,-5 -27,16 c -34,19 -35,25 -5,19 16,-4 12,1 -13,16 -28,17 -30,20 -10,15 24,-6 24,-5 4,7 -12,7 -19,18 -17,24 2,6 -7,16 -19,22 l -23,12 25,-5 c 14,-3 6,4 -17,15 -24,10 -43,24 -43,29 0,16 -136,91 -224,123 -138,51 -290,77 -486,84 -305,11 -544,-22 -728,-100 -90,-37 -182,-92 -182,-108 0,-5 -4,-6 -10,-3 -5,3 -10,2 -10,-3 0,-4 -15,-16 -32,-25 -27,-14 -28,-16 -8,-12 25,6 25,5 -2,-10 -34,-19 -36,-29 -5,-20 14,3 9,-2 -13,-15 -28,-17 -30,-20 -10,-15 l 25,6 -25,-15 c -14,-8 -23,-17 -20,-20 3,-3 -4,-12 -15,-21 -19,-16 -19,-16 10,-11 23,4 18,0 -20,-19 -34,-16 -41,-22 -21,-18 20,4 27,3 22,-6 -4,-6 -13,-11 -21,-11 -8,0 -17,-5 -21,-12 -5,-7 -3,-8 7,-3 10,6 10,3 -2,-11 -19,-23 -56,-110 -63,-147 -4,-22 -1,-27 15,-27 13,0 19,7 19,23 0,34 44,119 78,151 17,16 29,33 26,37 -2,4 1,11 7,15 8,4 9,3 5,-4 -9,-14 -1,-15 23,-3 28,15 25,-32 -4,-59 -16,-15 -21,-26 -15,-30 7,-4 5,-12 -6,-21 -16,-12 -17,-12 -9,1 8,13 7,13 -8,1 -18,-14 -24,-26 -8,-17 11,7 20,-62 14,-98 -3,-15 -12,-26 -22,-26 -14,-1 -14,-2 2,-11 12,-7 17,-22 16,-52 -1,-39 -2,-40 -8,-12 l -7,30 -7,-39 c -13,-77 40,-136 139,-156 39,-7 51,-6 60,6 13,16 79,20 69,4 -4,-6 13,-10 44,-10 38,0 51,4 51,15 0,9 14,16 38,20 222,38 358,193 294,338 -30,67 -58,81 -171,87 -57,3 -95,9 -93,15 1,6 -12,13 -30,16 -18,4 27,7 101,8 126,1 137,-1 176,-24 57,-33 77,-66 82,-139 7,-83 -21,-148 -93,-216 -96,-91 -225,-132 -419,-134 -123,-1 -169,10 -219,55 l -33,28 -11,-23 c -12,-27 -6,-37 31,-53 15,-7 27,-17 27,-23 0,-6 -6,-8 -12,-5 -7,4 -4,-1 7,-10 26,-22 116,-65 135,-65 12,1 11,3 -2,11 -19,11 -25,39 -8,39 5,0 7,-6 4,-14 -3,-9 3,-13 23,-13 15,0 43,-2 61,-4 30,-3 31,-5 16,-16 -15,-11 -9,-13 42,-13 h 60 l -4,35 c -4,29 -1,35 15,35 36,0 176,41 227,67 71,35 134,88 167,142 16,25 29,41 29,35 0,-5 -7,-19 -15,-31 -10,-15 -12,-24 -4,-28 5,-4 11,-5 12,-4 2,2 10,21 20,42 15,33 15,37 1,37 -12,0 -15,6 -10,23 3,12 6,45 7,72 1,28 3,42 6,33 2,-10 9,-18 14,-18 7,0 7,29 0,69 -1,2 -7,-1 -14,-7 -10,-8 -16,-3 -26,20 -8,16 -31,42 -52,57 -21,14 -38,32 -39,39 0,16 0,16 53,-14 89,-49 115,-103 103,-215 -7,-69 -50,-161 -103,-220 -52,-57 -163,-127 -232,-145 -187,-49 -349,-45 -463,12 -50,26 -83,63 -117,133 -23,50 -25,54 -13,47 4,-2 14,-1 22,5 22,13 -17,10 -60,-5 -29,-11 -31,-13 -14,-18 18,-5 21,-13 20,-52 -1,-25 2,-46 6,-46 18,0 6,-19 -14,-23 -20,-4 -19,-4 5,-6 30,-1 37,-17 10,-24 -14,-4 -12,-5 5,-6 26,-1 30,-18 5,-24 -14,-4 -12,-5 5,-6 34,-2 26,-19 -10,-24 -29,-3 -27,-4 10,-5 57,-3 53,-20 -5,-25 -46,-3 -46,-3 11,-5 66,-2 68,-12 3,-23 -38,-6 -39,-7 -9,-8 47,-2 39,-21 -10,-23 -40,-1 -40,-1 -8,-5 19,-2 46,-6 60,-10 20,-6 13,-8 -30,-13 l -55,-6 55,-11 55,-11 -60,-1 c -33,-1 -79,-6 -102,-10 -30,-6 -43,-5 -43,3 1,86 44,332 63,355 10,12 7,13 -20,8 -19,-4 -35,-2 -39,4 -9,15 2,22 35,21 28,-1 30,2 36,46 13,97 13,97 -19,94 -18,-3 -26,0 -22,7 4,6 18,11 30,11 20,0 24,6 30,46 8,61 62,218 93,271 74,127 334,270 568,313 183,33 490,40 686,14 z m -1,-249 c 157,-7 361,-41 455,-77 31,-11 54,-22 53,-24 -2,-1 -39,8 -84,21 -160,46 -353,67 -668,71 -159,2 -292,1 -296,-1 -5,-3 -55,-7 -112,-10 -57,-2 -141,-11 -188,-19 -103,-19 -135,-19 -60,-1 139,35 439,57 660,49 52,-2 160,-6 240,-9 z m -155,-50 c 0,-17 7,-20 46,-21 26,0 54,-4 63,-7 17,-7 22,-46 6,-48 -5,-1 -14,-3 -20,-4 -5,-1 -31,-3 -56,-4 -37,-1 -45,-4 -40,-16 5,-13 -14,-15 -134,-15 -120,0 -139,2 -134,15 5,11 -1,15 -22,15 -63,0 -104,12 -104,30 0,23 25,33 76,31 26,-2 45,3 53,13 10,12 10,16 2,16 -7,0 -9,5 -6,10 4,7 56,10 138,8 124,-3 132,-4 132,-23 z m -395,-12 c 0,-3 -7,-3 -15,1 -12,4 -15,-4 -15,-40 0,-45 -1,-46 -27,-40 -16,3 -54,9 -86,13 -51,5 -58,8 -54,24 4,15 -1,19 -23,19 -22,0 -30,-6 -39,-30 -11,-32 -41,-41 -41,-12 1,35 24,49 95,56 39,4 95,10 125,14 53,7 80,6 80,-5 z m 634,-9 c 3,-8 18,-14 38,-13 l 33,1 -30,9 c -48,14 139,1 239,-17 175,-30 287,-97 333,-201 28,-65 30,-93 4,-93 -13,0 -24,14 -36,46 -10,26 -39,68 -64,94 -37,38 -60,52 -115,69 -37,12 -81,21 -96,21 -43,0 -77,16 -85,39 -4,14 -15,21 -31,21 -24,0 -24,-1 -8,-25 14,-22 15,-25 1,-25 -9,0 -25,14 -37,30 -26,36 -72,43 -63,10 5,-18 0,-20 -35,-20 -23,0 -44,-4 -47,-10 -3,-5 -17,-10 -31,-10 -13,0 -24,-4 -24,-9 0,-5 -11,-12 -24,-15 -18,-4 -23,-11 -19,-26 4,-16 8,-18 19,-9 8,7 17,10 19,7 3,-3 -6,-11 -20,-18 -39,-21 -67,-74 -70,-133 -4,-68 31,-137 95,-185 25,-19 46,-39 46,-43 1,-5 2,-13 3,-19 1,-12 117,-47 201,-60 89,-14 101,-13 94,5 -5,12 3,15 35,15 31,0 41,-4 41,-16 0,-13 7,-15 37,-9 47,8 53,12 48,28 -3,7 9,20 25,29 41,23 60,73 60,155 0,51 -6,81 -25,120 -28,61 -60,84 -151,109 -55,15 -85,37 -70,52 3,2 39,-3 80,-12 98,-22 164,-77 196,-164 41,-108 14,-241 -59,-289 -55,-37 -106,-46 -231,-40 -194,9 -306,53 -403,156 -57,61 -77,108 -77,180 0,69 30,127 80,156 33,19 35,23 32,68 -2,36 -7,47 -20,49 -9,0 6,4 33,7 58,7 71,5 79,-15 z m -1074,1 c -46,-18 -64,-17 -25,0 17,8 37,14 45,14 8,0 -1,-7 -20,-14 z m 1550,-61 c 0,-2 -9,0 -20,6 -11,6 -20,13 -20,16 0,2 9,0 20,-6 11,-6 20,-13 20,-16 z m -620,-26 c -1,-7 -15,-22 -33,-33 -17,-11 -42,-36 -55,-55 -13,-19 -29,-34 -36,-33 -6,2 -12,-5 -12,-15 -1,-9 -3,-24 -5,-32 -2,-8 1,-14 8,-13 7,2 15,-13 18,-35 18,-108 80,-195 177,-247 29,-15 55,-29 56,-31 8,-6 10,-74 3,-74 -21,0 -132,83 -178,133 -60,66 -93,143 -100,234 -5,54 -2,67 20,106 17,29 41,52 71,68 25,13 46,27 46,31 0,5 5,8 10,8 6,0 10,-6 10,-12 z m 310,-2 c 0,-2 3,-11 6,-20 5,-12 -1,-16 -24,-16 -28,0 -48,20 -35,34 7,7 53,8 53,2 z m -1173,-12 c -3,-3 -12,-4 -19,-1 -8,3 -5,6 6,6 11,1 17,-2 13,-5 z m 66,-9 c 1,-5 -6,-11 -15,-13 -11,-2 -18,3 -18,13 0,17 30,18 33,0 z m 1198,-1 c 11,-14 10,-15 -11,-12 -13,1 -25,9 -28,16 -5,17 23,15 39,-4 z m -1381,-44 c -8,-5 -19,-10 -25,-10 -5,0 -3,5 5,10 8,5 20,10 25,10 6,0 3,-5 -5,-10 z m 480,-45 c 25,-24 30,-36 30,-77 0,-27 -6,-63 -13,-81 -32,-76 -157,-159 -261,-173 l -48,-7 5,29 c 3,16 14,88 23,159 9,72 21,135 26,142 6,7 40,14 76,16 50,2 40,4 -38,5 -103,2 -105,1 -106,-20 -1,-13 -16,-96 -34,-185 l -33,-163 h -28 c -16,0 -29,2 -29,4 0,13 53,249 66,294 9,30 13,56 10,59 -2,3 -39,-2 -80,-12 -85,-18 -108,-38 -127,-109 -11,-41 -8,-144 5,-181 5,-13 2,-11 -8,5 -21,34 -21,157 0,210 28,71 83,94 259,110 50,5 132,7 182,6 87,-2 94,-4 123,-31 z m 940,13 c 84,-14 135,-40 156,-80 25,-49 31,-176 9,-222 -37,-77 -43,-72 -140,125 -84,169 -90,179 -117,179 -15,0 -28,-4 -28,-9 0,-5 13,-38 30,-73 16,-34 30,-71 30,-80 0,-10 5,-18 10,-18 6,0 10,-6 10,-14 0,-8 13,-47 30,-87 16,-41 30,-78 30,-82 0,-5 -14,-7 -32,-5 -31,3 -33,7 -61,91 -18,53 -35,87 -43,87 -8,0 -33,-17 -56,-37 l -43,-37 40,42 c 24,26 48,42 62,42 14,0 23,6 23,16 0,10 -6,14 -14,11 -9,-4 -22,18 -42,71 l -29,77 -63,8 c -35,5 -79,6 -97,3 -41,-8 -85,-42 -69,-53 9,-6 54,-180 54,-208 0,-14 -24,11 -51,53 -23,37 -29,57 -29,102 0,65 17,95 63,110 38,11 272,4 367,-12 z m -1755,-220 c -4,-29 -11,-57 -16,-62 -11,-12 -11,4 0,61 6,29 5,44 -3,47 -6,2 -3,5 7,5 17,1 18,-4 12,-51 z m 2189,46 c -7,-3 -8,-21 -3,-52 4,-26 5,-49 3,-51 -8,-9 -15,8 -23,58 -8,48 -7,51 13,50 12,0 16,-3 10,-5 z m -2262,-13 c -8,-5 -18,-24 -22,-42 l -8,-34 -1,31 c -1,30 14,54 34,54 5,0 4,-4 -3,-9 z m 2346,-48 c 23,-109 23,-117 2,-148 -11,-16 -20,-25 -20,-18 0,6 5,15 10,18 21,13 11,63 -17,84 -19,13 -23,20 -12,21 8,0 21,-6 28,-12 10,-11 11,-7 6,17 -4,17 -11,42 -15,58 -5,15 -5,27 0,27 4,0 13,-21 18,-47 z m -1256,-46 c -31,-68 -76,-124 -126,-160 -17,-12 -3,6 30,39 46,46 68,79 90,132 16,39 31,67 32,61 2,-5 -9,-38 -26,-72 z m -1102,-7 c 8,5 24,9 35,9 l 20,-1 -20,-5 c -55,-14 -73,-75 -32,-114 12,-12 16,-20 8,-17 -8,2 -23,16 -34,30 -15,20 -17,34 -11,74 4,30 9,42 13,32 4,-13 10,-15 21,-8 z m 2159,-19 c 21,-13 -13,-93 -66,-151 -41,-46 -129,-100 -162,-100 -9,0 8,11 37,25 61,28 112,62 112,75 0,4 -25,-5 -56,-22 -30,-17 -57,-28 -60,-25 -3,2 9,10 26,17 34,14 34,14 20,39 -7,15 -1,24 36,49 24,18 52,48 61,67 17,36 28,41 52,26 z m -833,-80 c 45,-49 50,-58 23,-38 -19,15 -50,48 -69,74 -37,53 -37,54 46,-36 z m -1021,49 c 10,-11 16,-20 13,-20 -3,0 -13,9 -23,20 -10,11 -16,20 -13,20 3,0 13,-9 23,-20 z m 1970,-12 c 7,-32 46,-341 43,-342 -2,-1 -32,6 -68,15 -58,16 -61,18 -30,20 l 35,2 -35,6 c -31,6 -32,8 -13,14 12,4 34,5 50,2 23,-4 24,-4 8,4 -11,5 -31,11 -45,12 -20,1 -18,3 10,8 l 35,7 -45,11 -45,11 50,2 c 38,1 45,4 30,10 -11,5 -38,10 -60,11 -37,2 -36,3 15,9 l 55,6 -43,8 c -56,11 -63,24 -9,19 31,-3 38,-1 27,6 -8,6 -25,11 -37,11 -12,0 -25,5 -29,12 -5,8 7,10 47,5 33,-3 46,-2 34,3 -11,5 -30,9 -42,9 -13,1 -23,6 -23,12 0,7 13,9 38,5 l 37,-5 -35,16 c -35,16 -35,16 -10,23 l 25,6 -25,8 -25,9 30,4 30,5 -30,13 c -29,13 -29,13 -5,15 l 25,1 -25,14 -25,14 37,1 c 31,0 39,-4 43,-22 z m -2067,-120 c 28,-45 79,-92 126,-117 45,-23 139,-45 167,-38 10,3 23,-1 30,-9 6,-8 14,-12 18,-10 3,2 35,7 70,10 35,4 67,9 72,11 7,5 160,51 190,57 17,4 47,26 80,61 15,15 29,22 31,16 2,-6 16,-1 33,13 16,13 30,21 30,18 1,-9 51,35 63,55 11,20 11,20 12,-2 0,-12 5,-25 10,-28 6,-3 10,-1 10,4 0,6 18,10 40,9 22,-1 40,-4 40,-8 0,-4 25,-19 55,-35 30,-15 55,-32 55,-39 0,-6 5,-4 10,4 6,10 10,11 10,3 0,-17 80,-57 105,-54 12,1 30,-9 43,-24 12,-14 31,-25 43,-25 11,0 30,-5 41,-11 21,-11 31,-13 136,-25 55,-6 62,-5 62,11 0,14 3,15 15,5 31,-26 158,3 231,53 61,41 99,89 125,157 15,41 19,46 14,21 -8,-54 -48,-133 -85,-169 -40,-41 -109,-76 -175,-90 -66,-14 -214,-15 -290,-1 -64,11 -145,39 -145,51 0,4 -6,5 -12,3 -7,-3 -29,5 -49,18 -211,129 -189,119 -255,114 -62,-5 -162,-49 -207,-91 -23,-21 -128,-71 -172,-80 -16,-3 -41,-9 -55,-12 -45,-11 -244,-14 -296,-4 -144,25 -250,127 -268,255 l -6,40 14,-42 c 7,-23 23,-56 34,-75 z m 1400,31 c -29,-17 -21,-27 24,-27 22,-1 44,-6 48,-13 10,-15 32,-1 24,14 -5,9 -4,9 5,1 10,-9 10,-17 2,-33 -11,-20 -10,-21 59,-21 66,0 70,1 55,16 -24,24 -13,39 31,40 32,1 34,1 7,-3 -19,-2 -33,-10 -33,-18 0,-11 7,-11 35,-4 20,6 45,7 57,3 l 22,-7 -23,-18 c -46,-37 -280,-19 -361,27 -23,13 -23,14 -2,9 17,-5 22,-2 22,13 0,23 8,32 29,32 14,-1 13,-2 -1,-11 z m 49,-5 c -3,-3 -12,-4 -19,-1 -8,3 -5,6 6,6 11,1 17,-2 13,-5 z m -1137,-22 c 0,-4 -16,-6 -35,-4 -19,2 -35,6 -35,8 0,2 16,4 35,4 19,0 35,-4 35,-8 z m 400,-12 c -14,-11 -29,-20 -35,-20 -5,0 4,9 20,20 38,25 48,25 15,0 z m 560,-26 c 0,-2 -13,2 -30,11 -16,9 -30,18 -30,21 0,2 14,-2 30,-11 17,-9 30,-18 30,-21 z m 418,-61 c -10,-2 -26,-2 -35,0 -10,3 -2,5 17,5 19,0 27,-2 18,-5 z m -81,-9 c -3,-3 -12,-4 -19,-1 -8,3 -5,6 6,6 11,1 17,-2 13,-5 z m -1467,-154 c 179,-31 370,-40 825,-40 456,1 647,10 813,40 59,11 150,23 202,26 89,6 97,5 130,-17 69,-47 148,-261 121,-331 -10,-26 -38,-48 -62,-48 -8,0 -7,5 3,18 25,29 29,68 14,142 -17,79 -48,149 -81,180 -35,33 -102,34 -335,6 -282,-34 -498,-46 -815,-46 -355,0 -598,16 -963,65 -62,8 -125,12 -140,9 -56,-13 -93,-73 -133,-214 -23,-79 -24,-109 -4,-137 14,-20 13,-21 -6,-16 -38,10 -45,46 -27,135 22,103 72,205 118,236 33,23 41,24 130,18 52,-3 147,-15 210,-26 z m -50,-54 c 78,-11 86,-14 45,-15 -27,0 -79,4 -115,10 -109,18 -138,15 -170,-16 -16,-16 -35,-44 -41,-62 -6,-19 -13,-32 -16,-29 -11,10 31,98 56,118 29,22 47,22 241,-6 z m 1956,4 c 24,-15 39,-36 53,-76 31,-82 25,-98 -10,-26 -42,85 -70,106 -134,98 -27,-3 -90,-10 -140,-15 -49,-5 -141,-15 -204,-21 -370,-38 -1103,-32 -1371,10 -48,8 -45,9 30,5 345,-18 682,-26 895,-20 280,7 599,29 720,49 111,19 123,19 161,-4 z m -1960,-55 c -19,-14 -18,-15 10,-15 h 29 l -32,-20 c -17,-10 -37,-28 -43,-39 -19,-36 27,-37 94,-2 57,31 117,40 145,22 8,-5 -8,-10 -45,-13 -43,-3 -71,-12 -101,-32 -36,-24 -50,-28 -89,-23 -25,2 -49,9 -54,13 -11,12 48,100 74,113 30,14 34,13 12,-4 z m 1830,-46 38,-52 -23,-18 c -37,-30 -103,-25 -169,13 -30,17 -69,34 -86,39 l -31,7 30,1 c 17,1 59,-13 93,-29 75,-35 81,-36 58,-11 -17,19 -17,19 21,0 46,-23 92,-16 70,10 -13,14 -47,79 -47,88 0,10 12,-2 46,-48 z m -1531,2 c 22,-10 55,-31 74,-46 l 33,-29 -7,35 c -7,33 -6,33 25,-16 18,-27 48,-67 68,-87 67,-70 3,-38 -112,56 -63,51 -102,73 -161,92 l -40,13 h 40 c 22,0 58,-8 80,-18 z m 315,-44 c 0,-26 -4,-21 -24,28 l -16,40 20,-24 c 11,-13 20,-32 20,-44 z m 35,40 c 20,-32 30,-83 16,-91 -6,-4 -11,0 -11,11 0,10 -9,37 -20,61 -20,45 -11,58 15,19 z m 55,-9 c 31,-52 34,-90 11,-142 -11,-25 -24,-46 -30,-46 -5,0 -3,12 5,28 19,38 17,99 -6,150 -22,49 -9,56 20,10 z m 361,-1 c -31,-51 -36,-105 -12,-151 19,-37 19,-38 0,-20 -46,41 -45,132 2,182 29,32 34,27 10,-11 z m 44,-10 c -8,-20 -15,-48 -15,-62 0,-14 -5,-25 -11,-25 -18,0 -4,87 16,110 25,27 28,20 10,-23 z m 46,-13 c -18,-45 -20,-47 -20,-19 -1,28 26,82 35,72 3,-2 -4,-26 -15,-53 z m 386,45 c -55,-13 -108,-43 -175,-98 -64,-53 -121,-91 -137,-91 -5,0 1,7 13,16 12,8 38,39 58,67 20,29 33,42 29,30 -9,-31 0,-29 48,12 46,39 127,74 172,73 28,0 28,-1 -8,-9 z m -551,-68 c -15,-15 -31,-41 -36,-57 l -8,-29 -1,34 c -1,25 -4,31 -13,24 -7,-6 -21,-9 -31,-8 -10,2 -21,-3 -24,-11 -4,-12 -8,-12 -19,3 -13,17 -13,17 -14,-2 -1,-18 -2,-18 -14,4 l -13,23 -7,-23 -8,-24 -7,25 c -4,14 -13,24 -19,23 -6,-2 -16,6 -22,17 -12,23 -8,24 40,10 53,-16 151,-14 185,4 41,22 43,20 11,-13 z m -830,-18 -6,-28 15,28 c 26,46 33,35 47,-79 1,-6 13,-8 27,-6 23,5 24,3 13,-11 -12,-14 -8,-18 25,-36 36,-19 37,-20 11,-21 -15,0 -30,-4 -33,-10 -7,-11 26,-6 119,17 32,8 60,12 63,9 3,-3 -30,-23 -73,-45 -44,-22 -73,-40 -66,-41 7,0 53,20 102,45 49,25 110,49 135,55 79,18 154,-14 196,-84 17,-28 19,-29 19,-9 0,12 -5,34 -12,49 -11,23 -10,28 7,41 27,19 74,9 102,-22 l 22,-25 30,30 c 32,32 55,37 96,18 27,-12 30,-19 15,-34 -14,-14 -30,-74 -20,-74 5,0 11,9 15,19 9,30 71,79 114,91 53,14 90,5 206,-48 78,-36 113,-47 160,-48 l 60,-3 -50,8 c -60,10 -154,45 -181,67 -18,15 -18,15 6,10 100,-23 182,-37 187,-32 3,3 -14,8 -37,12 l -43,7 37,19 c 20,10 36,25 36,33 0,8 6,12 13,9 8,-3 14,1 15,8 11,112 26,132 49,67 l 12,-34 v 38 c 1,20 6,37 11,37 17,0 31,-51 25,-84 -6,-29 -5,-30 10,-12 8,11 15,31 15,45 v 24 l 25,-23 c 48,-45 24,-178 -40,-228 -28,-22 -28,-22 -9,-44 19,-21 19,-21 -3,-9 -12,6 -30,11 -40,11 -15,0 -14,-4 7,-21 21,-17 21,-20 5,-14 -41,13 -148,36 -152,32 -2,-3 13,-12 34,-20 41,-18 73,-40 73,-51 0,-3 -10,0 -23,9 -23,15 -112,45 -132,45 -5,-1 -1,-7 9,-15 11,-8 17,-15 15,-15 -10,0 -182,61 -202,71 -16,9 -17,8 -9,-8 17,-30 25,-110 13,-117 -7,-5 -11,7 -11,36 0,62 -14,76 -26,28 -10,-36 -9,-41 12,-61 33,-31 32,-82 -3,-128 l -28,-36 -5,35 c -4,29 -10,36 -33,38 -51,6 -165,-135 -127,-158 9,-5 9,-9 1,-14 -17,-11 -31,2 -31,27 0,22 20,57 48,86 20,21 9,23 -39,5 -65,-25 -173,-23 -231,4 -27,11 -48,17 -48,12 0,-5 5,-12 10,-15 14,-9 55,-75 64,-102 7,-20 4,-23 -21,-22 -17,1 -21,3 -10,6 25,6 21,23 -15,77 -18,26 -39,57 -45,69 -7,13 -13,16 -13,8 0,-11 -5,-10 -20,4 -12,11 -29,16 -45,13 -19,-4 -23,-2 -15,7 7,9 6,16 -5,25 -8,7 -15,24 -15,39 l -1,26 -19,-24 c -24,-28 -26,-60 -5,-87 8,-10 14,-23 15,-29 0,-5 -9,4 -20,20 -12,18 -20,44 -19,65 1,19 -2,44 -6,54 -8,18 1,64 20,110 6,13 5,17 -3,12 -6,-3 -54,-22 -108,-42 -65,-23 -93,-30 -84,-19 7,8 11,15 9,15 -14,-1 -102,-31 -128,-44 -53,-28 -34,2 22,34 60,35 49,38 -46,11 -37,-10 -67,-16 -67,-13 0,3 7,14 17,24 14,16 14,18 0,18 -9,0 -28,-5 -43,-11 -28,-10 -28,-10 -9,11 18,20 18,21 -3,43 -31,32 -52,90 -52,139 1,40 2,42 15,24 14,-19 15,-18 15,11 0,17 3,39 7,49 5,14 9,9 19,-22 l 12,-39 1,33 c 1,42 17,72 37,72 12,0 15,-7 10,-27 z m -275,-48 c -33,-38 -43,-67 -14,-44 15,12 16,12 9,-6 -4,-10 -10,-40 -13,-65 l -6,-45 24,33 c 13,19 40,43 59,55 l 35,21 -32,-35 c -18,-19 -39,-51 -48,-71 -30,-72 -70,-38 -70,59 0,62 2,66 37,99 49,44 59,44 19,-1 z m 2012,-28 c 14,-18 19,-40 19,-79 -2,-93 -8,-108 -42,-107 -10,0 -9,3 5,10 17,8 16,9 -6,4 -23,-4 -27,-1 -32,25 -4,16 -26,49 -50,74 -24,26 -43,46 -41,46 5,0 51,-26 70,-40 11,-8 29,-28 39,-43 10,-15 19,-26 21,-24 8,8 -17,72 -38,94 -27,29 -10,30 26,2 41,-32 29,17 -18,71 l -21,24 25,-15 c 13,-9 33,-27 43,-42 z m -1565,-12 c 25,-17 31,-25 19,-25 -22,0 -77,52 -77,72 0,8 4,7 11,-4 5,-10 27,-29 47,-43 z m 1127,5 c -9,-15 -68,-40 -92,-40 -10,1 0,7 21,15 21,7 46,21 54,29 17,17 28,14 17,-4 z m -1714,-37 c -114,-137 -161,-222 -74,-135 51,51 93,80 93,64 0,-5 -7,-15 -16,-23 -24,-20 -104,-135 -104,-150 0,-7 17,4 38,24 44,43 69,51 30,10 -32,-33 -72,-112 -87,-170 -9,-33 -17,-43 -33,-43 -19,0 -20,4 -13,58 4,31 9,86 9,122 2,83 28,133 114,223 69,71 96,84 43,20 z m 2363,-151 c 34,-47 52,-87 36,-77 -12,8 -13,15 5,-78 21,-109 20,-117 -10,-117 -18,0 -25,5 -25,18 0,37 -40,134 -72,174 -23,29 -26,38 -12,30 26,-14 48,-40 72,-87 15,-28 21,-34 21,-20 1,34 -43,127 -85,185 -23,30 -47,66 -54,80 -20,38 87,-55 124,-108 z m -357,26 c 26,-24 29,-38 11,-38 -7,0 -21,14 -30,30 -20,35 -13,38 19,8 z m -1739,-17 c -7,-12 -19,-21 -27,-21 -11,0 -11,3 0,18 29,36 50,39 27,3 z m -112,-5 c 109,-37 231,-105 339,-188 16,-12 25,-17 21,-10 -4,7 -2,20 6,29 12,15 11,15 -9,5 -12,-7 -24,-8 -27,-3 -7,10 64,41 94,41 15,0 20,-7 20,-27 0,-31 21,-78 32,-72 3,2 18,-7 32,-20 25,-23 34,-18 26,14 -11,44 -9,97 4,130 9,20 16,39 16,41 0,1 -14,-2 -31,-8 -44,-15 -66,-65 -51,-115 13,-43 7,-58 -8,-19 -27,73 1,124 86,155 30,12 56,21 57,21 1,0 2,-42 3,-93 1,-111 7,-123 105,-203 73,-59 103,-101 90,-123 -4,-7 -30,-19 -57,-27 l -49,-14 95,4 c 54,2 84,0 70,-4 -14,-5 -54,-9 -90,-11 -36,-1 -51,-4 -35,-6 53,-6 75,-13 75,-23 0,-16 -85,-33 -165,-31 -55,1 -139,7 -142,11 -2,1 -11,3 -20,4 -10,1 -28,7 -40,14 -12,7 -29,12 -37,12 -9,0 -16,4 -16,9 0,5 -11,12 -25,15 -14,4 -25,11 -25,16 0,6 -4,10 -10,10 -24,0 -47,37 -42,68 4,29 2,32 -21,32 -33,0 -40,12 -27,46 l 11,28 -23,-19 -22,-20 16,25 c 18,29 48,39 48,17 0,-28 99,-125 154,-151 48,-23 136,-49 143,-42 1,1 -33,17 -76,34 -140,58 -203,123 -200,209 l 2,38 6,-45 c 4,-25 12,-55 19,-66 24,-45 113,-108 180,-129 21,-6 22,-5 13,12 -5,10 -22,30 -36,46 -32,34 -55,86 -55,127 0,18 -4,29 -10,25 -5,-3 -10,1 -10,9 0,8 -5,18 -11,22 -8,4 -9,0 -4,-15 4,-15 1,-23 -10,-27 -10,-4 -33,11 -69,44 -56,53 -146,114 -200,137 l -32,14 6,-55 c 7,-62 30,-98 30,-47 0,51 16,46 19,-5 2,-43 21,-88 21,-50 0,9 9,26 21,39 l 20,24 -8,-25 c -4,-14 -8,-53 -8,-87 0,-35 -3,-63 -6,-63 -3,0 -15,17 -27,39 -12,21 -41,55 -65,74 -45,37 -127,160 -127,190 0,10 -10,22 -22,27 -47,18 1,9 68,-14 z m 1991,-6 c 13,0 5,-39 -20,-86 -22,-42 -77,-109 -77,-94 0,15 -60,-49 -87,-92 -28,-45 -38,-40 -38,16 0,28 -4,62 -8,76 l -8,25 20,-24 c 12,-13 21,-30 21,-39 0,-32 14,1 20,46 l 6,47 11,-35 11,-35 16,37 c 9,21 16,56 16,78 0,22 5,40 10,40 6,0 10,-12 10,-26 0,-14 4,-23 10,-19 6,3 10,17 10,30 0,33 18,41 29,13 8,-21 8,-20 13,10 2,18 1,32 -4,32 -5,0 -43,-17 -86,-39 -79,-40 -176,-107 -240,-168 -21,-20 -44,-33 -56,-31 -16,2 -22,-5 -28,-35 -4,-21 -14,-50 -22,-65 -20,-36 -62,-83 -69,-76 -3,3 -8,1 -12,-5 -20,-34 80,15 136,66 48,44 71,85 67,120 -2,15 3,28 10,30 19,7 15,-52 -8,-96 -10,-21 -41,-58 -67,-81 -26,-24 -38,-38 -26,-31 34,18 104,92 115,124 5,15 14,27 18,27 13,0 60,-60 60,-78 0,-13 -3,-12 -15,4 -14,19 -14,19 -15,-3 0,-16 -7,-22 -27,-25 -25,-3 -28,-7 -27,-35 1,-22 -3,-33 -12,-33 -8,0 -14,-4 -14,-9 0,-5 -17,-20 -37,-32 -21,-13 -41,-28 -45,-33 -4,-6 -8,-8 -8,-4 0,4 -19,-1 -42,-12 -23,-10 -46,-16 -50,-14 -4,3 -8,2 -8,-3 0,-4 -12,-9 -27,-10 -16,0 -58,-3 -95,-5 -38,-2 -68,-1 -68,3 0,3 -12,6 -27,4 -36,-2 -93,13 -93,25 0,10 22,17 75,23 17,2 -1,5 -40,7 -65,3 -67,3 -25,9 44,6 44,6 15,14 -79,22 -74,54 20,117 41,28 75,55 75,61 0,6 4,8 9,5 5,-3 22,9 39,28 25,28 31,46 37,104 4,39 4,84 0,101 -4,17 -4,31 -1,31 3,0 30,-9 60,-21 86,-32 113,-81 86,-156 -9,-26 -9,-27 5,-9 8,11 15,35 15,53 0,26 4,33 20,33 30,0 101,-31 94,-41 -3,-5 -14,-5 -25,2 -18,9 -19,8 -8,-9 12,-19 16,-17 93,35 103,71 254,146 281,139 11,-3 25,-6 32,-6 z m 96,-203 c 46,-57 49,-64 33,-70 -10,-4 -24,10 -41,39 -14,25 -41,61 -58,82 l -32,36 32,-22 c 18,-13 48,-42 66,-65 z m -2271,49 c -10,-14 -27,-45 -36,-70 -10,-25 -24,-46 -32,-46 -11,0 -8,12 11,50 24,47 58,90 71,90 3,0 -3,-11 -14,-24 z m 2364,-62 c 15,-25 24,-48 20,-51 -9,-10 -21,6 -44,60 -26,58 -12,53 24,-9 z m -1492,-63 c -9,-11 -21,13 -16,32 6,22 6,22 12,-3 4,-14 6,-27 4,-29 z m 56,18 c 0,-11 5,-29 11,-41 18,-33 2,-33 -31,1 -17,17 -28,35 -25,41 4,6 11,8 16,5 5,-4 9,-1 9,4 0,6 5,11 10,11 6,0 10,-9 10,-21 z m 480,11 c 0,-5 7,-7 15,-4 25,10 17,-16 -15,-48 -36,-36 -48,-32 -27,9 8,15 12,34 10,41 -3,6 0,12 6,12 6,0 11,-4 11,-10 z m 970,-41 c -111,-11 -357,-59 -449,-89 -44,-15 -67,-18 -74,-11 -13,13 -12,13 123,45 197,47 302,62 425,63 66,0 65,0 -25,-8 z m 59,-36 c 0,-16 -6,-46 -14,-68 -11,-33 -13,-36 -14,-15 -2,18 -7,9 -20,-30 -10,-30 -32,-83 -49,-117 -18,-34 -32,-75 -33,-90 v -28 l -10,25 c -6,14 -8,43 -5,65 l 6,40 -28,-55 c -20,-41 -32,-54 -46,-52 -10,2 -15,-1 -12,-6 3,-5 -30,6 -73,25 -44,18 -106,39 -138,44 -32,6 -68,13 -80,15 -13,3 -23,12 -23,20 0,12 6,15 23,10 12,-4 47,-13 77,-21 43,-11 127,-45 201,-83 7,-3 8,3 15,127 7,110 22,120 26,18 1,-31 5,-54 9,-51 17,10 40,108 41,173 0,67 2,71 23,71 21,0 24,-6 30,-55 4,-30 5,-72 1,-92 l -6,-38 14,36 c 7,19 17,63 21,97 7,60 8,62 36,62 25,0 29,-4 28,-27 z m -1245,-123 c 7,0 25,10 40,21 15,12 29,19 32,16 10,-9 -65,-59 -83,-55 -14,2 -18,14 -20,53 l -2,50 10,-42 c 6,-24 16,-43 23,-43 z m -1004,28 c -14,-31 -20,-66 -20,-120 v -78 l 52,21 c 28,11 79,26 112,33 34,7 68,15 76,17 8,2 15,-3 15,-11 0,-10 -16,-17 -50,-23 -119,-19 -243,-72 -340,-145 -52,-38 -56,-40 -30,-12 17,18 57,51 91,74 59,40 60,42 53,76 -11,51 7,138 39,188 22,34 23,26 2,-20 z m 1723,-47 c -17,-20 -54,-51 -83,-68 -30,-18 -51,-33 -47,-33 13,0 91,41 111,59 18,15 18,15 8,-4 -24,-43 -49,-65 -101,-89 -30,-14 -58,-23 -63,-20 -4,3 -8,0 -8,-6 0,-6 -4,-9 -9,-5 -5,3 -12,1 -15,-3 -6,-10 -226,-8 -271,2 -49,12 -54,26 -9,27 33,2 34,3 9,6 -56,7 -130,33 -155,54 l -25,20 43,-21 c 27,-13 78,-24 144,-30 225,-22 398,34 466,149 24,41 27,43 30,22 2,-14 -7,-37 -25,-60 z m -1503,38 c 27,-65 162,-134 292,-149 101,-12 262,1 306,24 39,20 48,20 32,1 -13,-15 -89,-41 -145,-48 -25,-3 -24,-4 9,-6 43,-1 44,-9 0,-17 -15,-3 -32,-8 -38,-12 -17,-10 -246,-10 -246,0 0,5 -4,7 -9,4 -19,-12 -133,44 -172,85 -21,23 -39,43 -39,46 0,2 19,-9 43,-26 50,-34 153,-71 194,-70 20,0 10,6 -32,18 -77,22 -122,45 -163,85 -30,27 -62,75 -62,91 0,17 19,1 30,-26 z m 1770,-87 c 8,-62 2,-104 -14,-99 -6,2 -11,30 -12,68 0,35 -3,84 -7,109 l -7,45 16,-35 c 9,-19 20,-59 24,-88 z m -1031,51 c 2,-2 -4,-3 -15,-3 -11,0 -35,13 -54,30 l -35,30 50,-27 c 28,-14 52,-28 54,-30 z m -764,-42 c -8,-36 -25,-41 -25,-8 0,22 19,51 28,43 2,-3 1,-18 -3,-35 z m 1575,-13 c 0,-25 -16,-22 -24,5 -11,41 -7,54 9,33 8,-11 15,-28 15,-38 z m -854,-49 c -6,-40 -6,-41 19,-37 14,3 25,1 25,-3 0,-9 -61,-28 -71,-23 -6,3 22,104 29,104 3,0 2,-19 -2,-41 z m 74,-4 c 0,-14 8,-29 19,-35 29,-15 30,-13 25,28 -4,34 -3,35 5,9 5,-16 15,-35 22,-43 9,-12 6,-14 -18,-14 -16,0 -37,6 -46,13 -20,15 -34,67 -18,67 6,0 11,-11 11,-25 z m -130,-36 c -66,-52 -176,-79 -329,-79 -139,0 -248,26 -306,74 -19,16 -18,16 10,3 89,-43 169,-59 295,-59 138,0 219,15 298,57 56,30 65,31 32,4 z m 890,5 c 0,-3 -29,-18 -65,-35 -66,-30 -213,-59 -297,-59 -60,0 -179,25 -234,50 -68,29 -52,32 23,4 49,-18 95,-27 168,-31 153,-8 241,9 403,76 1,1 2,-2 2,-5 z m 106,-193 -15,-46 28,33 c 15,18 41,59 57,92 40,82 63,79 29,-4 -20,-47 -12,-46 21,3 16,25 31,38 40,34 26,-10 -16,-60 -197,-235.9997 -97,-95 -186,-188 -198,-207 -19,-32 -21,-33 -21,-10 0,13 29,76 64,140 36,63 70,137.9997 77,164.9997 7,28 17,55 22,60 12,13 -2,-80 -20,-129 -7,-21.9997 -11,-40.9997 -9,-42.9997 5,-6 62,84.9997 90,146.9997 14,30 29,78 33,105 l 8,50 3,-54 c 2,-29 -4,-74 -12,-100 z m -1843,76 c 15,-35 41,-79 57,-98 l 30,-34 -15,37 c -9,21 -14,65 -14,100 1,35 3,52 6,38 12,-79 31,-124 88,-212 36,-53.9997 67,-97.9997 70,-97.9997 3,0 1,10 -6,21 -14,26 -49,147.9997 -49,168.9997 0,8 11,-15 24,-52 13,-36 40,-92.9997 60,-125.9997 48,-79 89,-169 83,-185 -2,-6 -11,2 -20,19 -25,49 -185,217 -258,272.9997 -64,48 -124,112 -147,158 -9,16 -9,22 3,26 9,4 24,-11 44,-44 35,-57 46,-63 27,-16 -19,46 -28,87 -18,87 4,0 20,-28 35,-63 z m 249,-77 c 45,-74 73,-102 38,-37 -35,62 -35,107 -1,107 21,0 42,-22 65,-68 9,-18 44,-71 78,-118 34,-46.9997 78,-118.9997 98,-159.9997 21,-40 40,-71 43,-68 8,8 48,-105 57,-161 6,-41 8,-44 9,-16 2,74 13,17 15,-86 1,-79 7,-117 19,-140 10,-18 17,-36 16,-40 -1,-11 32,-22 69,-22 24,-1 35,-7 44,-26 14,-32 -6,-59 -39,-52 -12,2 -20,0 -17,-4 3,-5 -5,-9 -18,-9 -29,0 -84,55 -94,93 -3,15 -9,26 -11,23 -11,-11 20,-75 54,-112 l 38,-39 h 245 245 l 26,25 c 32,30 69,89 69,110 0,8 -9,-3 -21,-25 -27,-51 -56,-75 -94,-75 -42,0 -59,14 -61,49 -2,32 1,34 70,46 21,3 35,9 32,12 -3,4 2,15 11,26 14,15 19,44 23,142 5,124 19,182 21,89 l 2,-49 8,61 c 11,86 27,142 47,163 9,9 33,48 52,86 19,38 63,110 99,158.9997 35,50 72,110 82,132 22,49 43,68 64,60 32,-12 8,-86 -61,-183 -9,-13 -14,-22.9997 -11,-22.9997 9,0 86,106.9997 122,170.9997 20,35 33,53 30,39 -14,-56 -72,-155 -136,-232.9997 -161,-195 -203,-285 -197,-425 3,-81 -1,-83 -19,-12 -7,26 -8,15 -5,-45 11,-187 7,-223 -24,-268 -17,-23 -48,-52 -69,-64 -22,-13 -39,-27 -38,-32 4,-17 -28,-35 -70,-38 -23,-2 -55,-5 -72,-7 -16,-2 -20,-1 -8,1 12,2 26,10 32,17 16,19 -150,40 -209,27 -25,-6 -76,-11 -115,-11 -49,0 -66,-3 -55,-10 8,-5 29,-10 45,-10 85,-2 105,-2 165,3 l 65,6 -60,-10 c -137,-25 -255,-7 -255,37 0,8 -5,14 -12,14 -22,0 -79,52 -100,93 -24,46 -27,97 -16,267 6,95 6,95 -6,35 l -13,-60 -4,100 c -5,94 -7,105 -47,180 -23,44 -85,132 -138,195 -104,124.9997 -148,199.9997 -158,269.9997 l -7,45 18,-50 c 10,-28 30,-70 45,-95 z m 598,103 c 26,-22 25,-30 -1,-29 -12,1 -24,-6 -27,-14 -4,-13 -3,-13 10,-2 14,11 19,9 32,-10 20,-28 21,-62 2,-77 -12,-10 -17,-8 -25,8 -6,11 -11,27 -11,36 0,9 -11,28 -25,43 -28,30 -33,24 -10,-12 14,-21 13,-27 -11,-70 -15,-26 -30,-44 -34,-39 -12,12 -18,95 -9,121 5,13 5,22 -1,22 -6,0 -10,5 -10,10 0,14 53,13 67,-1 8,-8 13,-5 18,10 8,25 9,26 35,4 z m 89,-26 c 27,-16 28,-15 59,13 l 32,29 v -25 c 0,-33 4,-32 55,14 11,10 15,8 20,-8 4,-11 11,-18 16,-15 5,4 5,-3 0,-17 -5,-13 -14,-22 -20,-20 -6,1 -11,-11 -11,-26 0,-16 -6,-37 -14,-47 -13,-18 -14,-17 -30,8 -16,24 -16,27 -1,51 10,14 24,26 31,26 8,0 14,5 14,10 0,18 -26,10 -48,-15 -12,-14 -22,-34 -22,-46 0,-11 -5,-29 -11,-40 -8,-16 -13,-18 -25,-8 -30,25 -6,114 26,94 5,-3 10,1 10,9 0,20 -14,20 -30,1 -15,-18 -34,-19 -61,-2 -17,10 -22,9 -34,-6 -20,-27 -25,1 -6,38 10,20 16,25 19,14 1,-8 15,-23 31,-32 z m 248,-24 c 1,-32 -3,-73 -9,-92 l -11,-34 -15,34 c -22,51 -26,98 -7,105 8,3 15,12 15,19 0,7 6,16 13,18 6,3 12,6 12,6 0,1 1,-25 2,-56 z m -487,20 c 0,-7 -13,-42 -29,-76 -36,-82 -55,-157.9997 -46,-196.9997 4,-17 3,-30 -3,-30 -12,0 -62,97 -62,120.9997 0,10 -4,19 -9,21 -5,2 -13,40 -16,86 l -8,82 h 28 c 23,0 27,-3 22,-22 -5,-21 -4,-20 15,5 17,24 26,27 64,26 29,-2 44,-7 44,-16 z m 631,-10 c 19,-25 21,-26 15,-5 -6,19 -4,22 20,22 h 27 l -6,-67 c -7,-72 -34,-162.9997 -64,-212.9997 -23,-40 -33,-38 -26,5 6,39 -15,125.9997 -52,209.9997 -29,65 -30,69 -10,61 8,-3 15,-1 15,4 0,6 13,10 29,10 20,0 37,-9 52,-27 z m -393,-15 c 18,-18 15,-77 -4,-85 -20,-8 -34,13 -34,53 0,43 14,56 38,32 z m 300,-145 c -29,-33.9997 -49,-84.9997 -57,-145.9997 l -8,-62 -2,50 c -1,36 -4,46 -12,38 -7,-7 -9,-28 -5,-55 3,-23 7,-58 8,-75 1,-18 5,-33 8,-33 3,0 6,-8 7,-17 1,-10 8,-40 16,-68 8,-27 13,-67 12,-88 -7,-81 -94,-149 -195,-153 -30,-1 -57,-3 -60,-4 -3,-1 -8,-2 -12,-1 -7,0 -66,11 -83,15 -5,1 -20,8 -32,14 -13,7 -23,9 -23,5 0,-4 -18,12 -40,36 -38,40 -40,45 -35,94 5,65 14,110 23,117 4,3 9,14 10,25 2,11 7,22 10,25 14,10 13,89 -2,145 -19,73 -32,87 -29,32 l 2,-42 -9,38 c -6,21 -17,51 -25,67 -16,29.9997 -9,39.9997 13,18 9,-9 12,-9 12,0.9997 0,8 10,11 27,9 34,-4 68,-50.9997 89,-125.9997 12,-39 19,-51 25,-41 5,8 9,10 10,4 0,-5 4,-1 9,10 l 9,20 1,-20 1,-20 9,20 c 7,17 9,17 9,3 1,-21 23,-19 33,2 5,11 7,10 7,-5 1,-17 3,-17 11,-5 5,8 10,10 10,4 0,-6 7,-11 15,-11 8,0 15,5 15,10 0,5 7,4 15,-3 13,-11 15,-7 16,26 l 2,39 6,-35 7,-35 6,39 c 13,71 84,144.9997 128,132.9997 11,-3 24,1 31,9 6,8 16,14 22,14 5,0 3,-8 -5,-17 z m 338,-174.9997 c -27,-42 -38,-113 -37,-228 1,-121 -22,-248 -53,-295 -9,-14 -25,-48 -37,-77 -11,-29 -33,-80 -48,-113 -16,-33 -34,-74 -42,-92 -19,-43 -120,-148 -129,-134 -4,8 -13,4 -26,-10 -17,-19 -230,-129 -251,-129 -4,0 -14,9 -20,19 -7,11 -29,25 -50,31 -71,23 -131,59 -162,97 -27,33 -31,35 -31,15 0,-12 -2,-22 -5,-22 -13,0 -104,107 -127,150 -14,27 -29,44 -31,37 -3,-6 -6,0 -6,15 -1,35 -49,166 -74,199 -36,49 -57,154 -55,269 l 2,105 5,-95 c 3,-52 9,-86 12,-75 4,11 7,-9 8,-45 1,-36 8,-76 16,-90 l 14,-25 1,35 c 1,19 5,44 10,55 5,12 6,-2 3,-36 -6,-63 15,-150 27,-114 5,15 8,11 14,-20 4,-22 12,-58 18,-80 9,-38 10,-38 22,-17 10,19 12,16 12,-30 0,-58 25,-121 32,-83 8,40 22,39 22,-1 0,-22 6,-49 14,-59 13,-18 14,-17 21,13 3,17 11,35 17,38 7,5 9,-1 5,-17 -4,-14 -3,-38 2,-54 l 8,-30 7,29 c 7,29 7,29 33,-25 22,-45 27,-50 31,-31 3,22 4,23 17,5 13,-16 14,-13 16,32 l 1,50 13,-53 c 13,-55 41,-102 64,-110 10,-3 10,0 2,16 -6,11 -11,38 -11,59 l 1,38 13,-37 c 8,-21 30,-56 50,-78 l 36,-40 10,25 c 6,15 11,34 12,43 0,9 4,-3 7,-28 l 6,-45 19,34 c 10,19 21,66 25,105 6,64 7,68 14,35 4,-20 2,-59 -4,-88 -13,-62 -7,-75 16,-32 16,33 29,42 18,15 -12,-31 21,-9 40,27 12,22 17,50 15,82 -3,40 -1,45 10,30 6,-9 12,-42 13,-72 0,-55 3,-55 25,4 6,19 7,18 14,-5 6,-24 7,-23 19,13 10,29 16,35 26,27 10,-8 14,-4 18,17 3,16 3,42 1,58 l -4,30 14,-30 c 9,-16 15,-41 16,-55 l 1,-25 16,29 c 8,16 16,53 17,82 1,59 12,62 22,6 6,-30 8,-33 15,-17 4,11 8,40 8,65 1,32 4,41 11,30 15,-24 22,-6 30,77 4,43 8,66 9,51 2,-42 19,-42 30,-1 15,54 13,143 -4,192 -8,22 -12,41 -9,41 12,0 44,-89 44,-125 0,-30 3,-36 10,-25 17,26 11,153 -9,213 -20,62 -12,66 19,9 l 19,-37 1,77 c 0,52 7,95 19,129 20,50 47,99 56,99 3,0 -1,-10 -9,-22 z m -773,-433 c 54,-26 41,-35 -17,-11 -36,15 -76,60 -76,85 0,9 9,2 20,-17 13,-21 40,-42 73,-57 z m 385,49 c -18,-38 -56,-64 -103,-70 -40,-5 -40,-5 13,17 36,14 60,32 75,54 25,39 35,39 15,-1 z m -313,-94 c 4,-6 0,-22 -9,-35 -19,-28 -20,-35 -6,-35 6,0 9,3 8,8 -2,11 24,62 33,62 4,0 13,-8 18,-17 6,-10 11,-12 11,-5 0,6 7,12 15,12 12,0 15,-10 13,-40 -1,-22 -5,-40 -8,-40 -3,0 -4,-17 -2,-39 4,-43 -11,-56 -54,-45 -29,7 -29,9 -4,41 11,14 17,30 14,35 -3,5 0,16 7,24 6,8 10,17 7,19 -3,3 -19,-22 -37,-55 -34,-64 -63,-81 -104,-63 l -22,10 25,13 c 14,7 37,25 52,41 l 27,29 h -24 c -13,0 -27,5 -30,11 -4,6 -17,14 -29,18 -19,8 -18,10 15,24 20,8 40,20 43,26 9,14 33,14 41,1 z m 222,-10 c 14,-11 34,-20 44,-20 11,0 19,-4 19,-10 0,-5 -5,-10 -12,-10 -6,0 -23,-10 -36,-22 -14,-13 -22,-18 -19,-12 4,7 -4,19 -18,28 -16,10 -25,26 -25,41 0,30 13,32 47,5 z m -37,-52 c 0,-5 7,-8 16,-8 8,0 12,-4 9,-10 -10,-16 14,-49 48,-66 31,-17 31,-17 10,-27 -33,-15 -71,0 -88,33 -9,17 -13,35 -10,40 3,6 -3,10 -14,10 -18,0 -19,-3 -10,-30 6,-16 15,-30 20,-30 19,0 8,-18 -15,-24 -48,-12 -55,-1 -55,85 0,44 4,79 9,79 6,0 10,-6 10,-13 0,-7 7,-22 16,-33 14,-18 15,-18 4,4 -6,13 -9,31 -5,40 6,14 10,12 31,-13 13,-16 24,-33 24,-37 z m -23,-224 c -3,-3 -12,-4 -19,-1 -8,3 -5,6 6,6 11,1 17,-2 13,-5 z"
       id="path584" />
    <path
       d="m 3279.6086,11996.102 c 0,-16 2,-22 5,-12 2,9 2,23 0,30 -3,6 -5,-1 -5,-18 z"
       id="path586" />
    <path
       d="m 3212.6086,11980.102 c -4,-6 -4,-13 -1,-16 3,-4 6,-1 6,5 0,18 27,14 34,-4 9,-23 -3,-37 -26,-31 -12,4 -18,1 -15,-6 2,-7 14,-13 26,-15 17,-3 24,3 29,20 l 6,23 7,-25 c 7,-24 7,-24 8,-3 2,43 -55,83 -74,52 z"
       id="path588" />
    <path
       d="m 3965.6086,11780.102 c -38,-20 -46,-33 -28,-44 6,-3 10,-2 10,3 0,4 18,18 40,31 64,36 44,45 -22,10 z"
       id="path590" />
    <path
       d="m 3761.6086,11702.102 c -46,-11 -58,-21 -44,-35 8,-8 13,-8 18,1 4,7 23,14 42,16 19,2 36,7 38,13 4,12 -16,14 -54,5 z"
       id="path592" />
    <path
       d="m 4218.6086,12364.102 c 2,-16 79,-75 79,-62 0,8 6,3 13,-11 7,-14 20,-26 29,-28 13,-2 17,7 19,47 4,48 3,50 -25,55 -41,8 -116,7 -115,-1 z"
       id="path594" />
    <path
       d="m 4137.6086,12311.102 c 0,-43 3,-51 17,-48 41,8 41,88 -1,96 -13,3 -16,-6 -16,-48 z"
       id="path596" />
    <path
       d="m 4627.6086,12301.102 c 0,-5 14,-10 30,-10 17,0 30,5 30,10 0,6 -13,10 -30,10 -16,0 -30,-4 -30,-10 z"
       id="path598" />
    <path
       d="m 4365.6086,11921.102 c 16,-38 32,-52 32,-30 0,18 -30,70 -40,70 -4,0 -1,-18 8,-40 z"
       id="path600" />
    <path
       d="m 4467.6086,11796.102 c 0,-5 84,-55 93,-55 20,0 2,22 -33,40 -38,19 -60,25 -60,15 z"
       id="path602" />
    <path
       d="m 4934.6086,12054.102 c 25,-49 48,-90 51,-93 8,-10 -11,65 -23,90 -7,14 -16,36 -20,49 -7,22 -5,23 27,17 30,-5 30,-4 -7,9 -78,27 -80,23 -28,-72 z"
       id="path604" />
    <path
       d="m 5139.6086,11751.102 c -39,-32 -24,-42 17,-11 13,10 20,21 15,24 -5,3 -19,-3 -32,-13 z"
       id="path606" />
    <path
       d="m 3872.6086,11002.102 c -16,-10 -41,-31 -55,-46 l -25,-28 36,26 c 90,67 139,55 220,-54 51,-69 91,-100 126,-98 14,0 15,2 3,6 -38,14 -74,50 -117,114 -64,97 -121,122 -188,80 z"
       id="path608" />
    <path
       d="m 4491.6086,10990.102 c -17,-12 -48,-50 -70,-83 -21,-33 -55,-71 -74,-85 l -35,-24 30,7 c 37,9 81,49 106,99 23,44 72,77 115,77 17,0 53,-12 80,-26 l 49,-25 -37,37 c -29,30 -45,38 -85,41 -38,3 -54,0 -79,-18 z"
       id="path610" />
    <path
       d="m 3600.6086,10964.102 c 9,-2 25,-2 35,0 9,3 1,5 -18,5 -19,0 -27,-2 -17,-5 z"
       id="path612" />
    <path
       d="m 3914.6086,10888.102 c -4,-10 -7,-37 -7,-59 0,-40 0,-41 20,-23 11,10 17,22 13,28 -3,6 -9,24 -13,41 -5,25 -7,28 -13,13 z"
       id="path614" />
    <path
       d="m 4506.6086,10805.102 c -28,-31 -117,-77 -177,-94 -24,-6 -50,-14 -58,-17 -10,-3 -14,2 -14,18 -1,23 -1,23 -12,4 -6,-11 -12,-22 -14,-24 -1,-2 -23,5 -49,14 -25,10 -48,15 -51,13 -8,-9 120,-56 131,-48 6,4 46,19 89,34 88,31 147,66 171,102 20,31 15,30 -16,-2 z"
       id="path616" />
    <path
       d="m 3981.6086,10804.102 c 10,-18 87,-69 116,-77 14,-4 1,7 -29,24 -30,16 -64,38 -75,48 -11,9 -16,11 -12,5 z"
       id="path618" />
    <path
       d="m 4547.6086,10753.102 c -11,-20 -13,-33 -5,-49 13,-29 19,-29 33,2 15,33 15,50 -1,63 -9,8 -16,4 -27,-16 z"
       id="path620" />
    <path
       d="m 3258.6086,10909.102 c 0,-7 4,-22 9,-33 7,-17 9,-15 9,13 1,17 -3,32 -9,32 -5,0 -10,-6 -9,-12 z"
       id="path622" />
    <path
       d="m 3287.6086,10898.102 c 0,-7 9,-30 19,-52 l 19,-40 3,33 c 1,17 2,37 3,43 1,7 -9,15 -21,20 -16,6 -23,5 -23,-4 z"
       id="path624" />
    <path
       d="m 4667.6086,10868.102 c 0,-1 5,-18 10,-37 18,-60 20,-85 11,-117 -12,-40 0,-60 21,-36 45,52 52,127 16,160 -20,17 -58,37 -58,30 z"
       id="path626" />
    <path
       d="m 3904.6086,9417.1023 c -4,-10 -6,-27 -6,-39 1,-16 3,-14 8,8 l 7,30 7,-36 c 4,-20 17,-45 29,-55 l 21,-19 -21,40 c -11,22 -24,51 -29,64 -8,22 -10,22 -16,7 z"
       id="path628" />
    <path
       d="m 4573.6086,9424.1023 c -3,-3 -6,-14 -6,-23 0,-8 -9,-33 -19,-54 -20,-37 -20,-38 -1,-21 11,10 22,33 26,51 3,19 10,31 15,28 5,-3 9,-1 9,5 0,13 -15,22 -24,14 z"
       id="path630" />
    <path
       d="m 4417.6086,9101.1023 c 0,-13 40,-13 60,0 11,7 5,10 -22,10 -21,0 -38,-4 -38,-10 z"
       id="path632" />
    <path
       d="m 4141.6086,9776.1023 c -5,-28 -14,-49 -20,-48 -7,1 -9,-8 -6,-23 2,-13 -6,-51 -18,-84 -33,-88 -15,-129 65,-145 l 30,-6 -30,16 c -23,12 -25,14 -7,11 12,-2 20,0 16,5 -3,5 0,9 7,9 8,0 8,4 -1,15 -10,12 -10,15 1,16 8,0 5,4 -6,9 -11,5 -15,9 -10,9 13,1 14,81 0,81 -5,0 -3,5 5,10 8,5 10,10 5,10 -6,0 -9,19 -7,43 2,23 -1,60 -5,82 l -9,40 z"
       id="path634" />
    <path
       d="m 4334.6086,9791.1023 c -11,-61 -13,-140 -2,-140 7,0 6,-3 0,-8 -15,-10 -16,-82 -2,-83 7,0 3,-4 -8,-9 -11,-5 -14,-9 -6,-9 11,-1 11,-4 1,-16 -9,-11 -9,-15 -1,-15 7,0 10,-4 7,-9 -4,-5 4,-7 16,-5 17,3 15,1 -7,-10 -39,-20 -15,-20 30,-1 53,21 61,54 34,137 -12,37 -19,76 -16,87 3,14 1,18 -9,14 -10,-4 -14,3 -15,23 -1,16 -4,40 -8,54 -7,24 -8,23 -14,-10 z"
       id="path636" />
    <path
       d="m 2988.6086,10604.102 c 0,-25 1,-26 9,-8 12,27 12,35 0,35 -5,0 -10,-12 -9,-27 z"
       id="path638" />
    <path
       d="m 3022.6086,10602.102 c -7,-34 4,-106 15,-94 4,4 11,34 15,66 5,47 4,57 -8,57 -9,0 -18,-13 -22,-29 z"
       id="path640" />
    <path
       d="m 912.6086,9840.1023 c -59.00004,-31 -93.00004,-67 -125.00004,-129 -88,-175 -58,-437 63,-547 52.00004,-47 94.00004,-63 165.00004,-63 75,0 129,34 184,115 44,66 46,80 16,112 l -22,23 -25,-43 c -69,-116 -124,-143 -197,-98 -123.00004,75 -140.00004,400 -27,516 69,71 138,54 209,-52 l 42,-62 22,24 c 27,29 23,50 -19,117 -45,70 -99,102 -180,105 -52,3 -75,-1 -106,-18 z"
       id="path642" />
    <path
       d="m 2067.6086,9850.1023 c -125,-50 -194,-180 -195,-369 0,-174 56,-295 165,-354 46,-25 60,-28 120,-24 59,3 75,8 107,34 21,17 55,59 76,93 l 38,63 -22,24 c -12,13 -26,24 -30,24 -4,0 -21,-24 -37,-54 -40,-70 -74,-96 -125,-96 -55,0 -118,62 -141,139 -23,80 -22,236 4,308 31,90 92,140 154,129 35,-7 94,-62 120,-113 23,-45 32,-47 56,-14 l 21,30 -21,40 c -29,57 -77,109 -121,132 -42,21 -126,25 -169,8 z"
       id="path644" />
    <path
       d="m 6046.6086,9838.1023 c -53,-28 -99,-107 -99,-171 0,-96 25,-133 178,-264 47,-40 64,-63 72,-94 20,-73 -12,-128 -73,-128 -49,0 -73,27 -101,113 -5,14 -14,18 -43,15 -37,-3 -38,-4 -35,-38 7,-68 57,-137 115,-159 108,-41 222,25 247,143 22,106 -9,171 -127,265 -102,83 -136,131 -130,184 7,48 41,87 78,87 39,0 87,-44 99,-91 10,-35 14,-39 44,-39 18,0 35,3 39,6 3,3 -3,29 -14,58 -48,122 -147,167 -250,113 z"
       id="path646" />
    <path
       d="m 7966.6086,9833.1023 c -99,-51 -156,-160 -166,-314 -9,-142 24,-258 97,-342 68,-77 192,-100 276,-51 44,26 124,132 124,165 0,15 -29,50 -42,50 -3,0 -21,-26 -41,-59 -42,-67 -73,-91 -117,-91 -73,0 -125,60 -156,180 -31,123 0,293 67,360 72,71 159,39 224,-83 l 19,-37 28,27 27,26 -24,47 c -71,141 -191,187 -316,122 z"
       id="path648" />
    <path
       d="m 2497.6086,9476.1023 v -365 h 185 185 v 40 39 l -122,3 -123,3 -3,323 -2,322 h -60 -60 z"
       id="path650" />
    <path
       d="m 3017.6086,9476.1023 v -365 h 180 180 v 40 40 h -120 -120 v 145 145 h 100 100 v 30 30 h -100 -100 v 120 120 h 120 120 v 30 30 h -180 -180 z"
       id="path652" />
    <path
       d="m 5067.6086,9476.1023 v -367 l 133,4 c 119,3 138,6 182,29 100,51 154,156 162,316 7,131 -16,217 -78,287 -69,78 -102,90 -261,94 l -138,4 z m 265,255 c 117,-114 108,-435 -15,-517 -23,-16 -48,-23 -81,-23 h -49 v 291 291 l 55,-4 c 46,-4 62,-10 90,-38 z"
       id="path654" />
    <path
       d="m 5687.6086,9476.1023 v -365 h 60 60 v 365 365 h -60 -60 z"
       id="path656" />
    <path
       d="m 6407.6086,9811.1023 v -30 h 80 80 l 2,-332 3,-333 57,-3 58,-3 2,333 3,333 83,3 82,3 v 29 30 h -225 -225 z"
       id="path658" />
    <path
       d="m 6977.6086,9476.1023 v -365 h 60 60 v 165 c 0,104 4,165 10,165 6,0 47,-74 92,-165 l 83,-165 h 62 c 35,0 63,2 63,5 0,3 -36,77 -80,166 -44,88 -80,166 -80,173 0,7 14,23 31,35 101,75 86,282 -24,334 -27,13 -64,17 -156,17 h -121 z m 209,276 c 73,-73 31,-241 -60,-241 h -29 v 130 130 h 35 c 21,0 43,-8 54,-19 z"
       id="path660" />
    <path
       d="m 8387.6086,9811.1023 v -30 h 80 80 v -335 -335 h 60 60 v 335 335 h 85 85 v 30 30 h -225 -225 z"
       id="path662" />
    <path
       d="m 4059.6086,8492.1023 c -34,-71 -62,-132 -62,-135 0,-3 9,-6 20,-6 13,0 26,12 37,35 16,33 19,35 68,35 49,0 52,-2 68,-35 14,-29 22,-35 47,-35 16,0 30,3 29,8 -2,25 -119,258 -131,260 -10,2 -34,-38 -76,-127 z m 83,-1 c 20,-39 20,-40 -20,-40 -19,0 -35,2 -35,5 0,9 30,65 35,65 2,0 11,-13 20,-30 z"
       id="path664" />
    <path
       d="m 4362.6086,8609.1023 c -53,-29 -59,-74 -14,-112 17,-14 35,-26 41,-26 20,0 68,-42 68,-60 0,-42 -78,-46 -93,-6 -8,20 -47,21 -47,2 0,-29 50,-56 102,-56 39,0 54,5 73,25 43,42 29,83 -43,119 -26,13 -56,34 -67,46 l -20,22 24,19 c 30,24 33,24 70,-7 17,-14 39,-24 48,-22 15,3 13,9 -14,36 -25,25 -40,32 -70,32 -21,0 -47,-6 -58,-12 z"
       id="path666" />
    <path
       d="m 3767.6086,8481.1023 v -130 h 101 c 76,0 100,3 97,13 -3,7 -29,13 -71,15 l -67,3 v 49 50 h 55 c 70,0 72,18 3,22 l -53,3 -3,43 -3,42 h 70 c 41,0 71,4 71,10 0,6 -40,10 -100,10 h -100 z"
       id="path668" />
    <path
       d="m 4567.6086,8601.1023 c 0,-5 20,-10 45,-10 h 45 v -120 -120 h 35 35 v 120 120 h 45 c 25,0 45,5 45,10 0,6 -48,10 -125,10 -77,0 -125,-4 -125,-10 z"
       id="path670" />
    <path
       d="m 3926.6086,8223.1023 c -28,-24 -21,-46 26,-73 20,-12 34,-27 32,-33 -6,-19 -40,-19 -54,0 -15,20 -26,15 -18,-9 15,-37 100,-22 100,18 0,12 -15,30 -37,44 -44,28 -49,51 -13,51 14,0 25,-4 25,-10 0,-5 8,-10 18,-10 14,1 13,4 -7,20 -29,25 -43,25 -72,2 z"
       id="path672" />
    <path
       d="m 3767.6086,8161.1023 v -70 l 58,2 c 42,1 47,2 20,5 -34,4 -38,7 -38,33 0,25 4,29 33,33 l 32,4 -32,1 c -28,2 -33,6 -33,26 0,21 5,25 38,29 27,3 22,4 -20,5 l -58,2 z"
       id="path674" />
    <path
       d="m 4070.6086,8224.1023 c 26,-4 27,-6 27,-69 0,-57 2,-64 20,-64 18,0 20,7 20,64 0,63 1,65 28,69 15,2 -7,4 -48,4 -41,0 -63,-2 -47,-4 z"
       id="path676" />
    <path
       d="m 4317.6086,8216.1023 c -18,-21 -6,-29 19,-13 18,11 23,11 31,-2 15,-23 13,-27 -26,-70 l -36,-40 h 51 c 28,0 51,5 51,10 0,6 -14,10 -31,10 h -31 l 31,35 c 17,20 31,41 31,48 0,35 -66,51 -90,22 z"
       id="path678" />
    <path
       d="m 4454.6086,8213.1023 c -24,-26 -22,-87 4,-113 36,-36 89,-3 89,56 0,64 -56,98 -93,57 z m 53,-28 c 8,-41 0,-84 -15,-84 -16,0 -25,22 -25,60 0,62 30,80 40,24 z"
       id="path680" />
    <path
       d="m 4589.6086,8219.1023 c -17,-17 -15,-33 3,-18 19,16 45,6 45,-17 0,-9 -17,-34 -37,-55 l -37,-38 h 51 c 29,0 55,5 58,10 4,6 -7,10 -25,10 h -32 l 27,31 c 36,44 32,83 -10,87 -17,2 -36,-3 -43,-10 z"
       id="path682" />
    <path
       d="m 4713.6086,8209.1023 c -23,-33 -20,-75 9,-103 29,-30 36,-30 65,-7 25,20 30,75 11,111 -16,29 -65,28 -85,-1 z m 58,-4 c 16,-42 0,-114 -23,-100 -12,8 -15,98 -4,109 11,11 20,8 27,-9 z"
       id="path684" />
    <path
       d="m 4187.6086,8101.1023 c 0,-5 5,-10 10,-10 6,0 10,5 10,10 0,6 -4,10 -10,10 -5,0 -10,-4 -10,-10 z"
       id="path686" />
  </g>
</svg>
